<mxfile host="app.diagrams.net" modified="2021-03-30T16:10:47.227Z" agent="5.0 (Macintosh; Intel Mac OS X 10_15_7) AppleWebKit/605.1.15 (KHTML, like Gecko) Version/14.0.3 Safari/605.1.15" etag="qht8cJzoJPgU_Ic3vZLK" version="14.1.8" type="github">
  <diagram id="RyRcnDlS8qq8HGjSZm-N" name="Airflow landscape">
    <mxGraphModel dx="2386" dy="4412" grid="0" gridSize="10" guides="1" tooltips="1" connect="1" arrows="1" fold="1" page="0" pageScale="1" pageWidth="850" pageHeight="1100" math="0" shadow="0">
      <root>
        <mxCell id="GwdNWeb7kluTHXHWdRGs-0" />
        <mxCell id="GwdNWeb7kluTHXHWdRGs-1" parent="GwdNWeb7kluTHXHWdRGs-0" />
        <mxCell id="JY5BRYiODmJH8ySLDK6d-8" value="" style="rounded=0;whiteSpace=wrap;html=1;fillColor=#dae8fc;strokeColor=#6c8ebf;" parent="GwdNWeb7kluTHXHWdRGs-1" vertex="1">
          <mxGeometry x="13" y="-2927" width="1084" height="30" as="geometry" />
        </mxCell>
        <mxCell id="GwdNWeb7kluTHXHWdRGs-72" value="Workflow" style="rounded=0;whiteSpace=wrap;html=1;fillColor=none;" parent="GwdNWeb7kluTHXHWdRGs-1" vertex="1">
          <mxGeometry x="6" y="-2920" width="1084" height="30" as="geometry" />
        </mxCell>
        <mxCell id="0pv32__lJGYIT4mu8PhQ-8" value="" style="rounded=1;whiteSpace=wrap;html=1;" parent="GwdNWeb7kluTHXHWdRGs-1" vertex="1">
          <mxGeometry x="270" y="-3305" width="494" height="157" as="geometry" />
        </mxCell>
        <mxCell id="0pv32__lJGYIT4mu8PhQ-16" value="" style="edgeStyle=orthogonalEdgeStyle;rounded=0;orthogonalLoop=1;jettySize=auto;html=1;entryX=0.5;entryY=1;entryDx=0;entryDy=0;" parent="GwdNWeb7kluTHXHWdRGs-1" target="JY5BRYiODmJH8ySLDK6d-23" edge="1">
          <mxGeometry relative="1" as="geometry">
            <Array as="points">
              <mxPoint x="854" y="-2926" />
            </Array>
            <mxPoint x="854" y="-2926" as="sourcePoint" />
          </mxGeometry>
        </mxCell>
        <mxCell id="JY5BRYiODmJH8ySLDK6d-5" value="" style="edgeStyle=orthogonalEdgeStyle;rounded=0;orthogonalLoop=1;jettySize=auto;html=1;" parent="GwdNWeb7kluTHXHWdRGs-1" source="GwdNWeb7kluTHXHWdRGs-72" edge="1">
          <mxGeometry relative="1" as="geometry">
            <mxPoint x="548" y="-3000" as="targetPoint" />
          </mxGeometry>
        </mxCell>
        <mxCell id="GwdNWeb7kluTHXHWdRGs-71" value="" style="rounded=0;whiteSpace=wrap;html=1;fillColor=#fff2cc;strokeColor=#d6b656;" parent="GwdNWeb7kluTHXHWdRGs-1" vertex="1">
          <mxGeometry x="-630" y="-2590" width="1760" height="240" as="geometry" />
        </mxCell>
        <mxCell id="GwdNWeb7kluTHXHWdRGs-70" value="" style="rounded=0;whiteSpace=wrap;html=1;fillColor=#ffe6cc;strokeColor=#d79b00;" parent="GwdNWeb7kluTHXHWdRGs-1" vertex="1">
          <mxGeometry x="-640" y="-2600" width="1760" height="240" as="geometry" />
        </mxCell>
        <mxCell id="GwdNWeb7kluTHXHWdRGs-7" value="" style="edgeStyle=orthogonalEdgeStyle;rounded=0;orthogonalLoop=1;jettySize=auto;html=1;fillColor=#f5f5f5;strokeColor=#666666;" parent="GwdNWeb7kluTHXHWdRGs-1" source="GwdNWeb7kluTHXHWdRGs-8" target="GwdNWeb7kluTHXHWdRGs-10" edge="1">
          <mxGeometry relative="1" as="geometry" />
        </mxCell>
        <mxCell id="GwdNWeb7kluTHXHWdRGs-8" value="API Validation" style="rounded=0;whiteSpace=wrap;html=1;fillColor=#f5f5f5;strokeColor=#666666;fontColor=#333333;" parent="GwdNWeb7kluTHXHWdRGs-1" vertex="1">
          <mxGeometry x="40" y="-2880" width="120" height="60" as="geometry" />
        </mxCell>
        <mxCell id="GwdNWeb7kluTHXHWdRGs-9" value="" style="edgeStyle=orthogonalEdgeStyle;rounded=0;orthogonalLoop=1;jettySize=auto;html=1;fillColor=#f5f5f5;strokeColor=#666666;" parent="GwdNWeb7kluTHXHWdRGs-1" source="GwdNWeb7kluTHXHWdRGs-10" target="GwdNWeb7kluTHXHWdRGs-12" edge="1">
          <mxGeometry relative="1" as="geometry" />
        </mxCell>
        <mxCell id="GwdNWeb7kluTHXHWdRGs-10" value="DICOM Validation" style="rounded=0;whiteSpace=wrap;html=1;fillColor=#f5f5f5;strokeColor=#666666;fontColor=#333333;" parent="GwdNWeb7kluTHXHWdRGs-1" vertex="1">
          <mxGeometry x="200" y="-2880" width="120" height="60" as="geometry" />
        </mxCell>
        <mxCell id="GwdNWeb7kluTHXHWdRGs-11" value="" style="edgeStyle=orthogonalEdgeStyle;rounded=0;orthogonalLoop=1;jettySize=auto;html=1;fillColor=#f5f5f5;strokeColor=#666666;" parent="GwdNWeb7kluTHXHWdRGs-1" source="GwdNWeb7kluTHXHWdRGs-12" target="GwdNWeb7kluTHXHWdRGs-14" edge="1">
          <mxGeometry relative="1" as="geometry" />
        </mxCell>
        <mxCell id="GwdNWeb7kluTHXHWdRGs-12" value="Use Cases" style="rounded=0;whiteSpace=wrap;html=1;fillColor=#f5f5f5;strokeColor=#666666;fontColor=#333333;" parent="GwdNWeb7kluTHXHWdRGs-1" vertex="1">
          <mxGeometry x="360" y="-2880" width="120" height="60" as="geometry" />
        </mxCell>
        <mxCell id="GwdNWeb7kluTHXHWdRGs-13" value="" style="edgeStyle=orthogonalEdgeStyle;rounded=0;orthogonalLoop=1;jettySize=auto;html=1;fillColor=#f5f5f5;strokeColor=#666666;" parent="GwdNWeb7kluTHXHWdRGs-1" source="GwdNWeb7kluTHXHWdRGs-14" target="GwdNWeb7kluTHXHWdRGs-16" edge="1">
          <mxGeometry relative="1" as="geometry" />
        </mxCell>
        <mxCell id="GwdNWeb7kluTHXHWdRGs-14" value="Performance&amp;nbsp;" style="rounded=0;whiteSpace=wrap;html=1;fillColor=#f5f5f5;strokeColor=#666666;fontColor=#333333;" parent="GwdNWeb7kluTHXHWdRGs-1" vertex="1">
          <mxGeometry x="520" y="-2880" width="120" height="60" as="geometry" />
        </mxCell>
        <mxCell id="GwdNWeb7kluTHXHWdRGs-15" value="" style="edgeStyle=orthogonalEdgeStyle;rounded=0;orthogonalLoop=1;jettySize=auto;html=1;fillColor=#f5f5f5;strokeColor=#666666;" parent="GwdNWeb7kluTHXHWdRGs-1" source="GwdNWeb7kluTHXHWdRGs-16" target="GwdNWeb7kluTHXHWdRGs-17" edge="1">
          <mxGeometry relative="1" as="geometry" />
        </mxCell>
        <mxCell id="GwdNWeb7kluTHXHWdRGs-16" value="Throughput" style="rounded=0;whiteSpace=wrap;html=1;fillColor=#f5f5f5;strokeColor=#666666;fontColor=#333333;" parent="GwdNWeb7kluTHXHWdRGs-1" vertex="1">
          <mxGeometry x="680" y="-2880" width="120" height="60" as="geometry" />
        </mxCell>
        <mxCell id="GwdNWeb7kluTHXHWdRGs-17" value="Scalability" style="rounded=0;whiteSpace=wrap;html=1;fillColor=#f5f5f5;strokeColor=#666666;fontColor=#333333;" parent="GwdNWeb7kluTHXHWdRGs-1" vertex="1">
          <mxGeometry x="840" y="-2880" width="120" height="60" as="geometry" />
        </mxCell>
        <mxCell id="GwdNWeb7kluTHXHWdRGs-22" value="/notify" style="shape=image;html=1;verticalAlign=top;verticalLabelPosition=bottom;labelBackgroundColor=none;imageAspect=0;aspect=fixed;image=https://cdn4.iconfinder.com/data/icons/web-development-5/500/api-code-window-128.png;dashed=1;imageBackground=none;fontSize=14;fontStyle=0" parent="GwdNWeb7kluTHXHWdRGs-1" vertex="1">
          <mxGeometry x="646" y="-3233" width="40" height="40" as="geometry" />
        </mxCell>
        <mxCell id="GwdNWeb7kluTHXHWdRGs-28" value="&lt;div style=&quot;text-align: left&quot;&gt;&lt;span&gt;- All end points are present&lt;/span&gt;&lt;/div&gt;&lt;div style=&quot;text-align: left&quot;&gt;&lt;span&gt;- Input and output match specs&lt;/span&gt;&lt;/div&gt;" style="shape=note;whiteSpace=wrap;html=1;backgroundOutline=1;darkOpacity=0.05;fillColor=#f5f5f5;strokeColor=#666666;fontColor=#333333;" parent="GwdNWeb7kluTHXHWdRGs-1" vertex="1">
          <mxGeometry x="40" y="-2800" width="120" height="110" as="geometry" />
        </mxCell>
        <mxCell id="GwdNWeb7kluTHXHWdRGs-29" value="&lt;div style=&quot;text-align: left&quot;&gt;- DICOM tags are present and match source DICOM references&amp;nbsp;&lt;/div&gt;" style="shape=note;whiteSpace=wrap;html=1;backgroundOutline=1;darkOpacity=0.05;fillColor=#f5f5f5;strokeColor=#666666;fontColor=#333333;" parent="GwdNWeb7kluTHXHWdRGs-1" vertex="1">
          <mxGeometry x="200" y="-2800" width="120" height="110" as="geometry" />
        </mxCell>
        <mxCell id="GwdNWeb7kluTHXHWdRGs-30" value="&lt;div style=&quot;text-align: left&quot;&gt;By standard use cases, by modality, by specific use cases, positive and negative scenarios&amp;nbsp;&lt;/div&gt;" style="shape=note;whiteSpace=wrap;html=1;backgroundOutline=1;darkOpacity=0.05;fillColor=#f5f5f5;strokeColor=#666666;fontColor=#333333;" parent="GwdNWeb7kluTHXHWdRGs-1" vertex="1">
          <mxGeometry x="360" y="-2800" width="120" height="110" as="geometry" />
        </mxCell>
        <mxCell id="GwdNWeb7kluTHXHWdRGs-31" value="&lt;div style=&quot;text-align: left&quot;&gt;Run unit level use cases with a larger data set for response times&lt;/div&gt;" style="shape=note;whiteSpace=wrap;html=1;backgroundOutline=1;darkOpacity=0.05;fillColor=#f5f5f5;strokeColor=#666666;fontColor=#333333;" parent="GwdNWeb7kluTHXHWdRGs-1" vertex="1">
          <mxGeometry x="520" y="-2800" width="280" height="110" as="geometry" />
        </mxCell>
        <mxCell id="GwdNWeb7kluTHXHWdRGs-32" value="&lt;div style=&quot;text-align: left&quot;&gt;Run unit level use cases with a larger data set to test elasticity&lt;/div&gt;&lt;div style=&quot;text-align: left&quot;&gt;&lt;br&gt;&lt;/div&gt;&lt;div style=&quot;text-align: left&quot;&gt;Availability&lt;/div&gt;" style="shape=note;whiteSpace=wrap;html=1;backgroundOutline=1;darkOpacity=0.05;fillColor=#f5f5f5;strokeColor=#666666;fontColor=#333333;" parent="GwdNWeb7kluTHXHWdRGs-1" vertex="1">
          <mxGeometry x="840" y="-2800" width="120" height="110" as="geometry" />
        </mxCell>
        <mxCell id="GwdNWeb7kluTHXHWdRGs-38" value="Notify Team" style="rounded=0;whiteSpace=wrap;html=1;" parent="GwdNWeb7kluTHXHWdRGs-1" vertex="1">
          <mxGeometry x="-593" y="-2570" width="80" height="60" as="geometry" />
        </mxCell>
        <mxCell id="GwdNWeb7kluTHXHWdRGs-39" value="" style="edgeStyle=orthogonalEdgeStyle;rounded=0;orthogonalLoop=1;jettySize=auto;html=1;dashed=1;entryX=0;entryY=0.5;entryDx=0;entryDy=0;entryPerimeter=0;exitX=1;exitY=0.5;exitDx=0;exitDy=0;" parent="GwdNWeb7kluTHXHWdRGs-1" source="GwdNWeb7kluTHXHWdRGs-73" target="GwdNWeb7kluTHXHWdRGs-57" edge="1">
          <mxGeometry relative="1" as="geometry">
            <mxPoint x="-308" y="-2540" as="targetPoint" />
            <mxPoint x="-378" y="-2540" as="sourcePoint" />
          </mxGeometry>
        </mxCell>
        <mxCell id="GwdNWeb7kluTHXHWdRGs-40" value="" style="edgeStyle=orthogonalEdgeStyle;rounded=0;orthogonalLoop=1;jettySize=auto;html=1;exitX=0.5;exitY=1;exitDx=0;exitDy=0;" parent="GwdNWeb7kluTHXHWdRGs-1" source="GwdNWeb7kluTHXHWdRGs-42" target="hYkXJL-Iu95FIFLyxVBk-9" edge="1">
          <mxGeometry relative="1" as="geometry">
            <Array as="points">
              <mxPoint x="-769" y="-2224" />
            </Array>
          </mxGeometry>
        </mxCell>
        <mxCell id="JY5BRYiODmJH8ySLDK6d-14" value="" style="edgeStyle=orthogonalEdgeStyle;rounded=0;orthogonalLoop=1;jettySize=auto;html=1;" parent="GwdNWeb7kluTHXHWdRGs-1" source="GwdNWeb7kluTHXHWdRGs-41" target="GwdNWeb7kluTHXHWdRGs-42" edge="1">
          <mxGeometry relative="1" as="geometry" />
        </mxCell>
        <mxCell id="GwdNWeb7kluTHXHWdRGs-41" value="Vulnerability" style="rounded=0;whiteSpace=wrap;html=1;" parent="GwdNWeb7kluTHXHWdRGs-1" vertex="1">
          <mxGeometry x="-809" y="-2626" width="80" height="60" as="geometry" />
        </mxCell>
        <mxCell id="GwdNWeb7kluTHXHWdRGs-43" value="" style="edgeStyle=orthogonalEdgeStyle;rounded=0;orthogonalLoop=1;jettySize=auto;html=1;dashed=1;exitX=1;exitY=0.5;exitDx=0;exitDy=0;exitPerimeter=0;" parent="GwdNWeb7kluTHXHWdRGs-1" source="GwdNWeb7kluTHXHWdRGs-57" target="GwdNWeb7kluTHXHWdRGs-46" edge="1">
          <mxGeometry relative="1" as="geometry">
            <mxPoint x="160" y="-2540" as="sourcePoint" />
          </mxGeometry>
        </mxCell>
        <mxCell id="GwdNWeb7kluTHXHWdRGs-44" value="" style="edgeStyle=orthogonalEdgeStyle;rounded=0;orthogonalLoop=1;jettySize=auto;html=1;exitX=0.5;exitY=0;exitDx=0;exitDy=0;" parent="GwdNWeb7kluTHXHWdRGs-1" source="GwdNWeb7kluTHXHWdRGs-47" edge="1">
          <mxGeometry relative="1" as="geometry">
            <mxPoint x="6" y="-2912" as="targetPoint" />
            <mxPoint x="530" y="-2540" as="sourcePoint" />
            <Array as="points">
              <mxPoint x="191" y="-2640" />
              <mxPoint x="-22" y="-2640" />
              <mxPoint x="-22" y="-2912" />
            </Array>
          </mxGeometry>
        </mxCell>
        <mxCell id="GwdNWeb7kluTHXHWdRGs-45" value="" style="edgeStyle=orthogonalEdgeStyle;rounded=0;orthogonalLoop=1;jettySize=auto;html=1;exitX=1;exitY=0.5;exitDx=0;exitDy=0;exitPerimeter=0;" parent="GwdNWeb7kluTHXHWdRGs-1" source="JY5BRYiODmJH8ySLDK6d-17" target="GwdNWeb7kluTHXHWdRGs-47" edge="1">
          <mxGeometry relative="1" as="geometry" />
        </mxCell>
        <mxCell id="hYkXJL-Iu95FIFLyxVBk-17" value="" style="edgeStyle=orthogonalEdgeStyle;rounded=0;orthogonalLoop=1;jettySize=auto;html=1;" parent="GwdNWeb7kluTHXHWdRGs-1" source="GwdNWeb7kluTHXHWdRGs-46" target="hYkXJL-Iu95FIFLyxVBk-16" edge="1">
          <mxGeometry relative="1" as="geometry" />
        </mxCell>
        <mxCell id="GwdNWeb7kluTHXHWdRGs-46" value="Deploy" style="rounded=0;whiteSpace=wrap;html=1;" parent="GwdNWeb7kluTHXHWdRGs-1" vertex="1">
          <mxGeometry x="-204" y="-2570" width="120" height="60" as="geometry" />
        </mxCell>
        <mxCell id="hYkXJL-Iu95FIFLyxVBk-19" value="Deploy" style="edgeStyle=orthogonalEdgeStyle;rounded=0;orthogonalLoop=1;jettySize=auto;html=1;entryX=0;entryY=0.5;entryDx=0;entryDy=0;" parent="GwdNWeb7kluTHXHWdRGs-1" target="0pv32__lJGYIT4mu8PhQ-8" edge="1">
          <mxGeometry relative="1" as="geometry">
            <mxPoint x="-47" y="-2800" as="targetPoint" />
            <mxPoint x="-144" y="-2674" as="sourcePoint" />
            <Array as="points">
              <mxPoint x="-144" y="-3226" />
            </Array>
          </mxGeometry>
        </mxCell>
        <mxCell id="hYkXJL-Iu95FIFLyxVBk-16" value="Bash" style="rounded=0;whiteSpace=wrap;html=1;" parent="GwdNWeb7kluTHXHWdRGs-1" vertex="1">
          <mxGeometry x="-204" y="-2672" width="120" height="60" as="geometry" />
        </mxCell>
        <mxCell id="GwdNWeb7kluTHXHWdRGs-47" value="Test" style="rounded=0;whiteSpace=wrap;html=1;" parent="GwdNWeb7kluTHXHWdRGs-1" vertex="1">
          <mxGeometry x="131" y="-2570" width="120" height="60" as="geometry" />
        </mxCell>
        <mxCell id="GwdNWeb7kluTHXHWdRGs-50" value="" style="endArrow=none;dashed=1;html=1;" parent="GwdNWeb7kluTHXHWdRGs-1" edge="1">
          <mxGeometry width="50" height="50" relative="1" as="geometry">
            <mxPoint x="40" y="-3120" as="sourcePoint" />
            <mxPoint x="960" y="-3120" as="targetPoint" />
          </mxGeometry>
        </mxCell>
        <mxCell id="GwdNWeb7kluTHXHWdRGs-51" value="K8" style="aspect=fixed;html=1;points=[];align=center;image;fontSize=12;image=img/lib/mscae/Kubernetes.svg;fillColor=none;" parent="GwdNWeb7kluTHXHWdRGs-1" vertex="1">
          <mxGeometry x="796" y="-3164" width="31.25" height="30" as="geometry" />
        </mxCell>
        <mxCell id="GwdNWeb7kluTHXHWdRGs-53" value="" style="shape=image;verticalLabelPosition=bottom;labelBackgroundColor=#ffffff;verticalAlign=top;aspect=fixed;imageAspect=0;image=data:image/png,iVBORw0KGgoAAAANSUhEUgAAAQQAAAD+CAYAAADcdnvBAAAgAElEQVR4Ae2991fT27rvf/+VO77jnnvGufucvffae+2yml2KiKj0JlXsvYHYuy57W1YERaSIYsGOQpTeey+pJKGE0Pzt/R1zJjPGj0RaElLmD58xTYCoYc5XXp/neeYz/9fnz5/BL/4e8DnA5wCZA/+LTwQ+Efgc4HOAzQEOBG5I3BD5HDDMAQ4EPhkMk4F9SvDReY2BA4EDgQOBzwHDHOBA4JPBMBm4GTivGbDfPQcCBwIHAp8DhjnAgcAng2EysE8JPjqvKXAgcCBwIPA5YJgDHAh8MhgmAzcD5zUD9rvnQOBA4EDgc8AwBzgQ+GQwTAb2KcFH5zUFDgQOBA4EPgcMc4ADgU8Gw2TgZuC8ZsB+9xwIHAgcCHwOGOYABwKfDIbJwD4l+Oi8psCBwIHAgcDngGEOcCDwyWCYDNwMnNcM2O+eA4EDgQOBzwHDHOBA4JPBMBnYpwQfndcUOBA4EDgQ+BwwzAGrAGF0eAjDfb0YUinHvIZ7VPTrw/19INeIph8jAxqMDAx8fWkHMDo4iNGhId01PIzPo6OG/wz/ZHPeTzZn+N2PfP6MwdFRepE/W+L/bBUgEBhoWhrRW1k25tVXW0m/rmlvBbkGOtuhlXRBK5N8dQ0qZDqg9Kox1KvGsKYPowQKFnpz+OtaZtLx93Vq7yuBgWpomF7kz5Z4Hy0KhBGtFoMKOfqqy6DISoXkztUxL+m9G5CnJ0KemUwvxeMUKJ6mQ/E846ur+8UjKN88hTLnOb1Uua/Q8+k9egvzvr6KROgrzUdfRRH6q0rRX1uJ/voaaBrroGlugKa1CQNtLRjoaIO2q4PCZ1AuxaBCgSFlN5ixjGg0GBnU6qBjoV+AJX6p/DWntuBs9X3rHx5Be/8AKpS9EMmVKOpWQzqghXZkBCNmnpcWBQKBgSo/D+KEy2jaGo7aIJcxr7oQV9StWIS6MA961YcvRn2E57dX5BI0RC1FQ7T+Wrkcjat80Lja96uraX0gmrdHojV+PdoO70D7qX3ouHgCndfOoev2ZYiTrkOSkgDZw2TIn2ZA8eopunPfQlUgQk9ZEZixDIg7MahUcBPhBmaRT+OJAojAILVNguNVzdhdUo+zNS3IV6ig0A5SKEz0dSbyfZYFglyK7ry3aL9wFDX+c1H28/9G2S//n8Wv8tn/iUq3H1Dl9ROq/eejJnQxaqN9ULc2CPUbw9C4LRpNcWvRvHczWg7vQuupvWg/fxSdf5yG+PYlMGNRPElF9+ssUBPJ/4De4o/oKy34Yh51VfRWZ6CzTW8ZMgwRgPSodXEQEu8YGZnRyTSRScC/xzaNQjM8gs7+AbyVKHCoohHhogr45pRgc0E1nnbK0NavQb+Zb5ktCoTh3h70N9VDlnYHdRGeKJ/1Hyif818on/cni14V8/8bFS5/RaXb31Hp8Q9ULv6n7vL8J6qW/BtVS39G9fJfUe0zC9V+cyisCLBq/OejNnAhmLFQU4nyQkOMNxrX+qNpUyiad0QbzKPj3GGIE/+ALDMFipdPoMx7B3VJAfrqq2kcZFDZjZHBQQ4EbhhTmgMEBpkdMmoG6/OrEfShFN7virEhvwqprWLUqHuhHhqa0mub+hCwKBDIYiCLQv3pA9qPx9HbgSrPf6Jiwf+gYuGfUbHwL9a5FvwPyuf+F8rn/OfY1+z/i/Jf/49JcyFfK5/9f1Ex/0+odP+bzjz85qI2wguNWyPRvH8LWo/Ho+PCUXTdPA/p/VsgcRDl6yfo+Ziji2dUlqDfYBTtNFhK4xV9fRQa3CRs81Pa1MKx5PPMDN5JFDha2YSYj5UIzSuD//sSLLdnIJBJTqEgk6C35BMkCZcoFMji1EHBSkAg8CEQIuZg6vqOtVTM+5Pu5xb8mZpHhesPqHD9KyoX/R1VS39Ctfdv1DZq/OagNnAB6kLcQOyiIXoZNYvmbRFoPbAVBqN4nApFziuoSwuhaW2m0OQmwYHAIMPMgMBg1cdKBHwoReCHUgMQ7PaWgf0HSWqQpAh7S/PRcTIedeGLqbpTSyAL1drGMF0zERqHCcMwmIXLX1HtMxu1kcvQuC0KLQe3o/3MQXTdugB5xl10v34CtegdNQmSESFZEJJ25QbhXJAQmkH0x0r4fyiFT04xhQEzhC2FNXghVkCs0YL8DFtn5hgtestg+AeOjtLUHakjIFCQ3rmM+qhlFARU5a1uDNM1kzGMYwzDMJjFwr+gctGPuvjFsl++tokVi1Cvj1OQzAjJiJAsCMl8cINwLiAIzYDAgECAXMQSHAcI+qCSwRTKCtFx5gDqo5aCxhTm/T+9kls5tjBdU5jszzOzMGEU5DakJsQDDdui0Xpij8EglG+eoacgD/3VZTSroZWKMaRW0SpOHnuwf2iMZwbkdsH4lsH+DYFFmQ2mIEdvWSGkd/9AwypfVLr+FRXz/h8N/Fk3tjBdU5jszxuZxVhGseDPOpPw+je1CBqPWLEIDat8QOIQbUd3QXznKhSvn6G3upwGJkl5t8HE2PvMR7t6T8YzA8cFgtAUKorQdfEoGlb7osrr3xQKNOhnbzGFyZqCqe83YRCsrqImYAEatkai7dReSJKuQZH9EOqPObQac6C1CeSWbLi/n1dW2gkQJ2oGDg8EsiGJ3D4MKeTorSiC9N51CgXnMQVTZjG2QRjqKkgcYtkvtG6CZjJIFmNDMNoObYfk3k0oRe+h6WjjlZV2AoSJmoHjA+EbUyhG56VjqF/jx03BlD2Q5wUGQQq9CCyq/eaicecqdFw+AcXj+7qMRUUxiDUMdSt4rMHGADEwMgLZgBa5sm4cr2yGMJvAACAcWVBxa2ENXkkUkAxoQV7LnLeM1skymPqFsJhCtwLq6jKIU25TKHBTmJhB6G6v/oxK9x9p5SWpsiR7QEhFZeuRXZDcvY6e4k881mBq/s3Q8wQGpOjocm0r1udX0dSicTZBCAL2mAFhW1EN3kgVkNvbXoaJkmtkZARarRaq6nJ0XD6OhrX+qFn+MyoX6msUnDWm8D1bMP6awBxIfQfZw9G4PRriG+fQ/fIxekvyuTHMEADYOmBm8EmuxJW6NmwrrEFIbpmhzoAtfFOjMRDeSRVQDNrZ5ib2Row3jo6OgkJB2U2hIElLQMuWENQt/SeFgvUrG019Qtvq81/HHmimhm7u+jfdm9G4LgCth3dwY5hhIDAzIDDYUlBNYcDqC1g1oikYkOedBggMGMwUeuurIE84j/btYajz/Y2bgrENTOTP4xnDqyfoqyiBVtyBIdKhamQEBMrs98BH89Y2TNcMGCScDgjMFIZ61NC21EP1JEUHBW4Kk9wE9n1jIDEGsq9C/uwhetua6e0agQIHgXlBwN7P6ZqB0wKBvYFsJFBQJF5E2/Yw1PrO0u2QtMe9DxP5VLfk9wiMgezYrItajpYjsZA8vAdlySdoOttAtquTfpXs/efj9ABhLjMQAmF7UQ3eyxRQkt3EZgb5zGYZxrmnG+nroabQ/eQBmrdH0T4GJGDGYwqTjWUIjGHhn1G5+B+o9p2N2vDFaNm/ibas62uopVDgIJgeCNj7Zy4zEAJhZ1ENPsoV6BvSYnjUvGZn00Bgb+xASyOkiVfRtD0KNb5zuClM1yYExkAaxbQe3gnZw3voLSvCoExCaxfY+8/HyQGC9DpUDAyiQKHC1SlkExgAhCOLIewqqkG+XAHNsJMCYaSvFwQKiidpFAqk4xE3hclagvH3f20MpN0cgQKpeuy8cgrdOS8pFDgIJgcC9n4RGIhkStxq6DCkFieTTRCCgD3mQBDcUnwxhWjU+M1FhYuues/u+ilM9xPe3D8//79pe7tKjx9RvzaABhyV77Jp3QKBMZvofPw+IJgZFCnUFAZxxXVYkTfxOgO28E2NBAikN0JccS2KFN3QjgxixBlvGdhENJjC03Q071qFKu/fKBR4TMH4038KfyadoEgnKRJb8PgRtSFuaI5bA+nd6xQK7P3n4/eBYGwGO4pqKQzI4iYLeSJ1BqZAwJ5nlrGvtB7l3WoKg9HP5k0X20UMQTgRSY0+mazNsatBdgBWuP3tS1zBmr0azf1JPdOvpzcF0juyavmvFLrkfAxiZtwUTMPA0mbAgMDGA2UNqFRaxtzsEgjUFFqb0J2dieY9G1EdsJBCgZvCFOzAGELMFGjX6r/Q27Km7dE0oEugIAQzf6yDhKXNgIGAjRwIglgCm4gD7S2QpSWiee8m1AS5clMwXtzT+bM+C0FuIUgAl6R8SepX21yHYbWS91vQz0drmwEHggkQMCCM9PeBQKH7ZRaFAjeFaRqCASL6LIR+UxkpCiPFYYqEc+ivKeP9FvTz0tpmwIEwDhAYGL41hR++tF0nGmyY6OZaME7yOnpTILtOyUazti0hUKQloL+6lPZZoAftOuEeiJkyA3JQC9kdeaSiEdUqHkMweQ/7jSn4z9fVKegbiHAgTBVgX0yBQsH3VwoF+c3TFArOevr2TJkBgUGUqAK/V7egVt1ncj2wD8qpjHYZVDT1HzWYwp5NqAlcqDtUhR3Mwk1h6qYkNIWtoVBmJmKgvgLDKoXTxBQGR0ahGhxCubIHCY2dMHedAbslMDWuyCvH6vwqnK9tRX0PB8K4RDSYwuunaDm4AzXB7hQKrNUYNwXzmEKD/2yI42Ogun9VBwVNnw4KE7zFMwV0W3+ewKBC1Yu0NgniSnRFR2TxmqvOwBQI2PNhonKsL6jGpbo2NPT0j7sepvJ+OpQhsDdA29kO+aMHaDm0EzXBbtwUzBVD0ZtC9aIf0By6AJID66B+loKBhioMq7od1hSYGVSre5HeLqHnLRJ1ZycqsQVr6TFCVIGtRbW40dCBpl4OhAkTcUTTDwKF7rfP9VDgpmAeO9LFFMjeh9rlP6MlxguyI5vQk35DBwUHNQVmBgQGe8vq6X18UK71zICBZqWoAvGl9bjb3IXWPs2E1wP7oJzI6JCGwP7jzBRaD+9CbegiVJKKRpJKI3EFHlOYekzB9Qd6oEy9/yx0rVsGxe870JOd6nAxBVsxAwYEcvDrofIGpLWK0c6BYLp0lAFAODJTUOa8RNvJPfSwVQIFHlOYaixB/3MufwU5Abtu+c/oWOUJWVwY5Me3OFxMwVbMgAFh9cdKHKtoQma7FORMB+F8N8djhzYE9gZpxZ1QZD+iJx7VhXlyUzBTTKHG619ojXCDeMNySDb7QnFiK3qeP8BAXTk9hIcccW+PZ08OjY6id2iYRvIz2qUzFjNgIGDjmk+VOFHZhMcdMg4EtrinMo5oNCBQUH14TaFAjmXnpjBNS1j4F1Qv/hFNQXPREbMY0i1+kMdHUigo711Cf0UhBpXdIFCYyu9sJn+GwIAE7Z53yXGgvGHGYgYMBGzkQDBzGoubwvQhYBycrFr0d9T7/ILWcFdINvtBvjMIsm3+kB/dBFVmIvrLCzEkl1Io2IMpMDMgMMjukuNcTQtiPlZaPZvAAMBGtu159adKnK5uoaASa7QWAa1T3DKwTxtuCuYFArGsaq9/oTF4PsQbfaDYFUyhII+PoFBQJl2gULAXU2BmQGBwuKKRwiA4t8xqdQYMAMKRNUYhQUVSg5Aj7YZswDLm5VRAYGBgptB+ah/qIr1oUxCys49nHyYJDEG2gRgCgwIxBcXRTVBn3kF/WT6G5BKbNQVbNQMGBgKE5e+KQYDwR0M78uRKeowbm8/mHJ0SCAZTEL1Dx4WjtG0Y6RTEsw+TBIIw20BuF4ygoIgPh+LwOqgSzlAo2Kop2KoZcCCYOWYwHjlJd2HSULTj4jHUr1zOTWGK2Yfapf9G+0oPSLfqgRAbAgW5dgZCvsWHQqEnMwGa8gKbiinYuhkIgUBiCDcaO/BJoYJCy28ZzB5EGRkYoN2F1Z8+6KCwNoBCgZvC5EzBJBB2BVMoKOLDoDy2Eb13z1Mo2Iop2LoZCIGw9lMVEps7UdKthnLQMgfqOOUtg9AcDKZw6TjqY7zpISY8pjBxKNR6/Qttke6QbPKFfEegzg6YJZBxVxC6d/hDdXwjeh/d0ZmCTEzPfpiJ7IO9mIEQCBvyq5DaKkaNuhdqC52wxYHw+TOdmAQK6vxcdFw5hfoNwRQK3BQmBoUaz3+gOWQBOtcshWxbwLdAiA3WQSE+nEKhJ/Es+otE0M7QgTD2YgZCIGwuqMbTThna+jXoHx42uzGTD0oOBKO4xaBciu7cN+i4+jvq1/ijasm/dGc/8L0P3933QAqUGgPmon3lYhpHoPEDY0Ngf9abgvLoeqhTb6CvMBeDkg6rmYK9mYEQCNsKa/BGooBcqwXp2iQ0XXM85kAwAsKIdgAECuoiEbpuXUDjtkgKBW4K3zeFao8f0eg/G+3RiyDd4j+GIeiDjHpTIDEFxaE1UN06SaFgLVOwNzMQAmFHUQ1EMgV6h7QYMvMBLQwmHAhGQGBvyqBCDlV+HrpuXUTDugBuCuNkHwgQGvxnoS3KnZYwmzQEZgos+3BwNVQPrlncFEZGR+knKtkh+NKGKhDZgh9vZHUIu4prUKhQWOTEJjb3ORDGAMKIVgsChZ6SfAoFbgrjG8KkgMCyD3GhUBAoWNgUaFNU7SA+ypV0cxApR7aFCsTxQMC+zoBAjnAr7VZZ5MQmDoQxQMDeFDZyU/g+CNi+hkkbgpVMgZmBRKOluXvSB3Hdp6oZ35vAFvpER1a6HF9ST/s5svlpiZEbwnfAwE3BwkCwsCkwMyCFPGeqWygMQm1gb8JEQcC+j21u2mfBI9wYXDgQvgME9iYZTOH2RTSsD0LV0p++9GnknZcwZUOwkCk4ihkwIJDbG9Jx+Vhlk8XOY2BznQNhAkAwmEJpISSJ19AUu5pCgWcfdAYxbSCY2RQcxQwYEGj79U+Wbb/OgTABELA3iY1DSgV6SgogSbqOxo0h3BT02YdpA8GUKRR8gLajFcN9vRgdHr9U19HMgAHBGt2W2RznhjAJMIwOakGg0FteTKHATcFMhsCAIDAF5fWjUL/PhqalkUKBTVpTo6OZAQOCNbots/eUA2ESQGBvmsEU7l5H4+YVqF7+Kypdf3DafgpmMwQGBlansG8lFAlnoH73DAOtOiiMZQojnz9jcHQU0gEt8hUqeqqSPWYTGADYyIKJJE16rLIRjyzYXJXNbQ6EKQDBYAqVpZA+SEDL3k0UCs4aUzA7EJgpEEDsW4nuKwcpFEyZAoGBamgYRd1qnK2x32wCAwEbWbqRNEa5UNuKt1IFhR5bvJYYORCmAAT2ixhSq9BbVQ5p6h00bY0YwxT0h6WSvRDz/qS76L6I/6GH0bI8vr2PBAgTK11mJcwTHMcxBWYGpJ1Ycbcaic1dWJ9vf3UGDADCkRUkWaMPApvTHAjTAMLo0CAIFPqqdVD4xhT0R5+Vz/6/KP/1/+gu8ue5/6U7MGackmB7AcWENzexW4KJjuOYAjMDAoPzNa0UBqF5M98DUbiwp/qYAcEafRA4EKYBAvbmsdFgCmmJaNoehRqfWah2/xvKFvwF+a7/QJ77z8hx/w3vFs3CB49ZEC36BYVu/0SpCzlJ6s+oJNZgx+ZA27EHknbsnt/f7ThREAi/T2AKqnfP0N/SAFl3N0rk3bjX0oUN+dV2V4E4HigYEMj/jRwwS46A7xmyzLZnNpe5IZgBDAZTqK2E/FEK2o/spApd4vojXvh540H4GtxeHYub6+KRtGo7HoZF4623Bwrc/43KeX9Czez/QOWc/7Rbc7A4EASmIL98ALI3j1FcWoIrpdXYWliD8LzyGe+OPN4Cn+zXGRC2FNbghViBLo0WmmHLbHvmQDADCNibyMbh3h70NdSi83E6CnduQlZEJG5sPYKT+25j/7GH2HviMQ4feYCz8X/g9sY9SIuKwfNAX+Qsc8FH959QtPAHlC/4H50x2FEF5PgNUiYYMxCagfCx3hRke6MgvnkS7x89wJ5XOQjKKULg+xJMdsHZ+vczIOwoqkWuXEkDp+Q2ic03S4zcEMwIhtGhIRAoNNW2IOlBLvZfeYvNt0qwKrEeUfdaEJXcipV3m7H6Ti023CrB9ss52HsiA+d3nUFGWBRyvRagfMFfUDPnP3VQsJMYw7gt1IQLe6qP9aYgjw0BgYLo7F4cSEtH6OuPOih8KHUoKDAgxBbXoUihpqlVEki1BAjYa3IgmPEN7h8cRbtqCK8bNTj4ToWIxyoEZvXD94l2zCsgU40Vye3YfDkPZ/b8gXurtyE7wA+iJXNQ7Pp3XVzBDmILpMkqiR/QU5tIG/apLviJ/tyOACg2L0fh3tX4PeEWVj97ixVv8x0KBsReWB2CNTY1cSCYEQTszSQwSKvooTBY9awXAY/74fd4AD5Z2jEvv8caUCikirE6sRY7Lr3HkYOJuL02FjlL5qGcxBXsILZQt+wn2k+RnclgcSDsDIRiqw8q9sbg9rXz2J3xCNGvRA4HhJDcMpCy5ZNVzahR91nUDNgc5oZgBjBohj5D3DuKnFYtDuWoEfFIRWHg81iL715ZX5tDULoCMbersfdYGhJWbcEL70UQuf0TJfP+G2WkjoHawp+/299wJlKV5Fj4rnXLLG8GzCB2BqJ7my9q9q5EyuVTOPQgFate5jocEMJF5dhQUI0r9W1o6OnnQGDUsvWRwOB50xDOFGix7mX/FzMYDwjk60b24P+oDwQKUUmN2HTpA07EX8Gj4EB8cv0HSmb/l82eLMWBYJnYRbSoArtL6pDU3InWPg0Hgq2DgJlBXscwzhZqseH1AEKejmMF34OE3hj8HvfDP0OJtdeLcCH2DDJWhOHd4jkomPdXlM+3nSxEpctfUeX+dzT4zYJ4vbfVDaFy3yokOOAtA4sdWHMPA1tr/JZhGrcMzAwIDDa90VIY+JNP/O8t+vG+RqCQNQAChZA0GdYkVOHAiXQkrdqKt8sWoXThDzaThSAwIHbQssKFHtJi8diB4Jah+OA6nE687XBBRZJd8MnRHe5qrT0MHAjTAIHZzUAICUFsYeXdJhw5koykNTuQs9wdZQt/QKUN1CtYbA8DW/gmRvmuYMh2BkB0dCv2paQg2MHSjizduOZTFRKaO+k+jW4LHd3GQMBGbghTAINFzGAMKLD4QmCGEgQKe04/0UNhEYXCTNcrWGwPgwkQMAORxoWibXc4Xp2Kx460TPi+LaRVirZeaDTRfx8DwqaCajzqkKG5T4M+C53UxEDARg6ESQDB4mYghAJ7rDcGoSmQ2wcSU5ip7IPVKhQNgNAdCdceH4Hiw5uRfOU0NjzOdsg9DOSWgVQo5ki76UnPpPkLW7SWHDkQJgEEq5gBg4BwzNJCaAokpkADjbP+QwcFK1c2Wq1CkQFBfxRc3d6VyLhwDMeTk7Eq+73D7WFgQcU9pfUoVqjpITOkPZwlQcBemwNhAkCYMTMYAwqk6tFgCqu24a3nfBTN+RPK5v23fku19eoUrFahuCsYpOhJtjMIkp1BKDi8GZcSbmJL1ktEvPnkcPUH1uyyzEDARg6ECQBhRs1gDCgwU9h/8iFSI2KQt+hXFM//i9V3S1qrQpHCYJs/OnYEoz4+Gi/O7Mf+9IcUBiE5xQ4HBGt2WWYgYCMHwneAYDNmMAYUiCmsulOL03v+QHp4NESLf0PF/D/R/gqWrla0dv0BBcJWfzTEhiPneCxu3LyKTc/eOBwI2K0CKVeOLanHneYutFipIIkD4TsgYG+OTZnBGFAISu9GTEItjh65h5ehAah0/5vuABkLxxKsXn9ANkxt80PZ/jW4evMKtj16hsjXHx0OCKz+YOXHSpyuaaE9EMgxdGw+WmPkhjAGGLTDn6HQjKJAPIzzRYPTr0AULmZzPs7SYsOtMiTsOIScwGUo9viXxfsp0IYoQXPRscpCHZJYEFF/fLw4LhR1e6Lx7Mw+xKdlOPx255moP2Cw4UAYAwgUBl3DSKwYxI4cM1UgmhMC7LX06cjwlE7svPAGV3ccR+6yhRavZKzx+hdaI9wg3ugD2Y5Ay5Uss6zCnmg8On8YvyclYt2ztw7fEGUm6g84EMYAATODMukw7lYOYn+uFpHZ0yxFZovXEqMeCKyvQtzpp0iJXkf7KZS6/t1ipmD57IKu3kASG4Km3RHIOb4LZ+8kYNOTVwh3wKwCK1hitwwzUX/AgTAGEJgZEBjEf9DBIOCJDQOBQCZLC9ZXgcQT9h99gIS1uygULFXJaPHsgt4MCAxeH4vDtT8uY0fmMwqDYAfMKjAgsKDiTNQfcCAYAcHuzEBoG3pTYP0UjhxMwrNAf5Qu/BvKSW/GBeY5B8Ly2QWdGUhjQ9C6OxyiI1tx8+pFxD94iOiXeQ4XRGQgYCNpiBIlqsCpqmbaYZktUmuOPIbwWR9A7NLdJtiNGYwBBdZPYdvlXCSs3423yz1Q6PKj2eoTLJ5d0JsBgUHe8Z1I+uM84tMfURiEvit0eCAQGOwqrkVCYweae63TEEUIG6cGgt2bwRhQoJWMSU04cjgZd2O24sPiWbQNG93vMM10pOWyC1+bQf6RLUi6dh6HUtOxygnMgN0qkCPbTlY14UmHDF39A1ZNNzIwODUQ7DJmIISA8DHZ85CuRHRiEw4dScZzv6VmA4LFsgtCM7h2HnszMikMVjiBGbBgIjmh6WZDOz7KlXRDE1uk1hydEggOZwZCKJDHpD7heiES1mynDVtJF2d6QtQ0znswf3bhSzahMT4SomPbkehEZsBiB19td26Xoqm3H70WPqHJFGScEggOaQbGUNAHGSPvtWDP8XTaxZm0dp9u1sHs2QW9GRAYvDy9B9du/4H4h1lOYwZCIOwsqoVIrqQwGLLS7kYhGJwKCIPDn6HUjKJCNoJ7puoMjJqesgYlUxqNF6i1//xN1iGRnvdADoEhJ0NNNutgtuyCftci2ZtArs5YXQXiu5OxuJpwDbGZTxD12vHaqbOFb2oM+lCK0NwyHKloRLWqd0ZiBwwMTgUEAoMS8TBSqoewJ3eQFh19VWegX0imDlaZzPMUItYGgfHfl6UFyzqQ8x7IITDkZCh6XMLQK2UAACAASURBVNwkT582V3aB7VqUbvWnh8JWxa/Ew3OHcTYxAdsfP6cwCCHHsjnYCUzj/X8iReXYUVSDWw0zl11wKiAwM6iUjVAYHBINIuqFUQv0x1p4Zw7A+yG5NF+uDA2Wp/Zj2YO+CV3ke70zNPRanq4BvchrZg7A55G+wMmUgRgvZnP9WQ+4VYl1OLXvJlIjVkG06Gd6sOxksg7Tzy7oYgXynYEQbw9E464VKNq7Bo9P78fJpESHr0A0BQSWXVjzqRJnq1vwoksOa29mYiBgo1MYgrEZ7M3VwSDw2ZdDUnweD9DFuzSlH0vu9mJJYg+9Ft9Ww/2qEq6XFBO6yPeSnyE/73mnB0uSeuF1vx/L0jQ6KHzHQCxmFFlaBKXKsfpmGY7vvY633ot0p02TQ18mmIacdnZBHyuQ7QhAW1wYREe24Y8bl7A7LYPuTSDlyI5cgWgKCCy7QPYukOPeyelM6hkKJjoFEL4xgzwtIp9psTxjAMvS+rE0pQ9eyX104XrcUsP9mgqul7vhelFBr4XnFJh7XIY5h6WYc8TERb6m//q8EzKQn2E/T16LvOaiW2osTtADIrmP/r3EOgxGkamBz6MBXft2oUGYwRZ8M/vhn67EtotvkR4ZgyK3f6FswV/G78Xo8ldUuP5AW62TnY2TP7vx6/qCiv1r8P5kHO5cO48dmU8cdteiKQAIn2eGEFdSh/cy6/ZOZAAQjg5tCEIzIDDwz9Bgyd0+ulAXnldg3ik55hyTYfZhKWYdlGDWfrHuOijBbwck+HVPF36J78Kve8T4da/g2iOmX2Nf/22fGLMOSL55ndmHJPT15x6TYf4pORaeVcDlgoLaBzEKr+ReLM/Q0FShME5hDnPwfaw752Ht7Qpcij2HrKAQfHT5x/gnQbn+gMpFP6LefxY9qo3EABTkBGbD9uRxjnkX1Bfcv3oGx1PuY8vTV4h8LXLYXYvChW/qMTu78XhVM8qUPVbtnSgEAXvskEBgZlAhHcb9ci32v9VgRUY/PBN74XGrB66XlRQEBAC/7BHj57gu/BTbiZ92deiu2E76nOF59nh3F342vtjPCb/Onmevpx9/juukYCHQIACiRnFWAbcr3bpbDXKLkayLVyxP79fHMvQxCGIKxvYwGXPQ36pE3O/A7rMvcW3zYdqLsXyc5qyVbn9Djde/0RS8AOKNvhMAgT5WsCsYpFU66Y5cuzcGH47vxJ3rF5ym8tAUANjzzAwiROXYWVyHhKZONPda56g2tvBNjQ4JBGYGBAZx2X0ISlLD41I35p2UU/UnC5J8mlMYxOsXeVwXyILVXUYLnz5v9NgYCOTPpr7+1evpX3e3zjZ+iRcbjENnFWIQi2AG4XJRAY9bKhrPIHENEpwkcQ5je5i0OWRpEfBQjfDkDuw78RDPAv3GvWUgB7GQY9raIhdBusV/fCCwWMHOAHpuAmmVnn7xOM4lJiD20VOnqy9gABCOLHaw+mMlLte14b20G7KBwRlNNzJAOBQQmBmUi4eRVKhBfFYP/G8pseCMgn4iE+0nC57YAF3IwsVt7ccCk2AGQeyB/JtZDILEN2iAksUf0vppHIRmLyZrDllabLxeiLtrd0DkNR+lrj+arGCs8fwnWkIXomvtMsi2BXwLBKO6AsXOILBdiixWcP/qaRxLTnbaLIIQBOwxA8KWgho8muHKRAYCNjoUEJgZEBhsSlJi6e8yLDisswECA3KvT5WffHpbe/Gb+vuMTUJvEOTfSuIXNKZxUHd7QeIcJN5B4h4kUEniIJM2B/2tQ0xiA47vT8CDqHXI9/jVZAXjl1LlAMh3fhs7YHUFsq3+tOch26XIYgXbnrzA6hcfHL6PAVvoEx3ZLUN8ST0+yVUzWpnIQMBGhwDC0MgoegdGUCMewr0CDWLTVPA6KcXPNC5gQ0ZgCgqmnmcGoTcacotDIEHAQOIgHrd76G0FzViQmMNY2QrjWIMeCCseSLDlsggX4s7jvc8i1M77L1TRngl/oanIStcfULXoRzT4z4Z4w1inOutiBeScBNIavSE2nDZAfX1qNxKuX+KxAhOFVQwEoXllWJ9fRW8XGnpmZpszA4BwdAggEBg0SQeRVdSHbYkKLDkuwZw9XfhpVyeFgk3cHpha9OM9bxyjiO+icQ+WzSCpUJK1YDGHsbIV38QaSAVjZi8IFPaefYoX4SGodv8BpDyZ1SUQGNT7/kb7Jko2+41xqxCE7h3+9NAUck4CaY1OuiHvTU3D1qwXPFZgAgjsVoEc805PdZYoIB2wbldlIQCEj+0aCMwMGiVDeFKkwdF0FbxPSL7NFoy36Ozt63pzEMYc3EhhFKl3uKevdTARa/AlbdeeaLH5VjHubd4NkY8bStz/Ydjj8G3sYOzsATlBiRyaQs5JIK3RQx3sFOaJ3gJM9PuYIWwvqsXjDtmM7moUgoA9tmsgMDMgMIi9o4b3cQXm7ZWMnS2wt0U/3r9XHwf5qgbioARzjo4fayAw8HuqRUxSA04cvIOUlRuQRxqp6Pc4fBM7MJE9uJBwC/vSH9JDU8g5CUFkH8L7EqfbizBRILC6g6OVTShUqG0qdmDXQBgZ/Qzt0Cha5UN4VtynM4PjCvy0S4qf48S2EzAcb1Gb6+umYg0nx441+GRq4Js1gNB7rdh4/BEOrd2D254uSJ/zZ2TM/xteLv0NFauWoW1HMLpidfUE5IDVokMb8ebkbty7chpHefZgwuBjZhApqkB8aT3utojRauUTmdiCH2+0S0MgMJD3DON9lQbx9xT0NkFnBk4IAwYV41iDIVvRhVn7JbT2wjjWsDS5FwQKfklN8D2QjIConQjz8ETU7J+wct6v2Os5Hw/DvVC0KQC1seH06HVy2vLFhBuIT0mlR7DHZL/n2QMTsQKhMbDYwfr8atxt6aJVicrBIZuoOxACwi6BoOgZgah+ABefq+F/ShczoAVFbHE4+8iMQVAhOVtf3+B+RQHPW1J4nv8Et82nscA/GvPcFmPe3LmYP28eAt1dcMTPA4mrg/Do4HakXDmNE8QIsl4i+JUIPjnF9Ah24cTnj0u/sgZmBuR9WZFXhgPlDcjTt0fTjoxwIAhpNNXHNV1DOJmlRuB5GRbsI9mEDl3cwNlBYPz/N1XfsE+M2XubMTe+CPM33oWL30q4uLlg4cKFWLhgAVwWLsRil4Xwd12A6IgwbL3yB0g9wRp9PQGJE5BPPDLZOQC+/x4wMyAwiCuuw52mTtT39NnEngVTa8+uDKFfO4o2+RAyC/oReVWBX0mhkS1VHhovSFv8M3mviDVsrcHP695hVugFLHRfDrc5/4LrgrlwdXGh18IF8zFv9iy4hobDJ+EBX/hThB8zBHKrcL2hHSKZEgobKVF2CCAQGKTk9WJXkgJex5wkm2BOsEwQCC7z52Hhb79gUXAofBNSOBCmCASWVThU0Yg8PQxs9VaBAcIuDGFoeBTq/hF8rBvAvvtKeJ+QYR4pPLKVPQnmXLTmfi0WbCTZl7hO/BLfit/iSzEnPgvzN5yA61JvuM39Ga7zZsN13jzdtXABXN3d4blmA/xTshD8sQpBeeUcDJMEQ8zHCuwvr0dKqxhtNppVYCBgo10AgcCgukOL5A99iL7UjbnxMvy6W7dt2Wb2JJh7IZvj9QzBxS78tFOKn3d3YtbBWsw/kwOP2zfgeSYWHiv84E5uF2b9CpdffqYXgYF7VAyWnjiHkNcfEV7WQqHAYwbfjxkI359dxTXI6hCjsacHvUO2mVVgIGCjXQChUzGMzPw+7L2vxNKjTlxvMBlIGBnBr3vrMetQBead+gjXq9nwTE6A9/ND8ElZC694f3iEusN12WwsXPQzvdxCfeB15Bj8HzxBRGEtomu6EFbcgJBP1fTixjA2GFjMICyvHFsKa/BHfRtqVGpoRwYxMmqbWQUGAjbaBRAq2wdxIFWJZSekmEsrEZ243mAiUIgT64q0mBGczcWihGQsfXgWfq/2ISB3GwI+roX/2wh4JwfA8+xSuMS5Yd7G+fRadCgGAZkZehh0YmW9lEIhqroD5OLGMDYQWFZhXX4VzSgUKdRQaLUUBqOfR20yzchAwEabBsLA4CgkymE8K+5H5GW5bfQwmMiCnInvoRWaZIu3GL/ta8OsQ7WYd6oArldfGIwgIG8TQoqjsKJ8BUJKwxDwKRQ+rwOxJNUHLpc8Me+EG+Ydd4XHjXUIzn2O6NpWrGyQIKZR/tUlNIbQj1UIFVWABNHIGQNCdXb0x8wMyNkK6z5V4Ux1Cz4pVPQ4NlsPIjIQsNGmgUBg8KqsHyceKuFDNi3xIOLYZdnMCOJkmHVAivmna7Do1lMsTf8Dfq8OGowgqHAlQkqiEFoWidDSSATmh8P3dRC8HvrC/c4SLLzujoXXXOBxLwoBOXcQXlZIoSAEgtAYoitaEVNYS48yJ1BwdAAI/38GM/hUhYTGTgoD0k6dwGBkhk5gYgt8sqNNAmF0dBQjIyOo69Ti0jM1oi/L4XZAzIFgbB7G2YP4Dvy6rwlzjlXC5XIBPJOewPvpefh/iEVIcYzBCIJLIhBSGoXQ0mh6BX4Kh/eLQCx56I1F95fALckDrolu8HgQDJ/sIwgWZSCyqvorOxDCgTxeVSfGmvIWxBTXI7yg1mliDcwMgnPLQLY0n6hsMhzUam9mwMBhk0AgMNBqtSio68OOBCVc98sxK55nFQwZFUH2gMBgwfkPWHw3GT7PTyEgNw4Bok0IKliNkJJogxEYw4BAIUAUhqVZfvBIWYpFyV5wv7sE7nc9sSjZG55p4fB9eQzhZfnjAiGmQUahEFPThejqThpncIZYAzMDAoNzNS142SVHe5/GLs3ApoHQPzCMdlk/MkUqhJ1V6FJmzriL0dgI2J+Nsge/7avD7CNlWHjxDTzvJ8D31SEEF6w1aQTMDEgcIbggEv45IVjy0AeL7nkJLh0Ylj7ahNCCbJOxhLFswfg5YazB0bIUpPMRgcHhikZkd8ltsr8BW+gTHW3SECTKIbwo6cWxdAW8j5PNS/ruxmxROOvIYgX67MGC8++x5P5tqvcBuTsoDEK/YwQMCBQG70Ox/Lk/PNOWC2BATMETbknu8EyPRsCHRJOxBOPFP9afhbEGR8tSkDZopPORMQxm6tTmiS748b7PpoDwJXYwgMvPlYi+LIPbASevSDSKFfwS347f9tdj7okimj1YknIb/m/jEVK4GivKIrCiPEx/e6CLETAACMcvsQMfeKQsMwkEjwdB8M4+jKAJxhLGgsJYz5kyB1vNVpAqTVJ7wQwnMr8GGwprcLKqGS/FCocwAwYKmwICix0U1vdgZ4IOBrPoBiYb6pJsTTsRxAoIDFyuvAIBge+LwwjM24bggnUILVmJUBIspNmDL0FDIQjY4y+xg2VYlLz0GyAsusdiCcuxOHUFvLOPIKz00/ixBEF6ciwYkOdMmYOtZisIDEjtBTOc7bWduNLU9RUM7N0MbBIIGu0wxAoNnuYrEXHeyfsc0FiBGL/s7sJve5sx+0g5XC69pKlE/3d7EFK0esJGwEAwfuzg61gCCTKSzMOSh2sRJMpEZFUdVtZ3mg0MQmCYylawT2Y2WsokhCbA/j5SpUmsZn2THLuaFbjQocBrucqhzMAmgaDoGcbH2n5cftoN/1Ok2s5J+xywWIG+rmDBuTIsSU6Cbzaxgq0UBnSRT9AIGBDGix0Ig4sklqBLQ4bA58UpBH98SqEgXMhme2wiW8E+mdloKZMQmoDh76vpolZDYHBdD4PmvgGb7InIFvZUR5u6ZSA9Eu9+6MW2BAU8DzspEKgZkCPf2jHrUD0WXiiC572H8HtzAMGFqxBaFj5pM2BAGC92MBYQSHDRPdkHSzI2wO/1JRpg1FUvyixmCuMBZqImwT7hJzoyExD+/c5gBgwgNgUEsmdhX5oSXiekmBPvhJ2Q9GZAYDD7aAVcrmZj6aOL8Hsfh4BPaxFcrKswnGisgIGAjePHDr6+ZWCxBPd7XhQKS7N2IbTwNaLr2scsaRYuJIs9nqBJsE/4iY7ktoDEN4T/bmcwA5sCAuuiLKrXYs3NbvwaT5qfOFl2gZiBvuKQZBHcrmdhacYl+OdtQXBJmP76utKQLfSJjgGiFfDKHKvuQAiCrx+zWwfPjGgE5iUhoqIY0XVt3ywc4UKy98frGuXY3iTH2XYFXjlozICBgI02YQisi3J2qQZRl5T4OVama6dOUm7WjOrP1N+lN4MvFYd3dVkE0WYEF61CSGmk/ho/g/A9OEwdCLrgokdqMHxeHkDwpweIrK5yeCAQGJxrlSFL0o2GXo1DxgwYCNhoE0BQ9Y+gsl2LO+96EXzaySoT48gORV19wfwzefBMvmNUcTixuoLvQYB8bbLZhW9iCfeWwI2UNN/3hVfmSvi9OYGwkpwpVzDaujkwMzjVpsBjSTcqVL1Q2WjbdLaQzTXaBBC6uofxpKgPh1K7sfyY1HkqE/VmwOoLvFJv0EIjUn78peJwelZAgDDZ7IIQCOSxO6lNoLGEpfB6tB6BuXenXMFo60BgZkBgUNvbT2EwOGIf/QymCwabAEKDeBCXs1VYecWJKhP1ZjDrQC0WnM+BV9p1TLW+YDxDmGx2YSwgUCjo05CLUgLh/fwggkSpiKis0AcYZy7rYC7AOLMZMJDYBBDKWrWIvauA+yExZjtDZaLeDAgM3K49xbKHl+H/PnbK9QXjAWHy2YWvg4pfAKGrYHS/twykrHn5s30ILXo381mHCVZIjgcOZzYDmwCCIbtQO4BVfyic41xGo5gBMQMCg4DcXfq+BeaJGQgBMdVg4hcQfA0IlnVYkh6FkNw7iC4vwMq6VrsNMnIz+Gxo7zajhmDILpRoEHmx2/EPaxXGDMhtAjGD4phJ7UUQLvjxHpsfCPqS5geBCHkeh2jRHaysKrdbIHAzsBEg9GhGUNc1SNurh5xx8OyCUZ0BySbQAOIU9ySMBwD29elmF0wagj7r4Jm8HP7pKxD6Yh/CC55bfK/DeMo/2a+vaZRhc6MUx1pkyJQonCqbwG4RhOOMGoJcPYwPVRqcz1LB76QDZxcEdQYktUi3LRet1rUzm+SeBLbgxxvNkV34HhRIJaPnPS8sTY+C38szlt/rYKZYAQMHgcGhhi4ktctQoe5zqmyCEATs8YwCoUMxhHRRL+LvKuB1xEH3LtB+Bp30kJQ5x0uw+O49s9cZmAKDubILJqGgb6Si2+uwHr6vLmBFca7N1ycwMzjYJEVim8wuzlxkC9bS44wCoVE8hKvZasSwdKOj7W7Ul1+T49PIiUkuV17CJ/uooLPR9OsMTAHBfNmFr4OKXwChzzqQXoz3vLEkcxMCc+/ZfH0CMwMCgxJlLz2A1V6bopobEDMKhKr2QRxKVTnuWY16IPy2vwYLL76FV+pNBIq2Tnm3oqmFb+p5cwcTv4Dga0CwrMOX+oQHiKgo1fVOaPh2sxBTdmuP3Ay+BA9NgWRGgVDSNIgtN1WOfVZjXBfmnizA0vSruvRi0ZoJdzYytdAn+ry1gPBlV6SuPmHZ03iEfHqCqKoaizZUmSxQuBnYKBCGRkbROzCC95UDWHmp2zG7KtN6gzbMOlwD12tP4fdm71dnIkx0UU/l+yyVXTBlCOx5YgqkfwJpu+b3+ixCCrIRSaBAT3+auUpGbgbjg4AZw4wYAoFBk3QQaaJerDgnc7y9C6ze4EA9XK++hFfGVfjnboXwoJSpLPaJ/Iwlswts8Y89sl6MPlicFgnvF0exovj9jFcycjOwcSB0946gsHEA11+qEfi7I/ZOJIfKyDD3RDmWpCTA7+0eBOavsRoQgvIj6BFtSx/7YfGDb7sqj72Yv44LTOd7dL0YF8MzfSX8c24irCQXUTUNVjcFbgYTB8GMGoJUNYy3Ff04namELzmz0cGyC+TAVXLGouvlfPi+OIHgQt0JSsKTkybyaT+V77EVILgn+2JJxir4vfqdQsHanZa4GdgJEBy6/iCuC7/ua8O8Uw3wuJMN/w+76UlKurZn3z8vYSqLf6yfsXT9wXj2QLZKk/4JbncX00NfljxcBf/31jOF1Y0ybGiQYn+TBHfapLzO4PPEwTAjMQSHrT9gacYDtXC5TLY034Z/3jZ69Do5bXmsxWuJ5yxffzD+7QXtn6CHAmmsQqBgLVMgMIiv68DNFjGKunt4nYGtA4HWH6Qp4XNSgnl7HKh3IgHCri7MOlQO99tpWP70JPxFG2g/RNIGzRKLf6zXtF668ftg+MYUMlbRmAIJNNLsAznjwYx1CswM9jZKcKNZjHcSBWQDWsNOPnafzEfTxjAjhlDSosXWBAXm7xPjN0fqf0CyCzul9ADWxfduw/d1PAI+rXZaIJBbC2NTIDEFEmgk2QeSkjR3nQIzAwKDAoWawmBgZIQDwVYNwdH7H/wUK8a/d8gw52gJvNIuw//DVgQWxFgtuzBT9QcTjikkLYZb0mKakvQldQqfniCiomTaex+4GZj+xJ+sDVnVEBy9/4EBCMeLsCzzLAI/bkRwUYzVCpJmrv7g+7cOX0yB1CkswaJkb3ikhmLZ090IEj2Y9t4HbgZ2CoQ+7Sha5ENI/9iPFeccr0LRAIRjxVj28AICRVv0bdQtt4HJOIYw0+nG8UyBff2bvQ+5dxFZ/BYrK8uwsqZxwnsguBmYDwTEJIaHh2FVQ1BrRlDTOUiPaws563gVigwI5GBWelR7TrxTFSSxBT/+qN8lyXozZq7DipcHEZ17G5HFOROOLXAzMC8QNBqNdYHg8BWK+qDinEO1WJbwFAHPiSVsslpQ0V4MgQGD7X0gTVZI56WQpzsR9O4Kgj9mIqw0D5FV5YiqrkN0bTOi61ppCTQpboquaUZkZQ3Wl5dif1kB7jdWoa1XzYOHkwgejhVbUCqV1gWCo1co0uPndnVh/v5W+F+uQXjaU4TkxnMg3DMVY9DvfSCdl5KXY0mKPzxTw+D1eDP83pxEkOgOQgueI6xEhIjyIkRUlNErrFiEoLyHiHp/B3F5N3GnMgstqi4OhGkCoaury7pA6FQM4dGnXuxLVmDZUQfrkEQ6I8V24qddnVhyRIwdCXIcfVGGfUXXsa0qFtHlay0eXJzpCkX2yT/ZkdUruCYtgmuiK9yTl9IToryz4+D3+jT8c24g4EMibb5CGrD4v7sB72dHEJAVizXPd+B30Rl8aMuDuFcCzdAAB8MkwTA6OoqRkRHU19dbFwgtsiEkvlNjy005Fh9yoNOd9RWKBAYECivOS/EgV4nCli7kdhbjXtsDCgVL73a0hQrFycKAfT+rV3An5c7EKO77wuNBIM1GLE4Lp6lKsoOSXB6pYSDNWBbf98PyFF/EZK2iUHje8IJCYSwd5s+ZjjcQGGi1WhQXF1sXCKTD8rmnKoRdlMFlv4MAwcgMFu7rQvA5CU5mKlDe0oteTR8Ufd0oVpThWutN7KqJR0z5elqxSDY6mXuzk61UKLJFPtWRGYNbkgdcE93gmugClzvkWqi/XOhzxCbItfz+csRkrcYp0Wm8bXmPdnUn+oc03BQmaAoEBgq5HK9fv7YuEMrbB7E7VQmPE1J6QpPd73IUmAGBQcLbbgqD7p5BDA0PQzs8CIW2GzU9dXgkeYK4Wl2jFGIL5jYGRwECAYnOGPTZCLpJimyUGvtafG8JhULko2jse38ED6ozKRS4FZi2AuP3Rq1SoaqyEvfu3rUuEIpbBrExsRuzDojxy+5O/BTbCRKIs8sj343MYP7eLvifluJoejfKmvuofhENY2/6yOgItCODqOttxO32JMTW7MXK8rUILgk3yzHvrBbBkYAwGbswZCuSvRCYEYa9OYfxsuktN4UJGoJEIsGLFy9w6uRJ6wKhqEmLtTcUFAY/x9k3DAjMWMyAwODiczXyajWQqYZogIYEahgQRj+PgkBBNdRDofBI8pRCgWx4IlAwlyk4KxBYT8dF9zzhmeyFFQ8jKBS4KUzMEBobG3Ht2jVsWL/eOkAY+fwZg6Oj+FivwaqrpCCpAxQIu+3QDgxm0AFmBgdSlfhQo4G8ZxikPJuBQDiaNoUIs8QTnBcIurQmN4WJAYDNS2Kxg4ODKC0txf59++Dv52cdIBAYqIaG8ba2D9FXyAlNdgoEQ8ygAz/t7ID/KQkuPlNRGHR262BANnCxN1w4mjYF85Q2OzsQuCmYnnvCuUgeExioVCrk5ORQO3B1cbEOEAaGRyHTDOF5ZS8iL9spEIzNYE8nhcGBFAU+VI9vBsJfhtAU4mr3IaZiw7SzDxwIY5vCnpzDeNH0Bm3qDvQP9ZsEtvD35OiP+/r60NzcjPT0dERGRGDunDnWAYJmcBRdqiE8Ke5DxEU7BMJYZvBURWFAiq3IbcL3zEA4scYyBQIFkoacTvaBA4FVRLIKSF1MIfRhOOLfHUByVTqFgvD34ayPSapRlJeHK5cvY0VoKFwWLrQOENgux4yPvQg7b49AIAHEDsyfphkIJ57QFKabfeBAYEAQmIJ+r0T8u4PIbnrNTUGffZCIxXiRnY0Tx48jwN8f8+fNsw4Qvuxy7EHIWfsFAo0ZTMMMhEAYyxQIFKaafeBA+BoIX2IKur0SoZlRIFDgpqCLNZB048sXL3Ds6FEs9fLCv//1L+sAQdk3gtIWLW6/USPotJ21XY/rwoJ9XfD/XYKpxgyEIBA+NpcpcCAIgaA3BX0XaM/73vDPCKNQ4KbwGQqFAgUFBUi8cwfbtm1DWFiYdYCg6B1BQeMA/nihQoA9Hcyijx0QGNBsQrUGU4kZCAEgfGwuU+BAGBsIrPLR495SEChwU9AZAi1ZVihA6hBEIhHevHljHSDI1cPIq9HgwhMl/E/aiSFYwQyEYGCmUN/biISOe9hdux8ry9YjuDgSISWR49YqcCCYBgKDAjkvgpvC1+lJ0imJZBzUarV1gCBVDuN1WT9OZnTD57gdbHu2khkIgcBMoWeoFy39rXgmfYXYyiMIKlhFoTBeRSMHwveBwKDATeFrIJCqWgKFoaEhbR2nHQAAD/ZJREFU6wDBrvogzIAZCMHAHrf0dSChJR2xFUcQXbJxXFOw5+3Pk9m7MN3vZbsphabQqmpH72AfLTMncGa/B2cardJT0W76IMyQGZiacH3D/SBQeCZ+Q6EwninYa4OU6S7wqfw8gYLQFO5WpqGhu5luRCO3b6Z+L478vFWA0CgexNVsFWKuyOB2wEb7IMSJMX+fBP6npBbLJkx1Ik3UFOytp+JUFrI5f0ZoCnFvD+BxQzbqu5uh1vY4pSlYBQi0McoTFcIuSOGyzwaBQJqj7pLC/6QCF56qp1yBONUFP97PTdQUOBDGjyEIgWJsCiGZkSBQSKx8QKFAtqw7mylYBQjVHYM48lAF39NSzNtrY0CI68K8vRJ4H1cg/q4a76sGxt21ON4CttTXmSnsrjyGteVbEV66CitKow3ZB1s+qEW4EG3psdAUdr3Zh/Tax6iS10I5oHIqU7AKEMraBrErRQnXY1LMirchIOhjBt4nJDiarsKzIg1aZZPfm2ApAAhfl5nCK9kHnGy4iPUVOygUWPbBVo9ys6XFb+rfYmwK/ukhWPtsIy4WXKVQcCZTsAoQilsHsemuErMPSfALAYItdEqKE+vM4IQEsYkKPCnqQ5N0EL0Dth9M6hqQIEvyEr83XsLmyl3fmAJPP07+1oGAgpmCG23V5onVT9fjflWaU5mCdYDQMogNd7oxa78OCDPeNk0fMyC3CcQMCAwaJToYDI3YfrpJMzIAAoX3ChGFgtAUOBCmBgQGBdpo5e5ieD/wp1BwJlOwChCKmrVYf0uBX/eIqSHMaA9FYgZ7pPA+pkDsHTWeFGnsxgyEtxCmTIEAYWmWHzxSlmFR8lKY0mT+/NjgcGZTsA4QGrVYe00+823TmBkcU+Bomg4GjZIheptgD2YgBIIpUwj4GArvF/5Y8tBHBwWTJyeNvSA4KFjXZ0+Q2wdnMgWrAKGwUYs1VxX4aVfXzHVZdiAzEIJBaAorCqPh/z4Uy5+Ro9GWc0OYIhCd0RSsA4SGQay+osRPO6X4OU5s/bbrDmYGQiAITWFd2XYQKPi+C8SSDG8OhCkCwRljChYFAjszLr9Oi1WXVfj3DhnIkelWjSHEiTF3jxRLjyqwI0GFrMJ+u40ZCEEgfCw0hRBRJJZn+fNYwjSAwKBAdkkKsw+V8moo+hUYHHacAiaLAoGdGSeq7kPMJaX1gaA3AwKDvckqpIn6QKomSWrRHmMGQgAIHwtNYU3hVgS8DOOxhGkCgUFBmH049+kiCrqK0a1RUSgIfx/2+NiiQBgaHkFP3wDelfUi+kK3dYFgZAZbb6mQKupDdYcW6n7brzOY7kRipnCy5iLWibbBPzsUS1KXg0xo0laMBw2nFkwVxhSis9bgVkkC8jsLIemVOYQpWBQIA4MjkKoG8ayoHxHnrWgIAjPQwWCQwmBo2PbrDKYLBIMpyEUgUFiZuwHLMnzgluSuh8LUFgQHydfZh2Upvoh6vAqnRGcoFBzBFCwKhH7tKDoUQ3hc0I/w893WCSo6sRkIQcJM4Xj5Wax8vooeiEoORuWmMD0gGkwhaTFckzwQ9TgGNx3EFKwEhD6En5dbPu3o5GYgBILBFLry8PvHM/TI9GX3l9Ej1nVQmN7CcGZjIFCgMYWkxViW4kOh4AimYFEgWPU8hjgx5sRLsfiQApuuq/Agz3liBkIQCB+LeyV43vACv4vOIObxKiy7vxwe3BSmHUtxRFOwKBCsdh6D3gwIDLbe6kbC615UtDpPzEAIAOFjzdAACBQ+tIlwSnQeK7PWUSi4JrrxmMI0MxCOZgoWBYKqbwTlrVokvFUj6IyFui0bmcG6q0rcetWD/PoBKHocP5sgXPjjPRb3SvGs8TV+/3gBa56sg0+KLzzJLj+efZiWLYxpCsW38amjAJJeqV1lHywKBGXvCEqbBnDrlYUOaBGYAYFBSZOWwuB7x7KPt3Ac9es6U5BC1JGPy4XXsSl7O4UCN4Xpx1KMTWHpfW9EPorCybyTFAr2lH2wKBC6e0dQ3DCAGy/UCDT3AS3cDKbcBFTWp0BOqwh/FN3C1uxtCEwLxJLkZXDX9wEgk9uZA4ZT/b9/MQUPGriNehSFm8W37MoULAoEou1E30mDVbOe2MTNYMowIPYzMKwFgUKJpBz3K9OwP+cwhYJroitckxaBlOlyKEzNGnSmoMtALCfZBzszBQsDYRgf6zW48lwFclAqOUH557jO6e1l4GYwLRgY3w6pBtQol1YjvfoR9r87gMjMSCy776Ov2V/MYwvTDTiS/Q9J7hQK9mIK9gUEbgZmgwEBw+DIEAgUmpWtELV/xM3iBERnraa3DmQi88rGqVnCl1sO+zMFiwLBrGc6cjMwKwyMTYHs1iOBr8KuYlzIv4yN2VsQlhkB3wd++iyEzhb4bcTUAKErYPpiCh/bP6Fd3Ym+wX4Mjwxb7Pdq/Due6J8tCgSznenIzcCik4acPaCDQjfqFQ141fwWF/KvGmUheGzhy6f+VKDwxRTIbdmR90fwsukNWlQdFAoTXazW+D6LAkHcPYzs4j4cTe2G97EpHvIaJ8aseClc98sRc7kbN1/yOgNLTwyWhbhRnID4N/GIfhQN/7QgLLlPmq2Qyc2NYSqAIKZAUryhGaE4LTqHF42v6e2aLZmCbQNBbwYEBtGXFDibpTYUHfE6g69P8DUnJFgWolZRj9w2ERLLk7Hz9V4EZoTTWwiejZiKJZCf0ZnC0vvLKRRIIJdAwZZMwXaBYGQGERe6ceaxGq/K+iFR2tY9lzkXoq29FostkEzE3cpUHMk9hW0vtnNjMEP2wVZNwTaBIDADAoO8mgEKg4FBx+9nYCtgYLEFkokgR6WXSSvwvjWXG8M0gWDLpmBRIHQphpFV0EdPU1420RhCXBdmxYtpzICbgeVuC6YCHVPGEPM4BqEPI+CbGgTPZF1nJl2cgccavhdrsMWYgkWB0C4fwoO8XnpU2pIjEwgq6s9adDsgRvRlOb1N4GZgO1AwZQypVRn4XXQRm1/solAg1Y40zsArH8cpAbe9mIJFgUAOTr37vgfbEuTwPDzOIa/UDLrgdqALkRelOPNYyWMGn20HBmMZBTOGOkUTXjW/x63SJBx4fwSbs7di9ZPVCM+MQEB6CJY/8MdiulfCU5+h4OZgbA62ZAq2AQSDGXQh+rKMwiCvRsNjBjYOBGYMPdpeSPpkNIVWKauGqF2ER7VP6OapvTlHEfNkI4UCNwdT2QnbMYWZB4LeDFz2dSH8vBSnuRlYtAhprE96cz9H8uoklfaxswhpNU9wseA69r47aDCHiMxIBGeEwS/VuLZBYA93ySLRX06y+9IWTGFmgaA3AwKDFeekOJbejQ/V3AzMvUCt/XqkHJdAQaHpRru6C/WKJlTIqgzmcKMkAcfyzmLzi1j4p4XQTVQkDedyxwWuieRyg1uSB9ySFusup9l9OfOmYFEgtMiGkJjTgy235Fh8SBBDMDKD0LNSHE3rxpOCPpDMhLUnMP/7rBOrYOZQ0FWKZ41vcKv0Lg59OIbtL3diS/ZmbHi2DquzVtHmIiEZ4fBPC8ayFH+aufhSIUniD+wiVmFkEuzPdm4UQlN43vgSdYpGuhGNbEiz5Hy1KBCapUO49VqN9ddlWHTQCAgCMyAwyKnUUBhotLzOwJK/8Jl87S/moARp50Z2WVbJq1EsLkF+ZwHeteTgYe1j3Cy5g+N5Z7Hj9V6sfLIR/ukr9BWSLtQiTJqEwxjF16YQ/2YPUqsf0q3qpCbEkr9DiwKhSTKIGy9VWPuHDIsO6IEQ24lZ8V0gtwncDKzzyWzJCWSO1ybBSe3IILoH1GhStoEZRGJFKi4UXMfh3JOIfR2HLc83YcPTdVjzZDVWZcUg6lE0VjyMQGD6CrrXYnmKHzzueRnOYCSftF9sglmF8WjbhsFMgXS0Ik1sHlRloEpWY1FTsC4QdnbQJiksZsDNgAOBAGX08yhoxmJkCL009qAziBZVO40/VMlrUCYtR35nPt415+Bp/XP6iXm7NBGnP17C/pxj2PkqHqtI49gH/jQmQQ5mZVkNlzsLobtYjMJVXychiFXYnGHoTIG0tyNQ2PUqlkKBlJJbyhSsCAQxfo3twrz4LgSdluBIKo8ZmOPT1Zleg9U9dKjFqFc0o0hcjlfNH5BR8wR3y1NwqeAP7M85hB2vYrH95S5sfbEdm7M3Y+Oz9Vj/dK3BLMjuzYjMCKx4GIagjBXwTw+FX1owfB4EYGmKHzzve8MjeSktKtK1RBvPNIytYyp/NmEq+pgIgZtLoisCqCkcQkbNY7SpOyhECUzNOQesA4Srcrjvl2FuvAzeJ6SIv6fA6/J+HjOw8ToDc040c7wWq3voH9KgR9tHm7pI+uToUHehVdWGBkUjKmVVKJWU0YvFJnLb8vCm+a3BLO6UJdMaiTMfL+HQh1PY/fYQtr/ag/XPdyAyax0CMsLhleJL+0qS/pLfmgYzDuEoNBBmIuONJkxFbyzkuDjyb/C8t4RC4fD7w/T/R26zyHtijveWvYZFgUDOdcwQ9eJgihKR57vp+Y57kpVIyetFm9yy0VL2H+Sj896WsNgEvQ3p7wYzizJpNT52FOFNSy4e1WUjpSoTd8of4FrxHZzNv4ojeb8j/u0+g2lse7EDW7O30BjG5ucbDcax7skaGF8strHy8UqQi5lI2MNwGF/ETILTQxCUHqy/QmhdRlBGOALTwxCQvoJezFzIHhFy+aUGwj81AHvf7kOxuJTGXewKCOyglieFfbj8TI3rL3qQWz1AYUAOguWL1XkXqzV+9yw2MTQyDO3wIJhZKAfUUPR3Q9onR2ePGG3qTpB4RWN3C03vVctrUS6tNJhGqaQUJeISFHUV0TgGM44Xja9gfLHYRnJlKsjFTORSwTUYX+c+XaFZlCMfTsFw5f5ObWVfznHsyTlKL2YuW17uBrm2v4rH7rcHaBamsbvZ/m4ZSBMTec8w6roG8aFKY2huYo3JwP8ODhtzzwGhcUh75TC+mIFUyetBLmYiH9o+wfh62yLC88a3yKp/+dVFbCWj5inSarLoxczldlkyyEUshjxHztQgXa3M/f8jr2fRW4aR0c8gUOjRjIA0XCXnNPBOR3yhWmIiW+M1hcYxMKSF8cUMRK3tAbmYicj7FTC+pH0KWofR1SOB8UVshcRDSHUnudr05tKsbAO5iMWQ5wgMSFcrS/yfLQoES/yD+WtyoPA5YLk5wIHAI/0W+aThi9Zyi9aS7y0HAgcCBwKfA4Y5wIHAJ4NhMljyk4e/tn0YAwcCBwIHAp8DhjnAgcAng2Ey8E9x+/gUt+TviQOBA4EDgc8BwxzgQOCTwTAZLPnJw1/bPuyDA4EDgQOBzwHDHOBA4JPBMBn4p7h9fIpb8vfEgcCBwIHA54BhDnAg8MlgmAyW/OThr20f9sGBwIHAgcDngGEOcCDwyWCYDPxT3D4+xS35e+JA4EDgQOBzwDAH/n9Ytj5rfrYC6wAAAABJRU5ErkJggg==;" parent="GwdNWeb7kluTHXHWdRGs-1" vertex="1">
          <mxGeometry x="872.88" y="-3160" width="28.66" height="28" as="geometry" />
        </mxCell>
        <mxCell id="GwdNWeb7kluTHXHWdRGs-54" value="" style="shape=image;verticalLabelPosition=bottom;labelBackgroundColor=#ffffff;verticalAlign=top;aspect=fixed;imageAspect=0;image=data:image/png,iVBORw0KGgoAAAANSUhEUgAAAQQAAAD+CAYAAADcdnvBAAAgAElEQVR4Ae2991fT27rvf/+VO77jnnvGufucvffae+2yml2KiKj0JlXsvYHYuy57W1YERaSIYsGOQpTeey+pJKGE0Pzt/R1zJjPGj0RaElLmD58xTYCoYc5XXp/neeYz/9fnz5/BL/4e8DnA5wCZA/+LTwQ+Efgc4HOAzQEOBG5I3BD5HDDMAQ4EPhkMk4F9SvDReY2BA4EDgQOBzwHDHOBA4JPBMBm4GTivGbDfPQcCBwIHAp8DhjnAgcAng2EysE8JPjqvKXAgcCBwIPA5YJgDHAh8MhgmAzcD5zUD9rvnQOBA4EDgc8AwBzgQ+GQwTAb2KcFH5zUFDgQOBA4EPgcMc4ADgU8Gw2TgZuC8ZsB+9xwIHAgcCHwOGOYABwKfDIbJwD4l+Oi8psCBwIHAgcDngGEOcCDwyWCYDNwMnNcM2O+eA4EDgQOBzwHDHOBA4JPBMBnYpwQfndcUOBA4EDgQ+BwwzAGrAGF0eAjDfb0YUinHvIZ7VPTrw/19INeIph8jAxqMDAx8fWkHMDo4iNGhId01PIzPo6OG/wz/ZHPeTzZn+N2PfP6MwdFRepE/W+L/bBUgEBhoWhrRW1k25tVXW0m/rmlvBbkGOtuhlXRBK5N8dQ0qZDqg9Kox1KvGsKYPowQKFnpz+OtaZtLx93Vq7yuBgWpomF7kz5Z4Hy0KhBGtFoMKOfqqy6DISoXkztUxL+m9G5CnJ0KemUwvxeMUKJ6mQ/E846ur+8UjKN88hTLnOb1Uua/Q8+k9egvzvr6KROgrzUdfRRH6q0rRX1uJ/voaaBrroGlugKa1CQNtLRjoaIO2q4PCZ1AuxaBCgSFlN5ixjGg0GBnU6qBjoV+AJX6p/DWntuBs9X3rHx5Be/8AKpS9EMmVKOpWQzqghXZkBCNmnpcWBQKBgSo/D+KEy2jaGo7aIJcxr7oQV9StWIS6MA961YcvRn2E57dX5BI0RC1FQ7T+Wrkcjat80Lja96uraX0gmrdHojV+PdoO70D7qX3ouHgCndfOoev2ZYiTrkOSkgDZw2TIn2ZA8eopunPfQlUgQk9ZEZixDIg7MahUcBPhBmaRT+OJAojAILVNguNVzdhdUo+zNS3IV6ig0A5SKEz0dSbyfZYFglyK7ry3aL9wFDX+c1H28/9G2S//n8Wv8tn/iUq3H1Dl9ROq/eejJnQxaqN9ULc2CPUbw9C4LRpNcWvRvHczWg7vQuupvWg/fxSdf5yG+PYlMGNRPElF9+ssUBPJ/4De4o/oKy34Yh51VfRWZ6CzTW8ZMgwRgPSodXEQEu8YGZnRyTSRScC/xzaNQjM8gs7+AbyVKHCoohHhogr45pRgc0E1nnbK0NavQb+Zb5ktCoTh3h70N9VDlnYHdRGeKJ/1Hyif818on/cni14V8/8bFS5/RaXb31Hp8Q9ULv6n7vL8J6qW/BtVS39G9fJfUe0zC9V+cyisCLBq/OejNnAhmLFQU4nyQkOMNxrX+qNpUyiad0QbzKPj3GGIE/+ALDMFipdPoMx7B3VJAfrqq2kcZFDZjZHBQQ4EbhhTmgMEBpkdMmoG6/OrEfShFN7virEhvwqprWLUqHuhHhqa0mub+hCwKBDIYiCLQv3pA9qPx9HbgSrPf6Jiwf+gYuGfUbHwL9a5FvwPyuf+F8rn/OfY1+z/i/Jf/49JcyFfK5/9f1Ex/0+odP+bzjz85qI2wguNWyPRvH8LWo/Ho+PCUXTdPA/p/VsgcRDl6yfo+Ziji2dUlqDfYBTtNFhK4xV9fRQa3CRs81Pa1MKx5PPMDN5JFDha2YSYj5UIzSuD//sSLLdnIJBJTqEgk6C35BMkCZcoFMji1EHBSkAg8CEQIuZg6vqOtVTM+5Pu5xb8mZpHhesPqHD9KyoX/R1VS39Ctfdv1DZq/OagNnAB6kLcQOyiIXoZNYvmbRFoPbAVBqN4nApFziuoSwuhaW2m0OQmwYHAIMPMgMBg1cdKBHwoReCHUgMQ7PaWgf0HSWqQpAh7S/PRcTIedeGLqbpTSyAL1drGMF0zERqHCcMwmIXLX1HtMxu1kcvQuC0KLQe3o/3MQXTdugB5xl10v34CtegdNQmSESFZEJJ25QbhXJAQmkH0x0r4fyiFT04xhQEzhC2FNXghVkCs0YL8DFtn5hgtestg+AeOjtLUHakjIFCQ3rmM+qhlFARU5a1uDNM1kzGMYwzDMJjFwr+gctGPuvjFsl++tokVi1Cvj1OQzAjJiJAsCMl8cINwLiAIzYDAgECAXMQSHAcI+qCSwRTKCtFx5gDqo5aCxhTm/T+9kls5tjBdU5jszzOzMGEU5DakJsQDDdui0Xpij8EglG+eoacgD/3VZTSroZWKMaRW0SpOHnuwf2iMZwbkdsH4lsH+DYFFmQ2mIEdvWSGkd/9AwypfVLr+FRXz/h8N/Fk3tjBdU5jszxuZxVhGseDPOpPw+je1CBqPWLEIDat8QOIQbUd3QXznKhSvn6G3upwGJkl5t8HE2PvMR7t6T8YzA8cFgtAUKorQdfEoGlb7osrr3xQKNOhnbzGFyZqCqe83YRCsrqImYAEatkai7dReSJKuQZH9EOqPObQac6C1CeSWbLi/n1dW2gkQJ2oGDg8EsiGJ3D4MKeTorSiC9N51CgXnMQVTZjG2QRjqKkgcYtkvtG6CZjJIFmNDMNoObYfk3k0oRe+h6WjjlZV2AoSJmoHjA+EbUyhG56VjqF/jx03BlD2Q5wUGQQq9CCyq/eaicecqdFw+AcXj+7qMRUUxiDUMdSt4rMHGADEwMgLZgBa5sm4cr2yGMJvAACAcWVBxa2ENXkkUkAxoQV7LnLeM1skymPqFsJhCtwLq6jKIU25TKHBTmJhB6G6v/oxK9x9p5SWpsiR7QEhFZeuRXZDcvY6e4k881mBq/s3Q8wQGpOjocm0r1udX0dSicTZBCAL2mAFhW1EN3kgVkNvbXoaJkmtkZARarRaq6nJ0XD6OhrX+qFn+MyoX6msUnDWm8D1bMP6awBxIfQfZw9G4PRriG+fQ/fIxekvyuTHMEADYOmBm8EmuxJW6NmwrrEFIbpmhzoAtfFOjMRDeSRVQDNrZ5ib2Row3jo6OgkJB2U2hIElLQMuWENQt/SeFgvUrG019Qtvq81/HHmimhm7u+jfdm9G4LgCth3dwY5hhIDAzIDDYUlBNYcDqC1g1oikYkOedBggMGMwUeuurIE84j/btYajz/Y2bgrENTOTP4xnDqyfoqyiBVtyBIdKhamQEBMrs98BH89Y2TNcMGCScDgjMFIZ61NC21EP1JEUHBW4Kk9wE9n1jIDEGsq9C/uwhetua6e0agQIHgXlBwN7P6ZqB0wKBvYFsJFBQJF5E2/Yw1PrO0u2QtMe9DxP5VLfk9wiMgezYrItajpYjsZA8vAdlySdoOttAtquTfpXs/efj9ABhLjMQAmF7UQ3eyxRQkt3EZgb5zGYZxrmnG+nroabQ/eQBmrdH0T4GJGDGYwqTjWUIjGHhn1G5+B+o9p2N2vDFaNm/ibas62uopVDgIJgeCNj7Zy4zEAJhZ1ENPsoV6BvSYnjUvGZn00Bgb+xASyOkiVfRtD0KNb5zuClM1yYExkAaxbQe3gnZw3voLSvCoExCaxfY+8/HyQGC9DpUDAyiQKHC1SlkExgAhCOLIewqqkG+XAHNsJMCYaSvFwQKiidpFAqk4xE3hclagvH3f20MpN0cgQKpeuy8cgrdOS8pFDgIJgcC9n4RGIhkStxq6DCkFieTTRCCgD3mQBDcUnwxhWjU+M1FhYuues/u+ilM9xPe3D8//79pe7tKjx9RvzaABhyV77Jp3QKBMZvofPw+IJgZFCnUFAZxxXVYkTfxOgO28E2NBAikN0JccS2KFN3QjgxixBlvGdhENJjC03Q071qFKu/fKBR4TMH4038KfyadoEgnKRJb8PgRtSFuaI5bA+nd6xQK7P3n4/eBYGwGO4pqKQzI4iYLeSJ1BqZAwJ5nlrGvtB7l3WoKg9HP5k0X20UMQTgRSY0+mazNsatBdgBWuP3tS1zBmr0azf1JPdOvpzcF0juyavmvFLrkfAxiZtwUTMPA0mbAgMDGA2UNqFRaxtzsEgjUFFqb0J2dieY9G1EdsJBCgZvCFOzAGELMFGjX6r/Q27Km7dE0oEugIAQzf6yDhKXNgIGAjRwIglgCm4gD7S2QpSWiee8m1AS5clMwXtzT+bM+C0FuIUgAl6R8SepX21yHYbWS91vQz0drmwEHggkQMCCM9PeBQKH7ZRaFAjeFaRqCASL6LIR+UxkpCiPFYYqEc+ivKeP9FvTz0tpmwIEwDhAYGL41hR++tF0nGmyY6OZaME7yOnpTILtOyUazti0hUKQloL+6lPZZoAftOuEeiJkyA3JQC9kdeaSiEdUqHkMweQ/7jSn4z9fVKegbiHAgTBVgX0yBQsH3VwoF+c3TFArOevr2TJkBgUGUqAK/V7egVt1ncj2wD8qpjHYZVDT1HzWYwp5NqAlcqDtUhR3Mwk1h6qYkNIWtoVBmJmKgvgLDKoXTxBQGR0ahGhxCubIHCY2dMHedAbslMDWuyCvH6vwqnK9tRX0PB8K4RDSYwuunaDm4AzXB7hQKrNUYNwXzmEKD/2yI42Ogun9VBwVNnw4KE7zFMwV0W3+ewKBC1Yu0NgniSnRFR2TxmqvOwBQI2PNhonKsL6jGpbo2NPT0j7sepvJ+OpQhsDdA29kO+aMHaDm0EzXBbtwUzBVD0ZtC9aIf0By6AJID66B+loKBhioMq7od1hSYGVSre5HeLqHnLRJ1ZycqsQVr6TFCVIGtRbW40dCBpl4OhAkTcUTTDwKF7rfP9VDgpmAeO9LFFMjeh9rlP6MlxguyI5vQk35DBwUHNQVmBgQGe8vq6X18UK71zICBZqWoAvGl9bjb3IXWPs2E1wP7oJzI6JCGwP7jzBRaD+9CbegiVJKKRpJKI3EFHlOYekzB9Qd6oEy9/yx0rVsGxe870JOd6nAxBVsxAwYEcvDrofIGpLWK0c6BYLp0lAFAODJTUOa8RNvJPfSwVQIFHlOYaixB/3MufwU5Abtu+c/oWOUJWVwY5Me3OFxMwVbMgAFh9cdKHKtoQma7FORMB+F8N8djhzYE9gZpxZ1QZD+iJx7VhXlyUzBTTKHG619ojXCDeMNySDb7QnFiK3qeP8BAXTk9hIcccW+PZ08OjY6id2iYRvIz2qUzFjNgIGDjmk+VOFHZhMcdMg4EtrinMo5oNCBQUH14TaFAjmXnpjBNS1j4F1Qv/hFNQXPREbMY0i1+kMdHUigo711Cf0UhBpXdIFCYyu9sJn+GwIAE7Z53yXGgvGHGYgYMBGzkQDBzGoubwvQhYBycrFr0d9T7/ILWcFdINvtBvjMIsm3+kB/dBFVmIvrLCzEkl1Io2IMpMDMgMMjukuNcTQtiPlZaPZvAAMBGtu159adKnK5uoaASa7QWAa1T3DKwTxtuCuYFArGsaq9/oTF4PsQbfaDYFUyhII+PoFBQJl2gULAXU2BmQGBwuKKRwiA4t8xqdQYMAMKRNUYhQUVSg5Aj7YZswDLm5VRAYGBgptB+ah/qIr1oUxCys49nHyYJDEG2gRgCgwIxBcXRTVBn3kF/WT6G5BKbNQVbNQMGBgKE5e+KQYDwR0M78uRKeowbm8/mHJ0SCAZTEL1Dx4WjtG0Y6RTEsw+TBIIw20BuF4ygoIgPh+LwOqgSzlAo2Kop2KoZcCCYOWYwHjlJd2HSULTj4jHUr1zOTWGK2Yfapf9G+0oPSLfqgRAbAgW5dgZCvsWHQqEnMwGa8gKbiinYuhkIgUBiCDcaO/BJoYJCy28ZzB5EGRkYoN2F1Z8+6KCwNoBCgZvC5EzBJBB2BVMoKOLDoDy2Eb13z1Mo2Iop2LoZCIGw9lMVEps7UdKthnLQMgfqOOUtg9AcDKZw6TjqY7zpISY8pjBxKNR6/Qttke6QbPKFfEegzg6YJZBxVxC6d/hDdXwjeh/d0ZmCTEzPfpiJ7IO9mIEQCBvyq5DaKkaNuhdqC52wxYHw+TOdmAQK6vxcdFw5hfoNwRQK3BQmBoUaz3+gOWQBOtcshWxbwLdAiA3WQSE+nEKhJ/Es+otE0M7QgTD2YgZCIGwuqMbTThna+jXoHx42uzGTD0oOBKO4xaBciu7cN+i4+jvq1/ijasm/dGc/8L0P3933QAqUGgPmon3lYhpHoPEDY0Ngf9abgvLoeqhTb6CvMBeDkg6rmYK9mYEQCNsKa/BGooBcqwXp2iQ0XXM85kAwAsKIdgAECuoiEbpuXUDjtkgKBW4K3zeFao8f0eg/G+3RiyDd4j+GIeiDjHpTIDEFxaE1UN06SaFgLVOwNzMQAmFHUQ1EMgV6h7QYMvMBLQwmHAhGQGBvyqBCDlV+HrpuXUTDugBuCuNkHwgQGvxnoS3KnZYwmzQEZgos+3BwNVQPrlncFEZGR+knKtkh+NKGKhDZgh9vZHUIu4prUKhQWOTEJjb3ORDGAMKIVgsChZ6SfAoFbgrjG8KkgMCyD3GhUBAoWNgUaFNU7SA+ypV0cxApR7aFCsTxQMC+zoBAjnAr7VZZ5MQmDoQxQMDeFDZyU/g+CNi+hkkbgpVMgZmBRKOluXvSB3Hdp6oZ35vAFvpER1a6HF9ST/s5svlpiZEbwnfAwE3BwkCwsCkwMyCFPGeqWygMQm1gb8JEQcC+j21u2mfBI9wYXDgQvgME9iYZTOH2RTSsD0LV0p++9GnknZcwZUOwkCk4ihkwIJDbG9Jx+Vhlk8XOY2BznQNhAkAwmEJpISSJ19AUu5pCgWcfdAYxbSCY2RQcxQwYEGj79U+Wbb/OgTABELA3iY1DSgV6SgogSbqOxo0h3BT02YdpA8GUKRR8gLajFcN9vRgdHr9U19HMgAHBGt2W2RznhjAJMIwOakGg0FteTKHATcFMhsCAIDAF5fWjUL/PhqalkUKBTVpTo6OZAQOCNbots/eUA2ESQGBvmsEU7l5H4+YVqF7+Kypdf3DafgpmMwQGBlansG8lFAlnoH73DAOtOiiMZQojnz9jcHQU0gEt8hUqeqqSPWYTGADYyIKJJE16rLIRjyzYXJXNbQ6EKQDBYAqVpZA+SEDL3k0UCs4aUzA7EJgpEEDsW4nuKwcpFEyZAoGBamgYRd1qnK2x32wCAwEbWbqRNEa5UNuKt1IFhR5bvJYYORCmAAT2ixhSq9BbVQ5p6h00bY0YwxT0h6WSvRDz/qS76L6I/6GH0bI8vr2PBAgTK11mJcwTHMcxBWYGpJ1Ycbcaic1dWJ9vf3UGDADCkRUkWaMPApvTHAjTAMLo0CAIFPqqdVD4xhT0R5+Vz/6/KP/1/+gu8ue5/6U7MGackmB7AcWENzexW4KJjuOYAjMDAoPzNa0UBqF5M98DUbiwp/qYAcEafRA4EKYBAvbmsdFgCmmJaNoehRqfWah2/xvKFvwF+a7/QJ77z8hx/w3vFs3CB49ZEC36BYVu/0SpCzlJ6s+oJNZgx+ZA27EHknbsnt/f7ThREAi/T2AKqnfP0N/SAFl3N0rk3bjX0oUN+dV2V4E4HigYEMj/jRwwS46A7xmyzLZnNpe5IZgBDAZTqK2E/FEK2o/spApd4vojXvh540H4GtxeHYub6+KRtGo7HoZF4623Bwrc/43KeX9Czez/QOWc/7Rbc7A4EASmIL98ALI3j1FcWoIrpdXYWliD8LzyGe+OPN4Cn+zXGRC2FNbghViBLo0WmmHLbHvmQDADCNibyMbh3h70NdSi83E6CnduQlZEJG5sPYKT+25j/7GH2HviMQ4feYCz8X/g9sY9SIuKwfNAX+Qsc8FH959QtPAHlC/4H50x2FEF5PgNUiYYMxCagfCx3hRke6MgvnkS7x89wJ5XOQjKKULg+xJMdsHZ+vczIOwoqkWuXEkDp+Q2ic03S4zcEMwIhtGhIRAoNNW2IOlBLvZfeYvNt0qwKrEeUfdaEJXcipV3m7H6Ti023CrB9ss52HsiA+d3nUFGWBRyvRagfMFfUDPnP3VQsJMYw7gt1IQLe6qP9aYgjw0BgYLo7F4cSEtH6OuPOih8KHUoKDAgxBbXoUihpqlVEki1BAjYa3IgmPEN7h8cRbtqCK8bNTj4ToWIxyoEZvXD94l2zCsgU40Vye3YfDkPZ/b8gXurtyE7wA+iJXNQ7Pp3XVzBDmILpMkqiR/QU5tIG/apLviJ/tyOACg2L0fh3tX4PeEWVj97ixVv8x0KBsReWB2CNTY1cSCYEQTszSQwSKvooTBY9awXAY/74fd4AD5Z2jEvv8caUCikirE6sRY7Lr3HkYOJuL02FjlL5qGcxBXsILZQt+wn2k+RnclgcSDsDIRiqw8q9sbg9rXz2J3xCNGvRA4HhJDcMpCy5ZNVzahR91nUDNgc5oZgBjBohj5D3DuKnFYtDuWoEfFIRWHg81iL715ZX5tDULoCMbersfdYGhJWbcEL70UQuf0TJfP+G2WkjoHawp+/299wJlKV5Fj4rnXLLG8GzCB2BqJ7my9q9q5EyuVTOPQgFate5jocEMJF5dhQUI0r9W1o6OnnQGDUsvWRwOB50xDOFGix7mX/FzMYDwjk60b24P+oDwQKUUmN2HTpA07EX8Gj4EB8cv0HSmb/l82eLMWBYJnYRbSoArtL6pDU3InWPg0Hgq2DgJlBXscwzhZqseH1AEKejmMF34OE3hj8HvfDP0OJtdeLcCH2DDJWhOHd4jkomPdXlM+3nSxEpctfUeX+dzT4zYJ4vbfVDaFy3yokOOAtA4sdWHMPA1tr/JZhGrcMzAwIDDa90VIY+JNP/O8t+vG+RqCQNQAChZA0GdYkVOHAiXQkrdqKt8sWoXThDzaThSAwIHbQssKFHtJi8diB4Jah+OA6nE687XBBRZJd8MnRHe5qrT0MHAjTAIHZzUAICUFsYeXdJhw5koykNTuQs9wdZQt/QKUN1CtYbA8DW/gmRvmuYMh2BkB0dCv2paQg2MHSjizduOZTFRKaO+k+jW4LHd3GQMBGbghTAINFzGAMKLD4QmCGEgQKe04/0UNhEYXCTNcrWGwPgwkQMAORxoWibXc4Xp2Kx460TPi+LaRVirZeaDTRfx8DwqaCajzqkKG5T4M+C53UxEDARg6ESQDB4mYghAJ7rDcGoSmQ2wcSU5ip7IPVKhQNgNAdCdceH4Hiw5uRfOU0NjzOdsg9DOSWgVQo5ki76UnPpPkLW7SWHDkQJgEEq5gBg4BwzNJCaAokpkADjbP+QwcFK1c2Wq1CkQFBfxRc3d6VyLhwDMeTk7Eq+73D7WFgQcU9pfUoVqjpITOkPZwlQcBemwNhAkCYMTMYAwqk6tFgCqu24a3nfBTN+RPK5v23fku19eoUrFahuCsYpOhJtjMIkp1BKDi8GZcSbmJL1ktEvPnkcPUH1uyyzEDARg6ECQBhRs1gDCgwU9h/8iFSI2KQt+hXFM//i9V3S1qrQpHCYJs/OnYEoz4+Gi/O7Mf+9IcUBiE5xQ4HBGt2WWYgYCMHwneAYDNmMAYUiCmsulOL03v+QHp4NESLf0PF/D/R/gqWrla0dv0BBcJWfzTEhiPneCxu3LyKTc/eOBwI2K0CKVeOLanHneYutFipIIkD4TsgYG+OTZnBGFAISu9GTEItjh65h5ehAah0/5vuABkLxxKsXn9ANkxt80PZ/jW4evMKtj16hsjXHx0OCKz+YOXHSpyuaaE9EMgxdGw+WmPkhjAGGLTDn6HQjKJAPIzzRYPTr0AULmZzPs7SYsOtMiTsOIScwGUo9viXxfsp0IYoQXPRscpCHZJYEFF/fLw4LhR1e6Lx7Mw+xKdlOPx255moP2Cw4UAYAwgUBl3DSKwYxI4cM1UgmhMC7LX06cjwlE7svPAGV3ccR+6yhRavZKzx+hdaI9wg3ugD2Y5Ay5Uss6zCnmg8On8YvyclYt2ztw7fEGUm6g84EMYAATODMukw7lYOYn+uFpHZ0yxFZovXEqMeCKyvQtzpp0iJXkf7KZS6/t1ipmD57IKu3kASG4Km3RHIOb4LZ+8kYNOTVwh3wKwCK1hitwwzUX/AgTAGEJgZEBjEf9DBIOCJDQOBQCZLC9ZXgcQT9h99gIS1uygULFXJaPHsgt4MCAxeH4vDtT8uY0fmMwqDYAfMKjAgsKDiTNQfcCAYAcHuzEBoG3pTYP0UjhxMwrNAf5Qu/BvKSW/GBeY5B8Ly2QWdGUhjQ9C6OxyiI1tx8+pFxD94iOiXeQ4XRGQgYCNpiBIlqsCpqmbaYZktUmuOPIbwWR9A7NLdJtiNGYwBBdZPYdvlXCSs3423yz1Q6PKj2eoTLJ5d0JsBgUHe8Z1I+uM84tMfURiEvit0eCAQGOwqrkVCYweae63TEEUIG6cGgt2bwRhQoJWMSU04cjgZd2O24sPiWbQNG93vMM10pOWyC1+bQf6RLUi6dh6HUtOxygnMgN0qkCPbTlY14UmHDF39A1ZNNzIwODUQ7DJmIISA8DHZ85CuRHRiEw4dScZzv6VmA4LFsgtCM7h2HnszMikMVjiBGbBgIjmh6WZDOz7KlXRDE1uk1hydEggOZwZCKJDHpD7heiES1mynDVtJF2d6QtQ0znswf3bhSzahMT4SomPbkehEZsBiB19td26Xoqm3H70WPqHJFGScEggOaQbGUNAHGSPvtWDP8XTaxZm0dp9u1sHs2QW9GRAYvDy9B9du/4H4h1lOYwZCIOwsqoVIrqQwGLLS7kYhGJwKCIPDn6HUjKJCNoJ7puoMjJqesgYlUxqNF6i1//xN1iGRnvdADoEhJ0NNNutgtuyCftci2ZtArs5YXQXiu5OxuJpwDbGZTxD12vHaqbOFb2oM+lCK0NwyHKloRLWqd0ZiBwwMTgUEAoMS8TBSqoewJ3eQFh19VWegX0imDlaZzPMUItYGgfHfl6UFyzqQ8x7IITDkZCh6XMLQK2UAACAASURBVNwkT582V3aB7VqUbvWnh8JWxa/Ew3OHcTYxAdsfP6cwCCHHsjnYCUzj/X8iReXYUVSDWw0zl11wKiAwM6iUjVAYHBINIuqFUQv0x1p4Zw7A+yG5NF+uDA2Wp/Zj2YO+CV3ke70zNPRanq4BvchrZg7A55G+wMmUgRgvZnP9WQ+4VYl1OLXvJlIjVkG06Gd6sOxksg7Tzy7oYgXynYEQbw9E464VKNq7Bo9P78fJpESHr0A0BQSWXVjzqRJnq1vwoksOa29mYiBgo1MYgrEZ7M3VwSDw2ZdDUnweD9DFuzSlH0vu9mJJYg+9Ft9Ww/2qEq6XFBO6yPeSnyE/73mnB0uSeuF1vx/L0jQ6KHzHQCxmFFlaBKXKsfpmGY7vvY633ot0p02TQ18mmIacdnZBHyuQ7QhAW1wYREe24Y8bl7A7LYPuTSDlyI5cgWgKCCy7QPYukOPeyelM6hkKJjoFEL4xgzwtIp9psTxjAMvS+rE0pQ9eyX104XrcUsP9mgqul7vhelFBr4XnFJh7XIY5h6WYc8TERb6m//q8EzKQn2E/T16LvOaiW2osTtADIrmP/r3EOgxGkamBz6MBXft2oUGYwRZ8M/vhn67EtotvkR4ZgyK3f6FswV/G78Xo8ldUuP5AW62TnY2TP7vx6/qCiv1r8P5kHO5cO48dmU8cdteiKQAIn2eGEFdSh/cy6/ZOZAAQjg5tCEIzIDDwz9Bgyd0+ulAXnldg3ik55hyTYfZhKWYdlGDWfrHuOijBbwck+HVPF36J78Kve8T4da/g2iOmX2Nf/22fGLMOSL55ndmHJPT15x6TYf4pORaeVcDlgoLaBzEKr+ReLM/Q0FShME5hDnPwfaw752Ht7Qpcij2HrKAQfHT5x/gnQbn+gMpFP6LefxY9qo3EABTkBGbD9uRxjnkX1Bfcv3oGx1PuY8vTV4h8LXLYXYvChW/qMTu78XhVM8qUPVbtnSgEAXvskEBgZlAhHcb9ci32v9VgRUY/PBN74XGrB66XlRQEBAC/7BHj57gu/BTbiZ92deiu2E76nOF59nh3F342vtjPCb/Onmevpx9/juukYCHQIACiRnFWAbcr3bpbDXKLkayLVyxP79fHMvQxCGIKxvYwGXPQ36pE3O/A7rMvcW3zYdqLsXyc5qyVbn9Djde/0RS8AOKNvhMAgT5WsCsYpFU66Y5cuzcGH47vxJ3rF5ym8tAUANjzzAwiROXYWVyHhKZONPda56g2tvBNjQ4JBGYGBAZx2X0ISlLD41I35p2UU/UnC5J8mlMYxOsXeVwXyILVXUYLnz5v9NgYCOTPpr7+1evpX3e3zjZ+iRcbjENnFWIQi2AG4XJRAY9bKhrPIHENEpwkcQ5je5i0OWRpEfBQjfDkDuw78RDPAv3GvWUgB7GQY9raIhdBusV/fCCwWMHOAHpuAmmVnn7xOM4lJiD20VOnqy9gABCOLHaw+mMlLte14b20G7KBwRlNNzJAOBQQmBmUi4eRVKhBfFYP/G8pseCMgn4iE+0nC57YAF3IwsVt7ccCk2AGQeyB/JtZDILEN2iAksUf0vppHIRmLyZrDllabLxeiLtrd0DkNR+lrj+arGCs8fwnWkIXomvtMsi2BXwLBKO6AsXOILBdiixWcP/qaRxLTnbaLIIQBOwxA8KWgho8muHKRAYCNjoUEJgZEBhsSlJi6e8yLDisswECA3KvT5WffHpbe/Gb+vuMTUJvEOTfSuIXNKZxUHd7QeIcJN5B4h4kUEniIJM2B/2tQ0xiA47vT8CDqHXI9/jVZAXjl1LlAMh3fhs7YHUFsq3+tOch26XIYgXbnrzA6hcfHL6PAVvoEx3ZLUN8ST0+yVUzWpnIQMBGhwDC0MgoegdGUCMewr0CDWLTVPA6KcXPNC5gQ0ZgCgqmnmcGoTcacotDIEHAQOIgHrd76G0FzViQmMNY2QrjWIMeCCseSLDlsggX4s7jvc8i1M77L1TRngl/oanIStcfULXoRzT4z4Z4w1inOutiBeScBNIavSE2nDZAfX1qNxKuX+KxAhOFVQwEoXllWJ9fRW8XGnpmZpszA4BwdAggEBg0SQeRVdSHbYkKLDkuwZw9XfhpVyeFgk3cHpha9OM9bxyjiO+icQ+WzSCpUJK1YDGHsbIV38QaSAVjZi8IFPaefYoX4SGodv8BpDyZ1SUQGNT7/kb7Jko2+41xqxCE7h3+9NAUck4CaY1OuiHvTU3D1qwXPFZgAgjsVoEc805PdZYoIB2wbldlIQCEj+0aCMwMGiVDeFKkwdF0FbxPSL7NFoy36Ozt63pzEMYc3EhhFKl3uKevdTARa/AlbdeeaLH5VjHubd4NkY8bStz/Ydjj8G3sYOzsATlBiRyaQs5JIK3RQx3sFOaJ3gJM9PuYIWwvqsXjDtmM7moUgoA9tmsgMDMgMIi9o4b3cQXm7ZWMnS2wt0U/3r9XHwf5qgbioARzjo4fayAw8HuqRUxSA04cvIOUlRuQRxqp6Pc4fBM7MJE9uJBwC/vSH9JDU8g5CUFkH8L7EqfbizBRILC6g6OVTShUqG0qdmDXQBgZ/Qzt0Cha5UN4VtynM4PjCvy0S4qf48S2EzAcb1Gb6+umYg0nx441+GRq4Js1gNB7rdh4/BEOrd2D254uSJ/zZ2TM/xteLv0NFauWoW1HMLpidfUE5IDVokMb8ebkbty7chpHefZgwuBjZhApqkB8aT3utojRauUTmdiCH2+0S0MgMJD3DON9lQbx9xT0NkFnBk4IAwYV41iDIVvRhVn7JbT2wjjWsDS5FwQKfklN8D2QjIConQjz8ETU7J+wct6v2Os5Hw/DvVC0KQC1seH06HVy2vLFhBuIT0mlR7DHZL/n2QMTsQKhMbDYwfr8atxt6aJVicrBIZuoOxACwi6BoOgZgah+ABefq+F/ShczoAVFbHE4+8iMQVAhOVtf3+B+RQHPW1J4nv8Et82nscA/GvPcFmPe3LmYP28eAt1dcMTPA4mrg/Do4HakXDmNE8QIsl4i+JUIPjnF9Ah24cTnj0u/sgZmBuR9WZFXhgPlDcjTt0fTjoxwIAhpNNXHNV1DOJmlRuB5GRbsI9mEDl3cwNlBYPz/N1XfsE+M2XubMTe+CPM33oWL30q4uLlg4cKFWLhgAVwWLsRil4Xwd12A6IgwbL3yB0g9wRp9PQGJE5BPPDLZOQC+/x4wMyAwiCuuw52mTtT39NnEngVTa8+uDKFfO4o2+RAyC/oReVWBX0mhkS1VHhovSFv8M3mviDVsrcHP695hVugFLHRfDrc5/4LrgrlwdXGh18IF8zFv9iy4hobDJ+EBX/hThB8zBHKrcL2hHSKZEgobKVF2CCAQGKTk9WJXkgJex5wkm2BOsEwQCC7z52Hhb79gUXAofBNSOBCmCASWVThU0Yg8PQxs9VaBAcIuDGFoeBTq/hF8rBvAvvtKeJ+QYR4pPLKVPQnmXLTmfi0WbCTZl7hO/BLfit/iSzEnPgvzN5yA61JvuM39Ga7zZsN13jzdtXABXN3d4blmA/xTshD8sQpBeeUcDJMEQ8zHCuwvr0dKqxhtNppVYCBgo10AgcCgukOL5A99iL7UjbnxMvy6W7dt2Wb2JJh7IZvj9QzBxS78tFOKn3d3YtbBWsw/kwOP2zfgeSYWHiv84E5uF2b9CpdffqYXgYF7VAyWnjiHkNcfEV7WQqHAYwbfjxkI359dxTXI6hCjsacHvUO2mVVgIGCjXQChUzGMzPw+7L2vxNKjTlxvMBlIGBnBr3vrMetQBead+gjXq9nwTE6A9/ND8ElZC694f3iEusN12WwsXPQzvdxCfeB15Bj8HzxBRGEtomu6EFbcgJBP1fTixjA2GFjMICyvHFsKa/BHfRtqVGpoRwYxMmqbWQUGAjbaBRAq2wdxIFWJZSekmEsrEZ243mAiUIgT64q0mBGczcWihGQsfXgWfq/2ISB3GwI+roX/2wh4JwfA8+xSuMS5Yd7G+fRadCgGAZkZehh0YmW9lEIhqroD5OLGMDYQWFZhXX4VzSgUKdRQaLUUBqOfR20yzchAwEabBsLA4CgkymE8K+5H5GW5bfQwmMiCnInvoRWaZIu3GL/ta8OsQ7WYd6oArldfGIwgIG8TQoqjsKJ8BUJKwxDwKRQ+rwOxJNUHLpc8Me+EG+Ydd4XHjXUIzn2O6NpWrGyQIKZR/tUlNIbQj1UIFVWABNHIGQNCdXb0x8wMyNkK6z5V4Ux1Cz4pVPQ4NlsPIjIQsNGmgUBg8KqsHyceKuFDNi3xIOLYZdnMCOJkmHVAivmna7Do1lMsTf8Dfq8OGowgqHAlQkqiEFoWidDSSATmh8P3dRC8HvrC/c4SLLzujoXXXOBxLwoBOXcQXlZIoSAEgtAYoitaEVNYS48yJ1BwdAAI/38GM/hUhYTGTgoD0k6dwGBkhk5gYgt8sqNNAmF0dBQjIyOo69Ti0jM1oi/L4XZAzIFgbB7G2YP4Dvy6rwlzjlXC5XIBPJOewPvpefh/iEVIcYzBCIJLIhBSGoXQ0mh6BX4Kh/eLQCx56I1F95fALckDrolu8HgQDJ/sIwgWZSCyqvorOxDCgTxeVSfGmvIWxBTXI7yg1mliDcwMgnPLQLY0n6hsMhzUam9mwMBhk0AgMNBqtSio68OOBCVc98sxK55nFQwZFUH2gMBgwfkPWHw3GT7PTyEgNw4Bok0IKliNkJJogxEYw4BAIUAUhqVZfvBIWYpFyV5wv7sE7nc9sSjZG55p4fB9eQzhZfnjAiGmQUahEFPThejqThpncIZYAzMDAoNzNS142SVHe5/GLs3ApoHQPzCMdlk/MkUqhJ1V6FJmzriL0dgI2J+Nsge/7avD7CNlWHjxDTzvJ8D31SEEF6w1aQTMDEgcIbggEv45IVjy0AeL7nkJLh0Ylj7ahNCCbJOxhLFswfg5YazB0bIUpPMRgcHhikZkd8ltsr8BW+gTHW3SECTKIbwo6cWxdAW8j5PNS/ruxmxROOvIYgX67MGC8++x5P5tqvcBuTsoDEK/YwQMCBQG70Ox/Lk/PNOWC2BATMETbknu8EyPRsCHRJOxBOPFP9afhbEGR8tSkDZopPORMQxm6tTmiS748b7PpoDwJXYwgMvPlYi+LIPbASevSDSKFfwS347f9tdj7okimj1YknIb/m/jEVK4GivKIrCiPEx/e6CLETAACMcvsQMfeKQsMwkEjwdB8M4+jKAJxhLGgsJYz5kyB1vNVpAqTVJ7wQwnMr8GGwprcLKqGS/FCocwAwYKmwICix0U1vdgZ4IOBrPoBiYb6pJsTTsRxAoIDFyuvAIBge+LwwjM24bggnUILVmJUBIspNmDL0FDIQjY4y+xg2VYlLz0GyAsusdiCcuxOHUFvLOPIKz00/ixBEF6ciwYkOdMmYOtZisIDEjtBTOc7bWduNLU9RUM7N0MbBIIGu0wxAoNnuYrEXHeyfsc0FiBGL/s7sJve5sx+0g5XC69pKlE/3d7EFK0esJGwEAwfuzg61gCCTKSzMOSh2sRJMpEZFUdVtZ3mg0MQmCYylawT2Y2WsokhCbA/j5SpUmsZn2THLuaFbjQocBrucqhzMAmgaDoGcbH2n5cftoN/1Ok2s5J+xywWIG+rmDBuTIsSU6Cbzaxgq0UBnSRT9AIGBDGix0Ig4sklqBLQ4bA58UpBH98SqEgXMhme2wiW8E+mdloKZMQmoDh76vpolZDYHBdD4PmvgGb7InIFvZUR5u6ZSA9Eu9+6MW2BAU8DzspEKgZkCPf2jHrUD0WXiiC572H8HtzAMGFqxBaFj5pM2BAGC92MBYQSHDRPdkHSzI2wO/1JRpg1FUvyixmCuMBZqImwT7hJzoyExD+/c5gBgwgNgUEsmdhX5oSXiekmBPvhJ2Q9GZAYDD7aAVcrmZj6aOL8Hsfh4BPaxFcrKswnGisgIGAjePHDr6+ZWCxBPd7XhQKS7N2IbTwNaLr2scsaRYuJIs9nqBJsE/4iY7ktoDEN4T/bmcwA5sCAuuiLKrXYs3NbvwaT5qfOFl2gZiBvuKQZBHcrmdhacYl+OdtQXBJmP76utKQLfSJjgGiFfDKHKvuQAiCrx+zWwfPjGgE5iUhoqIY0XVt3ywc4UKy98frGuXY3iTH2XYFXjlozICBgI02YQisi3J2qQZRl5T4OVama6dOUm7WjOrP1N+lN4MvFYd3dVkE0WYEF61CSGmk/ho/g/A9OEwdCLrgokdqMHxeHkDwpweIrK5yeCAQGJxrlSFL0o2GXo1DxgwYCNhoE0BQ9Y+gsl2LO+96EXzaySoT48gORV19wfwzefBMvmNUcTixuoLvQYB8bbLZhW9iCfeWwI2UNN/3hVfmSvi9OYGwkpwpVzDaujkwMzjVpsBjSTcqVL1Q2WjbdLaQzTXaBBC6uofxpKgPh1K7sfyY1HkqE/VmwOoLvFJv0EIjUn78peJwelZAgDDZ7IIQCOSxO6lNoLGEpfB6tB6BuXenXMFo60BgZkBgUNvbT2EwOGIf/QymCwabAEKDeBCXs1VYecWJKhP1ZjDrQC0WnM+BV9p1TLW+YDxDmGx2YSwgUCjo05CLUgLh/fwggkSpiKis0AcYZy7rYC7AOLMZMJDYBBDKWrWIvauA+yExZjtDZaLeDAgM3K49xbKHl+H/PnbK9QXjAWHy2YWvg4pfAKGrYHS/twykrHn5s30ILXo381mHCVZIjgcOZzYDmwCCIbtQO4BVfyic41xGo5gBMQMCg4DcXfq+BeaJGQgBMdVg4hcQfA0IlnVYkh6FkNw7iC4vwMq6VrsNMnIz+Gxo7zajhmDILpRoEHmx2/EPaxXGDMhtAjGD4phJ7UUQLvjxHpsfCPqS5geBCHkeh2jRHaysKrdbIHAzsBEg9GhGUNc1SNurh5xx8OyCUZ0BySbQAOIU9ySMBwD29elmF0wagj7r4Jm8HP7pKxD6Yh/CC55bfK/DeMo/2a+vaZRhc6MUx1pkyJQonCqbwG4RhOOMGoJcPYwPVRqcz1LB76QDZxcEdQYktUi3LRet1rUzm+SeBLbgxxvNkV34HhRIJaPnPS8sTY+C38szlt/rYKZYAQMHgcGhhi4ktctQoe5zqmyCEATs8YwCoUMxhHRRL+LvKuB1xEH3LtB+Bp30kJQ5x0uw+O49s9cZmAKDubILJqGgb6Si2+uwHr6vLmBFca7N1ycwMzjYJEVim8wuzlxkC9bS44wCoVE8hKvZasSwdKOj7W7Ul1+T49PIiUkuV17CJ/uooLPR9OsMTAHBfNmFr4OKXwChzzqQXoz3vLEkcxMCc+/ZfH0CMwMCgxJlLz2A1V6bopobEDMKhKr2QRxKVTnuWY16IPy2vwYLL76FV+pNBIq2Tnm3oqmFb+p5cwcTv4Dga0CwrMOX+oQHiKgo1fVOaPh2sxBTdmuP3Ay+BA9NgWRGgVDSNIgtN1WOfVZjXBfmnizA0vSruvRi0ZoJdzYytdAn+ry1gPBlV6SuPmHZ03iEfHqCqKoaizZUmSxQuBnYKBCGRkbROzCC95UDWHmp2zG7KtN6gzbMOlwD12tP4fdm71dnIkx0UU/l+yyVXTBlCOx5YgqkfwJpu+b3+ixCCrIRSaBAT3+auUpGbgbjg4AZw4wYAoFBk3QQaaJerDgnc7y9C6ze4EA9XK++hFfGVfjnboXwoJSpLPaJ/Iwlswts8Y89sl6MPlicFgnvF0exovj9jFcycjOwcSB0946gsHEA11+qEfi7I/ZOJIfKyDD3RDmWpCTA7+0eBOavsRoQgvIj6BFtSx/7YfGDb7sqj72Yv44LTOd7dL0YF8MzfSX8c24irCQXUTUNVjcFbgYTB8GMGoJUNYy3Ff04namELzmz0cGyC+TAVXLGouvlfPi+OIHgQt0JSsKTkybyaT+V77EVILgn+2JJxir4vfqdQsHanZa4GdgJEBy6/iCuC7/ua8O8Uw3wuJMN/w+76UlKurZn3z8vYSqLf6yfsXT9wXj2QLZKk/4JbncX00NfljxcBf/31jOF1Y0ybGiQYn+TBHfapLzO4PPEwTAjMQSHrT9gacYDtXC5TLY034Z/3jZ69Do5bXmsxWuJ5yxffzD+7QXtn6CHAmmsQqBgLVMgMIiv68DNFjGKunt4nYGtA4HWH6Qp4XNSgnl7HKh3IgHCri7MOlQO99tpWP70JPxFG2g/RNIGzRKLf6zXtF668ftg+MYUMlbRmAIJNNLsAznjwYx1CswM9jZKcKNZjHcSBWQDWsNOPnafzEfTxjAjhlDSosXWBAXm7xPjN0fqf0CyCzul9ADWxfduw/d1PAI+rXZaIJBbC2NTIDEFEmgk2QeSkjR3nQIzAwKDAoWawmBgZIQDwVYNwdH7H/wUK8a/d8gw52gJvNIuw//DVgQWxFgtuzBT9QcTjikkLYZb0mKakvQldQqfniCiomTaex+4GZj+xJ+sDVnVEBy9/4EBCMeLsCzzLAI/bkRwUYzVCpJmrv7g+7cOX0yB1CkswaJkb3ikhmLZ090IEj2Y9t4HbgZ2CoQ+7Sha5ENI/9iPFeccr0LRAIRjxVj28AICRVv0bdQtt4HJOIYw0+nG8UyBff2bvQ+5dxFZ/BYrK8uwsqZxwnsguBmYDwTEJIaHh2FVQ1BrRlDTOUiPaws563gVigwI5GBWelR7TrxTFSSxBT/+qN8lyXozZq7DipcHEZ17G5HFOROOLXAzMC8QNBqNdYHg8BWK+qDinEO1WJbwFAHPiSVsslpQ0V4MgQGD7X0gTVZI56WQpzsR9O4Kgj9mIqw0D5FV5YiqrkN0bTOi61ppCTQpboquaUZkZQ3Wl5dif1kB7jdWoa1XzYOHkwgejhVbUCqV1gWCo1co0uPndnVh/v5W+F+uQXjaU4TkxnMg3DMVY9DvfSCdl5KXY0mKPzxTw+D1eDP83pxEkOgOQgueI6xEhIjyIkRUlNErrFiEoLyHiHp/B3F5N3GnMgstqi4OhGkCoaury7pA6FQM4dGnXuxLVmDZUQfrkEQ6I8V24qddnVhyRIwdCXIcfVGGfUXXsa0qFtHlay0eXJzpCkX2yT/ZkdUruCYtgmuiK9yTl9IToryz4+D3+jT8c24g4EMibb5CGrD4v7sB72dHEJAVizXPd+B30Rl8aMuDuFcCzdAAB8MkwTA6OoqRkRHU19dbFwgtsiEkvlNjy005Fh9yoNOd9RWKBAYECivOS/EgV4nCli7kdhbjXtsDCgVL73a0hQrFycKAfT+rV3An5c7EKO77wuNBIM1GLE4Lp6lKsoOSXB6pYSDNWBbf98PyFF/EZK2iUHje8IJCYSwd5s+ZjjcQGGi1WhQXF1sXCKTD8rmnKoRdlMFlv4MAwcgMFu7rQvA5CU5mKlDe0oteTR8Ufd0oVpThWutN7KqJR0z5elqxSDY6mXuzk61UKLJFPtWRGYNbkgdcE93gmugClzvkWqi/XOhzxCbItfz+csRkrcYp0Wm8bXmPdnUn+oc03BQmaAoEBgq5HK9fv7YuEMrbB7E7VQmPE1J6QpPd73IUmAGBQcLbbgqD7p5BDA0PQzs8CIW2GzU9dXgkeYK4Wl2jFGIL5jYGRwECAYnOGPTZCLpJimyUGvtafG8JhULko2jse38ED6ozKRS4FZi2AuP3Rq1SoaqyEvfu3rUuEIpbBrExsRuzDojxy+5O/BTbCRKIs8sj343MYP7eLvifluJoejfKmvuofhENY2/6yOgItCODqOttxO32JMTW7MXK8rUILgk3yzHvrBbBkYAwGbswZCuSvRCYEYa9OYfxsuktN4UJGoJEIsGLFy9w6uRJ6wKhqEmLtTcUFAY/x9k3DAjMWMyAwODiczXyajWQqYZogIYEahgQRj+PgkBBNdRDofBI8pRCgWx4IlAwlyk4KxBYT8dF9zzhmeyFFQ8jKBS4KUzMEBobG3Ht2jVsWL/eOkAY+fwZg6Oj+FivwaqrpCCpAxQIu+3QDgxm0AFmBgdSlfhQo4G8ZxikPJuBQDiaNoUIs8QTnBcIurQmN4WJAYDNS2Kxg4ODKC0txf59++Dv52cdIBAYqIaG8ba2D9FXyAlNdgoEQ8ygAz/t7ID/KQkuPlNRGHR262BANnCxN1w4mjYF85Q2OzsQuCmYnnvCuUgeExioVCrk5ORQO3B1cbEOEAaGRyHTDOF5ZS8iL9spEIzNYE8nhcGBFAU+VI9vBsJfhtAU4mr3IaZiw7SzDxwIY5vCnpzDeNH0Bm3qDvQP9ZsEtvD35OiP+/r60NzcjPT0dERGRGDunDnWAYJmcBRdqiE8Ke5DxEU7BMJYZvBURWFAiq3IbcL3zEA4scYyBQIFkoacTvaBA4FVRLIKSF1MIfRhOOLfHUByVTqFgvD34ayPSapRlJeHK5cvY0VoKFwWLrQOENgux4yPvQg7b49AIAHEDsyfphkIJ57QFKabfeBAYEAQmIJ+r0T8u4PIbnrNTUGffZCIxXiRnY0Tx48jwN8f8+fNsw4Qvuxy7EHIWfsFAo0ZTMMMhEAYyxQIFKaafeBA+BoIX2IKur0SoZlRIFDgpqCLNZB048sXL3Ds6FEs9fLCv//1L+sAQdk3gtIWLW6/USPotJ21XY/rwoJ9XfD/XYKpxgyEIBA+NpcpcCAIgaA3BX0XaM/73vDPCKNQ4KbwGQqFAgUFBUi8cwfbtm1DWFiYdYCg6B1BQeMA/nihQoA9Hcyijx0QGNBsQrUGU4kZCAEgfGwuU+BAGBsIrPLR495SEChwU9AZAi1ZVihA6hBEIhHevHljHSDI1cPIq9HgwhMl/E/aiSFYwQyEYGCmUN/biISOe9hdux8ry9YjuDgSISWR49YqcCCYBgKDAjkvgpvC1+lJ0imJZBzUarV1gCBVDuN1WT9OZnTD57gdbHu2khkIgcBMoWeoFy39rXgmfYXYyiMIKlhFoTBeRSMHwveBwKDATeFrIJCqWgKFoaEhbR2nHQAAD/ZJREFU6wDBrvogzIAZCMHAHrf0dSChJR2xFUcQXbJxXFOw5+3Pk9m7MN3vZbsphabQqmpH72AfLTMncGa/B2cardJT0W76IMyQGZiacH3D/SBQeCZ+Q6EwninYa4OU6S7wqfw8gYLQFO5WpqGhu5luRCO3b6Z+L478vFWA0CgexNVsFWKuyOB2wEb7IMSJMX+fBP6npBbLJkx1Ik3UFOytp+JUFrI5f0ZoCnFvD+BxQzbqu5uh1vY4pSlYBQi0McoTFcIuSOGyzwaBQJqj7pLC/6QCF56qp1yBONUFP97PTdQUOBDGjyEIgWJsCiGZkSBQSKx8QKFAtqw7mylYBQjVHYM48lAF39NSzNtrY0CI68K8vRJ4H1cg/q4a76sGxt21ON4CttTXmSnsrjyGteVbEV66CitKow3ZB1s+qEW4EG3psdAUdr3Zh/Tax6iS10I5oHIqU7AKEMraBrErRQnXY1LMirchIOhjBt4nJDiarsKzIg1aZZPfm2ApAAhfl5nCK9kHnGy4iPUVOygUWPbBVo9ys6XFb+rfYmwK/ukhWPtsIy4WXKVQcCZTsAoQilsHsemuErMPSfALAYItdEqKE+vM4IQEsYkKPCnqQ5N0EL0Dth9M6hqQIEvyEr83XsLmyl3fmAJPP07+1oGAgpmCG23V5onVT9fjflWaU5mCdYDQMogNd7oxa78OCDPeNk0fMyC3CcQMCAwaJToYDI3YfrpJMzIAAoX3ChGFgtAUOBCmBgQGBdpo5e5ieD/wp1BwJlOwChCKmrVYf0uBX/eIqSHMaA9FYgZ7pPA+pkDsHTWeFGnsxgyEtxCmTIEAYWmWHzxSlmFR8lKY0mT+/NjgcGZTsA4QGrVYe00+823TmBkcU+Bomg4GjZIheptgD2YgBIIpUwj4GArvF/5Y8tBHBwWTJyeNvSA4KFjXZ0+Q2wdnMgWrAKGwUYs1VxX4aVfXzHVZdiAzEIJBaAorCqPh/z4Uy5+Ro9GWc0OYIhCd0RSsA4SGQay+osRPO6X4OU5s/bbrDmYGQiAITWFd2XYQKPi+C8SSDG8OhCkCwRljChYFAjszLr9Oi1WXVfj3DhnIkelWjSHEiTF3jxRLjyqwI0GFrMJ+u40ZCEEgfCw0hRBRJJZn+fNYwjSAwKBAdkkKsw+V8moo+hUYHHacAiaLAoGdGSeq7kPMJaX1gaA3AwKDvckqpIn6QKomSWrRHmMGQgAIHwtNYU3hVgS8DOOxhGkCgUFBmH049+kiCrqK0a1RUSgIfx/2+NiiQBgaHkFP3wDelfUi+kK3dYFgZAZbb6mQKupDdYcW6n7brzOY7kRipnCy5iLWibbBPzsUS1KXg0xo0laMBw2nFkwVxhSis9bgVkkC8jsLIemVOYQpWBQIA4MjkKoG8ayoHxHnrWgIAjPQwWCQwmBo2PbrDKYLBIMpyEUgUFiZuwHLMnzgluSuh8LUFgQHydfZh2Upvoh6vAqnRGcoFBzBFCwKhH7tKDoUQ3hc0I/w893WCSo6sRkIQcJM4Xj5Wax8vooeiEoORuWmMD0gGkwhaTFckzwQ9TgGNx3EFKwEhD6En5dbPu3o5GYgBILBFLry8PvHM/TI9GX3l9Ej1nVQmN7CcGZjIFCgMYWkxViW4kOh4AimYFEgWPU8hjgx5sRLsfiQApuuq/Agz3liBkIQCB+LeyV43vACv4vOIObxKiy7vxwe3BSmHUtxRFOwKBCsdh6D3gwIDLbe6kbC615UtDpPzEAIAOFjzdAACBQ+tIlwSnQeK7PWUSi4JrrxmMI0MxCOZgoWBYKqbwTlrVokvFUj6IyFui0bmcG6q0rcetWD/PoBKHocP5sgXPjjPRb3SvGs8TV+/3gBa56sg0+KLzzJLj+efZiWLYxpCsW38amjAJJeqV1lHywKBGXvCEqbBnDrlYUOaBGYAYFBSZOWwuB7x7KPt3Ac9es6U5BC1JGPy4XXsSl7O4UCN4Xpx1KMTWHpfW9EPorCybyTFAr2lH2wKBC6e0dQ3DCAGy/UCDT3AS3cDKbcBFTWp0BOqwh/FN3C1uxtCEwLxJLkZXDX9wEgk9uZA4ZT/b9/MQUPGriNehSFm8W37MoULAoEou1E30mDVbOe2MTNYMowIPYzMKwFgUKJpBz3K9OwP+cwhYJroitckxaBlOlyKEzNGnSmoMtALCfZBzszBQsDYRgf6zW48lwFclAqOUH557jO6e1l4GYwLRgY3w6pBtQol1YjvfoR9r87gMjMSCy776Ov2V/MYwvTDTiS/Q9J7hQK9mIK9gUEbgZmgwEBw+DIEAgUmpWtELV/xM3iBERnraa3DmQi88rGqVnCl1sO+zMFiwLBrGc6cjMwKwyMTYHs1iOBr8KuYlzIv4yN2VsQlhkB3wd++iyEzhb4bcTUAKErYPpiCh/bP6Fd3Ym+wX4Mjwxb7Pdq/Due6J8tCgSznenIzcCik4acPaCDQjfqFQ141fwWF/KvGmUheGzhy6f+VKDwxRTIbdmR90fwsukNWlQdFAoTXazW+D6LAkHcPYzs4j4cTe2G97EpHvIaJ8aseClc98sRc7kbN1/yOgNLTwyWhbhRnID4N/GIfhQN/7QgLLlPmq2Qyc2NYSqAIKZAUryhGaE4LTqHF42v6e2aLZmCbQNBbwYEBtGXFDibpTYUHfE6g69P8DUnJFgWolZRj9w2ERLLk7Hz9V4EZoTTWwiejZiKJZCf0ZnC0vvLKRRIIJdAwZZMwXaBYGQGERe6ceaxGq/K+iFR2tY9lzkXoq29FostkEzE3cpUHMk9hW0vtnNjMEP2wVZNwTaBIDADAoO8mgEKg4FBx+9nYCtgYLEFkokgR6WXSSvwvjWXG8M0gWDLpmBRIHQphpFV0EdPU1420RhCXBdmxYtpzICbgeVuC6YCHVPGEPM4BqEPI+CbGgTPZF1nJl2cgccavhdrsMWYgkWB0C4fwoO8XnpU2pIjEwgq6s9adDsgRvRlOb1N4GZgO1AwZQypVRn4XXQRm1/solAg1Y40zsArH8cpAbe9mIJFgUAOTr37vgfbEuTwPDzOIa/UDLrgdqALkRelOPNYyWMGn20HBmMZBTOGOkUTXjW/x63SJBx4fwSbs7di9ZPVCM+MQEB6CJY/8MdiulfCU5+h4OZgbA62ZAq2AQSDGXQh+rKMwiCvRsNjBjYOBGYMPdpeSPpkNIVWKauGqF2ER7VP6OapvTlHEfNkI4UCNwdT2QnbMYWZB4LeDFz2dSH8vBSnuRlYtAhprE96cz9H8uoklfaxswhpNU9wseA69r47aDCHiMxIBGeEwS/VuLZBYA93ySLRX06y+9IWTGFmgaA3AwKDFeekOJbejQ/V3AzMvUCt/XqkHJdAQaHpRru6C/WKJlTIqgzmcKMkAcfyzmLzi1j4p4XQTVQkDedyxwWuieRyg1uSB9ySFusup9l9OfOmYFEgtMiGkJjTgy235Fh8SBBDMDKD0LNSHE3rxpOCPpDMhLUnMP/7rBOrYOZQ0FWKZ41vcKv0Lg59OIbtL3diS/ZmbHi2DquzVtHmIiEZ4fBPC8ayFH+aufhSIUniD+wiVmFkEuzPdm4UQlN43vgSdYpGuhGNbEiz5Hy1KBCapUO49VqN9ddlWHTQCAgCMyAwyKnUUBhotLzOwJK/8Jl87S/moARp50Z2WVbJq1EsLkF+ZwHeteTgYe1j3Cy5g+N5Z7Hj9V6sfLIR/ukr9BWSLtQiTJqEwxjF16YQ/2YPUqsf0q3qpCbEkr9DiwKhSTKIGy9VWPuHDIsO6IEQ24lZ8V0gtwncDKzzyWzJCWSO1ybBSe3IILoH1GhStoEZRGJFKi4UXMfh3JOIfR2HLc83YcPTdVjzZDVWZcUg6lE0VjyMQGD6CrrXYnmKHzzueRnOYCSftF9sglmF8WjbhsFMgXS0Ik1sHlRloEpWY1FTsC4QdnbQJiksZsDNgAOBAGX08yhoxmJkCL009qAziBZVO40/VMlrUCYtR35nPt415+Bp/XP6iXm7NBGnP17C/pxj2PkqHqtI49gH/jQmQQ5mZVkNlzsLobtYjMJVXychiFXYnGHoTIG0tyNQ2PUqlkKBlJJbyhSsCAQxfo3twrz4LgSdluBIKo8ZmOPT1Zleg9U9dKjFqFc0o0hcjlfNH5BR8wR3y1NwqeAP7M85hB2vYrH95S5sfbEdm7M3Y+Oz9Vj/dK3BLMjuzYjMCKx4GIagjBXwTw+FX1owfB4EYGmKHzzve8MjeSktKtK1RBvPNIytYyp/NmEq+pgIgZtLoisCqCkcQkbNY7SpOyhECUzNOQesA4Srcrjvl2FuvAzeJ6SIv6fA6/J+HjOw8ToDc040c7wWq3voH9KgR9tHm7pI+uToUHehVdWGBkUjKmVVKJWU0YvFJnLb8vCm+a3BLO6UJdMaiTMfL+HQh1PY/fYQtr/ag/XPdyAyax0CMsLhleJL+0qS/pLfmgYzDuEoNBBmIuONJkxFbyzkuDjyb/C8t4RC4fD7w/T/R26zyHtijveWvYZFgUDOdcwQ9eJgihKR57vp+Y57kpVIyetFm9yy0VL2H+Sj896WsNgEvQ3p7wYzizJpNT52FOFNSy4e1WUjpSoTd8of4FrxHZzNv4ojeb8j/u0+g2lse7EDW7O30BjG5ucbDcax7skaGF8strHy8UqQi5lI2MNwGF/ETILTQxCUHqy/QmhdRlBGOALTwxCQvoJezFzIHhFy+aUGwj81AHvf7kOxuJTGXewKCOyglieFfbj8TI3rL3qQWz1AYUAOguWL1XkXqzV+9yw2MTQyDO3wIJhZKAfUUPR3Q9onR2ePGG3qTpB4RWN3C03vVctrUS6tNJhGqaQUJeISFHUV0TgGM44Xja9gfLHYRnJlKsjFTORSwTUYX+c+XaFZlCMfTsFw5f5ObWVfznHsyTlKL2YuW17uBrm2v4rH7rcHaBamsbvZ/m4ZSBMTec8w6roG8aFKY2huYo3JwP8ODhtzzwGhcUh75TC+mIFUyetBLmYiH9o+wfh62yLC88a3yKp/+dVFbCWj5inSarLoxczldlkyyEUshjxHztQgXa3M/f8jr2fRW4aR0c8gUOjRjIA0XCXnNPBOR3yhWmIiW+M1hcYxMKSF8cUMRK3tAbmYicj7FTC+pH0KWofR1SOB8UVshcRDSHUnudr05tKsbAO5iMWQ5wgMSFcrS/yfLQoES/yD+WtyoPA5YLk5wIHAI/0W+aThi9Zyi9aS7y0HAgcCBwKfA4Y5wIHAJ4NhMljyk4e/tn0YAwcCBwIHAp8DhjnAgcAng2Ey8E9x+/gUt+TviQOBA4EDgc8BwxzgQOCTwTAZLPnJw1/bPuyDA4EDgQOBzwHDHOBA4JPBMBn4p7h9fIpb8vfEgcCBwIHA54BhDnAg8MlgmAyW/OThr20f9sGBwIHAgcDngGEOcCDwyWCYDPxT3D4+xS35e+JA4EDgQOBzwDAH/n9Ytj5rfrYC6wAAAABJRU5ErkJggg==;" parent="GwdNWeb7kluTHXHWdRGs-1" vertex="1">
          <mxGeometry x="-660" y="-2620" width="54.25" height="53" as="geometry" />
        </mxCell>
        <mxCell id="GwdNWeb7kluTHXHWdRGs-55" value="" style="shape=image;verticalLabelPosition=bottom;labelBackgroundColor=#ffffff;verticalAlign=top;aspect=fixed;imageAspect=0;image=data:image/png,iVBORw0KGgoAAAANSUhEUgAAAIYAAACSCAYAAACAPrIcAAAgAElEQVR4Ae2d5X+cx7XH799zb9vbNm24cNtgw03SpkmblANNYmZmjO0YZTEz2BZbFoNlybbIFlvMssAi+925n+9ZjbJeacXys7H2xXye1WqfZ56Z+c2Zw+e/Hjx4IO7mngNHDPyX4xfuv90gAQNuYLgp5pQnhhsYbmC4geE+Jmd/TLophptiuCmGm2K4KcaUu8ANDDcw3MBY4BHp5jEWOIGPKxVyA8MNjCmpqxsYbmC4gfG4kv2lGJebYrgphptiLMXOelyf6aYYborhphiP6+5einG5KYabYrgpxlLsrMf1mW6K4aYYborhuLv7h4alrqNbimtbJKO0TvJuN0pT110ZHB6R0bH7U06Y4zMe17+XNcVo7+2XjLI68Ukrkl1h6XLiYq5crW6Wrv57Mjw65gbG44p6Z+MaHhmVrr5BuVrVJMcv5skXHpfkgyPheg3IuCHX61qlu/+eGxjOJvBx/b7v3pDUtHZKRG6p/PVEjDy5zlP+d8UZeXG7v2wNSpO4glvS1HnXDYzHFQDOxtV5d0BybzfIyfh8+f3BMPnJag/58cqz8n9b/eTfZy/K2aRCKWvokMHh0WXLayxLHqOps1diCyqUOry0M1B+tOqc/GzNefn1Vj9592C4bAvNkJxbDcua11iWwKhr7xb/9OvytVeC/N82P/nRynPy8zXn5flNPvLijgBZ6ZMk6aX10tk3KEMjo8vySFmWwKhq6ZTTCfny129j5PktvhPAeGqdpzy93kv+cSpOUm7UuIHh7Cx+XL8vb+yQ/VFZ8v6hMHl+s488scZDfr72vDy51lOPlI+ORUvc1VvSPK7TeFznYbpxLUuKcaO+TTYFXpZXdgXq8QGloAGO/111Tt4/HCEh2SUquSDBTDeBj+v/LAHG/QcPZOz+A7k3PCrd/YPaOMvv35+9e/tCFuRGXatsCEiVl3cGPAyMNef1WHnvcLgEZ92U6pZO6RtcemCMjd3XuegfGhEa88J3CxnjQu+1BBiAYnj0gXT3D0t1a5fUtHbJ3YHhZQsMtKxoW9t6B7S5gubVEmDcHRySW02dknqjVrxSiuRMwlUJyymTjLI7ChSoyPDo0kkDVlMMQyE67g7oPGSW1UtwVol4pRZLYGaJpNyolTsdvZZSDkuAAVN3sfC27AnPlD8ejpBXdwXKh8eiZXtohiQWVUltW5f03xteMlJqNTCgEKjcyxo7JDqvQvZGZMoHRyLkd7uDdB52R2RJ7u0m/Y1VNhtLgIEeISD9hqz0TtRz/sn1Xqpc+tOxKNkVniERuWVS1tAuPUtkzLpZ3yZbg6/Ia3uC5ZebfZXxNMznT1d7yJ++iZKY/App7OyVgaGRRQOooRRsjNzbjRKQeVO2BKVpf7/a6ifPbvSR1/YGy8aAy5JZfsdScdkSYKBHOJOQL387GSO/2OIrP1x5TrWPT2301olZ65esFGWpKEdpQ7vsDM+Udw6Eya+3+E0AA3BgN/nbyVhJvl696AtjKEVxXat4pRbJ194J8tKuQPkJTC/a13We8sKOAFntlyzpZdYq2CwBRn1Hj3L9q3yT5Dfb/eUHK8+qmPiztefl2U0+glSwIyxdonLLpaqpUwYGh2R0AWZws1PhbdBm5lc2yt7ILCXfv9ziq7oLdBjPbPBSCoK9JP5apeox+u+NqASFJLVQTp++C6qaxO/KddWuvrk/RMeLiMwcPLXBS97eHyI7QtMlv6pZ7t4bkRGLpBNLgNHa0yepN2tkf3SWvLonSEVEbBXoEX682kOe2uAtr0NS/VMlvbhaOjp7ZWgBJN3sVCymt5s7JeV6lRyIypKPT0Sr5pOFoW9U4i/tCJD/eMZLbH6Fiqvd/UMqQSFJLRQYHKF+qOK9E+TFnQHyxPiYGTtq+ec2+8hfjkfJ8Qu5UnKnU4ZG7isoF9rvfO63BBg9A/fk5p02naQPj0fL0xu85an1Xro4nPGGcnxwNFKOROfI5eIaae3qcyrOjt2/L/dGRqV3YEjaevpUsimqaZGs8jsq+VwsrJSw3DLxvXJdTiUUyM7QdPn3mTh5a2+wPLvRW+gTYDy7wVt5nT8cDlcD29nEqxKcVSoXCivl8s1ayb11R4pqmuVWU4dgiIOBvDcyNiNFgU+BX+F4QrH21jilMP1ipwEYUM9VPokSlHlTatp6ZHTsgdMxz2ex53KPJcBgEdt7ByT1Zq187Z0oL+7wl+c3eetZzxlvKMdzm33lj0cj5VBMrpQ3dDqdJEMROKJw0+MYOJ1YINtCrsjX3knyj9MX5KPj0fLuoTCVgH6z1U9+udlHgWD4Cq40bCXPbfRWEzzS0nuHwuXvp+JkrW+S7I3IkNMJBcocAxL0L+hi0MlMR1EQS3Nu3ZHj8XnyzsEweWIt1NHGz9CnAQbUc190lqTerJbW7r4FU6i5AMHxt5YAA39KNHzFta1yODZXFw2TNySVsx5g6G5CWtnmL196JerOB0yAylCIzruDAiObX9kk8UVV4p9xUz2ytganyefnLsqfvomUt/eHyqu7g9RqSh9QBQOCma6GgihADobKx8ej5bOzF2W9X4oeRehgLl6tlNxbjQJDe6ezZ5yK2N7RvCc6G98rxXqEwFwaSmH6h7d5frOvfHwyVvwybig1hao6Ltaj/NsSYDDA+/fvS317j4TllMo6vxTlxs1Zz4QZyvGTNR7y3uEIPQaYfCbMUIiKpk71tsI9b61fivzlRIy8vidYoAi/2uyrPAO7nwVm8qEGZjFme+WeZzfYqMgvNvnoc3HoeWGbn7x7IFRWeCbIoZhsCcy8IelldVKlVMT2juY9sysa9Ah5Yy/isY+Ozb7/X23xlTf3hcrGwDS5Ulonbb39ugEeJRAc+7IMGLwInlRICOeSC+Wj4zHC0fHzdTYLpz3lYMejdwjKKpHs8jvqzR139bZ6WiHz/+1UnDrYwDjCQJpJN9ZSrKf2zVAm8ztzdfZ7c6/jfehAWOw/H4+Wr7wSZGd4hpxPLZKEoirVw3DUXKtpkYCMm/LJyVilCgDUsb+XdgbICu8k8Um7rkovqKnVXuqWAgNjUWtPv1wuqZMNAZfltb0h8uQGLxVdOU6YQCgHO/SDo1Gy2jdZj4qjcbnyn/Pxel7/cqufoCB7ZoIq2HgF7uUZRhREHDTNnjKZRZru987uA8TwC09w/K33EpRU8BBQQJR0SF4hWSWyIyxDXt0TrC6EZlz2/b25P1ROJhRIXmWjdPQO6FG5GOKxIxWYy9+WAsPwGuWNncofsPDsHsczGCrw8s7vGMG/nozVnYoOgsXBZ5N7zI7m+OA4eXVXkC4U0g3MJ5TlM4941SFsCrisVAhKZBrf4b31pVeCNn7LPR8ci5K3D4Sqmf432/yUKpl+Uc4BHAXbOk/hnd4/FC4b/FNlV1iGguSTEzEKGsdx2Y6QEFnnnyqJxVXSsMia1rkAwfG3lgLDZn6/r678N+tbxe9KsbCIUAn7nfz0ek8956EKUBQoxNN2PAOAYGEMJWDC39ofqtIIi37sQq6cSymUoOybklBUKTkVdzREAFuFfSNsgP+ll9Zq47fc821CvmwNSZPPzl1UKeU32/xVS/mDFWflf1acndDD8M7wJAAZYMKHcIWv4HvHcb2+O0iBg3iKlRmeBIbVcZGs+NtSYJgBc6S09/TrohyKzhF22Ivb/B8ChyG97DrHnWcUU+8eCpd/no7TyT4QnSNel4vlwtXbklFar2T6Rn2rOt+0dN1VDWjv4JDYNzST/K+hs0cbIQbck11xRy5dq5TAzJty4hIgSZdPPS7J+0ci5MWdgcobAVR7ME/3GTX8uwfCZI1vsvIfhdUtujnMfLjC1SWAgYQyOjamsjuLgFv/Hw6FTznR7DrHnffSDn/5x+k4NcDh5Jt6o0ZF4dr2HunoHZS7g8NqrSX0EIegkdExZe7YnfaNo43/sXNp/JZ7sPT29KM865fq1m7Jq2xSHuJQXI78+9wleWNfiB4h04HB/n+v7wlSkRemtLShU3oHR2Rk1DUohQGlSwDDvExHb79kldfLiYt5ek7bTyafjdSAlhSdBDqKT89cVE2mz+ViPafReNa2dwtKJRaUhV4MzzCewbN4Zkt3n+ot0kpqJSCzRA7G5MpK7yT58JvICXdBe+nKcRxQi0MxOepw3NTVZ6mG08y949WlgIEtA9KPyvrtfSGTKIaRMp7cgBU2RFb4JKn+gFBDHFvY1aiflSqM2c7rxQCFmTSeBYUBIFASVcH3DqpdI7qgQg5EZ8vH38YIDCqWUsPzOAID34vzKYVSWN2sR5rVEogZn/3VJYDBLsTAhMv+vshs+fhEjLwwBY8BlSBy7PPz8bIvKkdCc8pUBY59ZHBoZFEog/3kzPQZoGDP6OofEjzPsYWcTS6U9f6p8ocjEQoQJCRHYLy5N1jQzoZmlwq+IZ19Ay4Xv+ISwIA0JxVXyf6obPn9wXC1rnJcOE4oJmmUSJF55XKjvkPaegcFszg72Cpunt0ObwIFQWGHdJF0vVp2h2fIn49FqmTiOI5fb/GVdw6EKpMciVNSY7v0WqwCd9wElgIDkm/8I76JyxX0E1AFR6kDse8vx6NlZ1iGxBbc0rjSrr4hlzubYaChfthvCIw+EpujEfS/3x8qgMEABBW9TWkXqX4nkbnlUtPWpVTDKoC7FDDYJeWN7eq0Q/QX+odnkPfXPqzHQGEEQ5peWqe8xIBSifviamez0cv03RvW98ypaBDv1CLBIw2dhQHG0+s8dZzoODgaEX9x9TN2IMdFsuJvSygGpB9vqorGDgnPLVPN41t7JzObTNwfj0So+ZzzG7M6O3IxGcqlmHRDOdBksuB+V27IKu8kZajhOX622kOeXHteDXu4Nv7l2xh19SNpCxZjTPhWg94SYLC49e3dklhUqVZHdg1HiNlR5mrjKdI1XBDmlKPH6kCc2QDJUA4Ud139w8oPqTufd6IeIT/6+oz8fDws8qdrPOS32/3ly/Px4nO5SCqb0YBO798xm3dY6G8sAYYtrgRqUarGMKyiqLtxdaOpveFwuGwOvCzR+eV63LgaczabiTdSS3sv2Xuaxftykfz9VKyCA+YaXgo7zzMbveXNfXiHp0ry9Vpp7OxbVO/02byr428sAQZhAdhGUDF/7nFJXtjhr8YwDFK0V3YHyrbQKxJTUCHVrZ06SVaboR0nbrZ/Qz04OvsGh1W0xm6DroMjBD0Hdh68uVCI4XdyKrFAcisbVcKZbR9L8TtLgEG2vPqObmUmT1zKU18GPMNxbcME/ZVXojrwEFvyfaQUzhZqQiyPzlY7Cx7xGNdgurHervJNlqDsEiG8gGg8Z895FN9bAgxEMlz08GtEa4kXF3L/Or9kdZ33w2GloUN1FN9XSjHV4qGVvdPZq26Ia/xS5fW9IRqu8Na+ENkeekXCckvlWm2LqtzRi0z1jEf1nSXAMIO7Nzwibd19eqxgvQzPLVcfSnw4O3sHXV76MOOY7XVkbEwQZXFR9Ekrlq0hV2S1T5JuClI/cbwSpcZv+O1sn7sUv7MUGFAOgpc5f9t6BqWpa0BaugcF5dXQiLUTsxSTbWNG7yv/QBhC2s0ajXHJvdWg4QVIa0heUEmrRXJLgWEm33DviGk0K+MpzDst5RVKyTGKyE7jM98tZZ9zfbZLAIOXhnsHINoWIRxwrhPxKH+vlHJkVMEAIEhI6yqqcDMPMwKDhYLUYxzC9a24pkWjsSCFmI3Jv42FECdWVUBN4ZpmE9eG1DuqvKF94n6eQSMtAVrQqaLL6f/uwJCGFprfz/fqrB+bQuqB9NBPU+ek92PMjL26pUt6B4fnrZk0EWmMlXdxHIez9zOL5XjlGEZ6weOs9M7keTXvXdnSqTYpZ+vj+Fz+nhUw8HXA6/mbC7lyKDpbDkRlakOSIOTuRHyBuskzsXg+OXY0MITtoEeyy+vFK6Vw4n7zHGR7tH54XjlGYAGMurZuCcy4Mek+c/9sr876oY+R0QfqnUXKaMfnMWbGjvq+tq1Xf8s9juOc6W/GxhgZK+/i2I+z93P2XNwSK5ps5v5zSVcnPc+8N/nEbDE5U6/PVM+fFhgMfmzsgWZ9+Ta+QL44f0k++TZGPZX+fCxKPjgaIW/uC5kxL6bRdEbnlatIiqcT99P4/K8zceqfEJx5U4OQzIvSP/zGzbp2taya+wj8nUubqR+YvYHhMbla3SLbQ9InxmfuI/j507MX5Ehcrlyva9ffzkeMJsCKMeKLwZjNeEw/aEUxuJ1PuaZzPpNzsAHayfg8+dIzftLzzHvjLYY7IpZsqIaZ3+muswJG6Z0O2RdlU8qQMBUVLmprIrPwqsIkjg+Cs46NppMwPZKjmPt5Bp9f3hWoEw/qSYhmXtjk6sq93Sz/Ontp4j5M1nNpM/XDAnQPDGl8y99PX5jox9xH7Mob+4KVOhJVxm+noozmvae6AvKq5k5hjICMMTvOA3EpKLrwbLdZW533w/M42nxSixQUr+6e/Dzz3vNJxDIrYJTU2xKNvLU/TJ7Z6DMROIOV8AdfnVYLKNFXzoDBOXi9rkXOp16Ttw+Eqbs9gbwmmJe4zU9ORMup+DypbJ4MjKyKJvnzidiJ+4yRzVxxDgagqJenatgjcPUnzcBU/bCLePek6zUaEcfveR6Nz+SteGVXkMZ/ZMwj042hvPAvJy/l6TswZpOR2PSDWhxwfHbuksQU3FLfVURYR6DBqCLO36hrkwNR2Zrng3ylju9NmAWZjonXmWsiljkBgww07CIGwmK4CjB4nx+v8lA7i7G32F8BxX9/dVqe3eglH5+ImgRAA4zk6zXy129jJ8ZnAPeLzbY4lc1BVySrosHpBnBcQPP3TMAw/XAlhPFPRyPlTNJVyatsmNJmArWCn8PfA2rw2p4gWxDU+LqY55HigQCuRwIM+9RErgIMJoCjhUjyqZu//JYg5IOhssY3UfzSi9XH1CycAQY+p38/GTfJ/M+Y2RQ41HCUOKOM5nmO15mAYSifueITujnosjL8+HQ4Pg8qgic8VAXqgt/KVL6ltgi+ZQyMF7b7q8USBmy6hln72/g8SSyulJbu7+qRuBowADEhlUcv5CkT6ggMfEuJc4WqQF1wFcQYZ4BlrssWGLgBMnhSQhJ55p9+QxA3nTUTaEw2H/v8E64GDJh64m7xNocJhULgFWb0LVCRuKsVangjJZU52g0gzHXZAgPyCbX4yjNRkq7XSn3HXWnsvKvVibjaN2JWMHujiCMeBKWb2YmuBgwD+H+eilOnYhRY6II4kkbGHsjt5i7xTLmmsbQcofBXgMMAwlytA8YaD/nh12fk/cPhEp1fodHaTDomdftGMrb8KhvpI03ABPc8nntqvlKJGfhav1TJq2yW/iFCClE1266D/G333fCILTSRCTag4OpqwDDMI7nAAEBxTbPGttqYzmHJu92kkfTvHQzVrH9mPg0gzNXMzyNnPm3i5llNNYBPIwHAqLVhzuxbdVuXpJXWyvFLufLuwbAJ0rdQcXVi4H7JmjC1465dv3y2b32DSimm0j+4GjCMlPW7PUGyOzxTsyW3dOHuZ9MgX7h6S0MzcfCBt3C5o4QXAq3I+Gjz8GlEbUy2G/uGSvbb+HxZ45skr9m50S8UGBwlcOTksPBMLZLE4uopG/oJEsGR3YbqifbUwhUoBqmcWGQan828/Hqbn3zpmaBe5jVt3Zrfq4Rsh6SLOBIxAQg9UrfZ0i7YSycTG+dR6DHsxVVD8ngBFpz4jw+ORMqH36Dq/q4xCIJuXt0ZqNpSQ+rMBMz3KGG3wJFTXgI/yi/Ox0/ZcBVc45ciZ5OvaY4sVwMGKZtgIml8NvPyDIz10UgNmibvZ0v3gKZkOH4pT10gDW/x261+8qejEdr4bObXMmCYF5jv1UzAfIFh+jWUA2/zqRrJ2wlRIIl9yZ12l6EYKOHwFEfbScIYEu3zrmgxyXWK5hLVOTxURlmDlDR0aHgmnl+kmiZZLnk52JTkLf3HqVgNiTRHy7IHhlKOjd6q5AEkjo2YFSZ8U2CaUN3IVSgGGlnAATDIJUpGYsBB8nsWFeBzJbc5AdDE91JNmsw+3PPTtbbKj+8dClP9zb/PXtD4HENJLAeGOVKmslPYf2eQbHb6YlGMh/pf7SFPOLSn1tsSvJHBhtyirgIM0jTRMHaRvxxnaMIpoB4svJmv9w6GydHYXPFIviob/FOUv+CYISEcxw/A4Xv4EfgSY4OxHBgMAJTyQtM1g+TFBobp/4dk5vv6jPzPV6cfahTbBRz/8YiXa9XNLguMTYGpmmkH6gEwzHz9blegrPBKkPV+yer2APUDFIQfkOR2tU+i7IvMlPX+tnyplgPD7FSiyAiz+92eYE07RGyIfSMVEf97YXuAPLfxuzycC6UYHCEcGyh5EO3eOhCq6QV+fzBU7BtMMb4PFIwhVsVVKAZHCYvI+//rzAXZFpImB6OzdYExfhn9hMbwHg6XD49GarZCjkYssRra6BmvoDh+MVcj90hebzkwdKeu9tCitpBA0hQcjM2RoxdzH2p8x//IzYlkslgUA1BgV/jgm0gVl0/E52umGp+0IrFvvmnFWgqCMxrtp6sAgwXk2CPNA4zj7rB0TbxPEJa9vgcRFvAAEJMDnU1JPMruiAzxTL0mZ5OuuhAwVHN5VncrieDJXUHS04zyuoda0vUqDSraG5GlgzFn50IphjlDP/O4pPYRErlfw4e0vnXKht8qMRuuBAzmwOT/oLrThcLbymhynCC62mcSNhvKUMqPjkUpKKgRS5wKsb4uQTF+Nq4SB92hOaWC0ykBMyRGs28kBSEbHyUh8FBCzAIciwUMVL4ZZfVqB8EpCAPZVM0Yo1wNGFADar1uC03XXOKY/xFRHUtzGWAYSgkFJlALSyvlQF0HGBZ7cBmKsc4vVaPJ8WrCFxOXwOnaXG0laCRJAr8pKE2yKmy1ymxVEJz3Y98Hn/GddebB9Z2/R4YWycP3lEyA5CgHNIbCGp7uF5t9tBIS+gy89AnnJInsOr8U+e0OF+AxrHbUMcBAq4kDDV5Ng8Pk6LQFLjm7YqG0X7iZbCUsBInuqXAAZcIOhMHO6fPJb2HXx2yBsT0sUwpr2uRWU5e6EJC+Gscjw4QCED4j3uKUTTJaQEHVJo4SKAiMqeXMp9XAMCSVQjVUL6JuK47DBVUt0zZyl2MFNkfKTMCYbT95lS2Sc6tJrla1qmm8rbtfrb0AgzYTxdgRlinFde3S2NkvaTfrtJYLEp0jMJBYoA4c33ie4xSMFRZdCKBZ9sAwTBiFZgAHaQSgHpzP07UziYWaucZQjZmAMdt+Vvoky2fn4mWDX6p4phRJZmm9AA4DDBydcXjGIdneGdgcJQYYZOEhAzFB3h8di550lMDTUaOFZLntvWQr7lIm1A0MhyT0ZkdjTJtNQwNaVNM6Qe5nAoYj0+esDxK/GtsF1QdI78CONsfKbIExMGRz9qWm2wqvxAmfTgNQHJapbA2zT8wOdVEQWd3AcACGmTB4jtk0NKCkPjILNltgzNQPoJjIqeUZL35pxVLT2j3Rz2yBcW/kvtwbtoUH7KcM6OHwCXCgt/naK0nSS++IrcLjmHXAuFHXLttCMzTqjIlHTEXU/Omqc6p6JrPerOJKUq5puYgfrjirVkUsi3x2Fu9hAo6yyhs13sPcR9/zauPu9eQfL6icDIyJ8IF5Pt+M55dbfQWDFud+VUvXlMBgzDqeVecUzET0bQ3JkKLadhkaj/g3pcFsVR8vaGDXp+cuyrGLeVLW2KlufszRd0fJBaFv81x0IFibl8SDi5jOazVtWq8LpgfOGHe+H608qy/w31+emn3AUco1BRcxHrw8zRbv4a01UJ0FHGWWN6rV0dxHVeP5NMPEOQOGCTiaz7O5x4wHKWY6YBA6SMgDc4ddhzllbqmJhlSCtMOCwyCTippk9qHZJaoVJaFdZlm9VkIwIvl3zOcFoW/zXDYwPrFLBgycRKh2iIhEzdBXdgWo+IYIx+cV3onqWucsqNkE38JFf3r24qT7/3g4XNb5JYl/+vWH4j1g2hAtC6tbdXAT/e4J1lJSlJOaS8MS+c7+UK2pShSXYT5xDOYdCSaCgZ3LMx/67fh8ENNLXAiea+x60w8pKRkjY2XML+/018acMrfMMXPNZtSxj79Xc1efBi/jvXV7vOYrudORqvgdAeMABi86+jbPJRPgR8ejZE9kluRXNqs4P5Vro5HO7K+zikRr6uxTlzkYHKK+ybJ/IGa8RWeLf8YNudXcpTqEqYJ9ySfF4NDQ4f7neD8eSf4Z1zVZGwVt7F+QgVN3hAx/D91n+p/DFZvN4dgc3X1MpunHlq9iTMl+AP3M4ZmTfhudLSfi87QqQua41GD6YWxkN2asjJlK1TTmlLnFNZG5NrwPdVwAra3SwT117YOK4PtJOIF5Lr6t5DKLyiuTUwn5E889FJstxy7majHiypZup+tjnmN/nRYY/JCF4WXggK9WNwmDxbHXvmGfIJelo+LIdGR2JHVJqW1ufy+feSbPJgd33+B3+gVzf1f/oBTVNk+6z/E5s/2bZ/FM83wzThRXi9GPs/EwNsboOI/m98wxc82c27/bTJ+hHlSOLr3TpoV/HedhpvWZ6vkzAoObWFjEIiKgqPJD+L19Y0JRETsbkEE+aRx5hv29fOaZfE8f9OX4okZqcLxvvn/zvjxzqfpxNh5n8+js947v5+xvqAdUhKwC6DUc52Wm9ZnqubMCxlQ3LvZ3gIrzD+unM2PXYvdpxfO+L+N0CWAwWRxD3QOUdOhS8Wsq87gVC7mYfX6fxmkpMEgYT3IyrdHe2qN2jojccvVJQDZ/3CiHLQdXnxTWtEpUfoVG7xXVtkhz513lrcjtybG7mGCc77MsBYZNWrmrgbueqcWyKfCK/PVUnNo7qI2Gqvdxohz4qsRfq1SxlOqL/zpzUfZHZUlUbplGtVPtcSoea76Lu5D7LAGGMqNjY8p05t1uEK/LRfK5R7y8vCtIYyKiqK0AAAz4SURBVCnQNyCaUqOktq1bYFrtxbOFDNiKew3zjO8E4/rwWJQ8T9TZJh95/1CY6h9wuKlq7dJSoFa8o2OflgDDxp1Tx6NNi8t9cT5BXt0drLXQyMSPbyMF8/ZFZmksBR5g31fKAV/R0TOg2W/OJF6Vv5yIUdM4ZSlwvCG4iMJ6xKhCJYnQ5x7HhXrUf1sGDDSNeCodis2VD49H6w4y7vI2a6m/agOxCyjlaO+epNh51JM11/6UUtwdlGvVLXI++ZoWq6H8txknqnA+kyeLmBLU3vaa0rn2t5i/twQYqmkcHdNjgmQmm4PSNI8UE8UusuWH8Bb8LP52Klb2RWVpVsDvE+UwlCK3okFB8YXHJQ0lBPRmnMZV771D4XImsUDyXaBOiQGXJcAwnRN5XljTpG5p/z5zQV7c7q9BymbimERNo3QiRo7G5UpCUeWED4KrMGlmLFzhneCFOPZIWwBP4ZFUqMFCBA0Zvw7M96aS4ht7gmWtb7KWAWscT5Bi/0yrPlsKDEgt3uQFlU1azx1w4PxqrKCGcmA6JmKeHFoYi27eaX0oVZJVk+fYL+Lm3XvD6oMZk1chB6Ky5J+n44Ra7sSDGGAAePgoosgIGYjKLdc0lq4knlsKDDOxqISvlNSqMYkEsZSFmiqegmx2WBCxWiL/EzxEBST12B6zRv7nyEBjizofcbS0oUNzg6ilk2rNdmkJDDCowfr7A6GaYysmv0KBxP1mPlzh6hLAMPoMXNmwNBKu9/KOgIkd5jihnNeHY3IkMrdUE7W3dN3VummPmpunPzS2nX33VMK6eO22nEq8qnoYUkppZuENk7PpwTuRXdAjuVCT17tSvVUDSpcAhnkZstEpMxpwWd7cEzwJGAYgJAf58GiEbPJPEd+0IqU2FY2deq53999TkIwsQTEYgIBbAUegGgT7yPzfp9JVcHaJ7I7IVKdk4nSf3OA1IX2Y9zZXivPi5U0sCJlyeOajBrWZc2dXlwIGjix+6ddlpXei2DNrZkLN9fmN3vLiNj95BweXE9E6yafiCwSyDMPHZPcMUD7K5jbgbPBz/R4eAsaytadfmeDcW3c0nJAk7lAxgqdf2RmolAI9hWGizXubqy0vaawmredI5JlWl7pynAuXAIZtwoekqKZFJ4u0SUyemUhzNeKd44TbJjpGtgRdlnPJhXKxsFLdESkhAR+CSR8JCH4EBk+Lx4yOqfoZ6cY0eAX+hwmb33HuQ+Y7+waEzIMAF6Uc/hOU/kTERP+A19RUvIR5b8crMamEH67wSZao/FvKY6DXcSWq4RLAYPJxWwvMuin/HJdM8Il0nFAAgcRipBbzf5MyGlU66mYSiOwMy5QzSdcEo1zK9WrJLK+Twuomud1sK5iDNMSxY9/4jqyD1HqlDgjFa0hDebmkRiJzy7RcxP4o0hSkyufnLmmeMXJV/GqrLamaeZ+ZroirJOt/Y1+o8iP+GSVS3dqz6BTOkQrM5W9LgWHLoj8qKK6i8splS3Ca5pwymkFDIZhIOHl2JQlFkFqe2+Sjkgu/IWsPxW3NfezIN/biRxkrG/1T1T5BagHcCjFYJRdXCYwuNTwKqpqFmuo0itYBoriCChWLyTB8PqVQjsTlqKgMU0wuLyiUUVTRp+n36fWemnWPdyUv1tv7QrRxLJLt1wAGgHMPObZegd/wvyzppSSUv+cyRQItBQZku7X7rjKPW4PSVIQj0785KgyFIGoLPQa5p3A8xqH4nQOhtnRE6zx1kp8Yr5UOUFAeEd1FYBDOvx8cjtDEKZ+ciJF/nb4gX5y7JF95JgiBR5sD0zR5PAnkyeTP95+euaD6B1IYUYuFo4LnIE0ATkIo0LEY4Jr3NfoJUiVtD01X3czJ+Hx1PkbUNsCYuG+dpzy90Vs++CZKTicWqpWZY28uO3upfmspMLr7BuV6bYt4p157KG+lmUCzswjsXe2bJOx6kqCcVpEwWSf0pZ2BGu4HBSHBCLt2YuLHVezmeY5Xo1l9ZVeg0AwlcPyd/fN4JwMEVcBt9NZAYkCIbgJvb0BBzgp8O/FxRe9CVQOUXFA/c78Z32+3B8gqnyTN8YHfJ1IP1HSpFn02z7UMGDBaeGpH5JbKRv8UeXln4CTewSwIsZrsPOqUUlAO51Ymniwy20KuaGje2/tDdTcbEj8VL+K44DbNqo8mKOH4MZTA8XcsIM/juKIZHsckg6dSAPmv8MgOyS7ViHgcjVDctXT3S1Z5g2wPuaLAwdRu7jfj43iEyqAFzSitUyoKNZ3NAi7VbywBhs1za1Qr9FDQDVJNZNaPV52z2022oi6Qbkj/xau3FEhIDDRABTNJ+mTM2egFkGbIcIfIqNpTUjtu8lF+gJ1qWwiqIdmoiiMAHP82PAM5xqhy9NRGb3l2s49SCI4Vqh587pEgeyKzBT0GGX2oI2LiawA/MSKVzV1aIO8/5y9pWiozTtMfYCb0kNhTEqCUNbRZXtPeEmDYeIs+SS6uVgMTxjNU4IQdPrnWVsaKcD9yPfzjVJycvJSvRw7u90a05DNxGoiQSA+khA7LLVNtIknY0CwSbPPuwXA9Jkz9Np5LgwqYhXF2NdIOkge5NPERIfswvAhJ1LwvF8ula9WSX9WiIqeq6AepMm07CkwZCSgHkekkUOO4MeO07xdG9N1D4XIkNld5Lu5ZKmowm+daAgz0CewK//TrWojF7OCJHU3Q8gbbRB2MzpGU65PLbtoPDv0DuxRRE7GXPGAkZ8Nbiiw4OAKRwvrtfaEqBZDtjiw57FQoif0C8RkQvbIjQBOkAQYY0m3BaXIszlYGFEVaZlmdhg929gHW6RVphsJdLLytPhlsBJR0pl8br3FOk6Ss8UuWkKwSdUmwUiNqCTCM0QyNIYlBzA5mgvgM+Wf3UE0wsbhG6tp7pf+e8zPXiL1oEOHqUa1T9Jak8tkVjZJyo05i8m9JUGaJJqPfE5Eln5yMnaAkZoHMFQmCfFbYMkg3QIQY9cdIHlve0KHiNQYzlGYm5RLUwR6s9p+hclA4QIvIjGRlr9lVKrnmvPJIiNjfXMjTvqzUiFoCDGMTWe/3XcLSJ4gwpxriek95bW+wrPNPkeCsccXPDDvSfhHsP5sznnwTpAyA1KO8Siyu0gBi6pzZJ803wKCcFNIPTC68DNSI/F4L1UwCWpxxCEfkiCRbH1SLfgEHDPBb+0NlS/D8ivLZj32hny0BBt7f3qlFEzmxf7DyrEavU4eUQFxEU0AB74Dlkqju6Xaks0kwZzwGNWP4QsvK4pAhzxkwPvomSg1c5Y3tSoGUZ1gEQxdWZMCJPQfV/ddeCUo5DKV8aoP3uMIrVeZTxtPZPMzne0uAgSh3PrlQC9Ny3v8MnmKjt7y+N0TlecgtNgnD3c9nYNPdQx100hoh4sJrGEphdi75M8NySrQ4MEfAdM+a6/+gOpTfIsAbyoHCTT3XSPqCxnRvsGwIuKzJ5uZT+Heu7+Ps95YAAyYRIxRy+0cnYpSfIMaCsz+24LZQAJjJM9y9s5ef7/c369tkS9AVTVxLPgkDDLNz/3gkUpVSVI1eCmBAOYgvLaxuVqXWzrB09UH58/EovZIOobiuTQaGRtUkP99xLuQ+S4DBWcuOIbXBzvBM2RqcrrqIpOJq9W8wiUMWMrDp7kVJtiEgVVXmKLUmgDFeo+29w+GqT1gKYNi/l0mMAs9zOiFfc4LjgISSrKatZyKBiv09j+qzJcDQs7arT0irSPpDJAcSmdR39Khvwnx5itlOmqsAY3hkVCWbesz5da3q+1pY1axRaRyjSz0P082XJcDghThrR8e+S9TKJEz3oov5P/iXTYGXJ4mrRp9A+mZ0CUtNMezHxHyQMMUkTbH/nxWfLQWGTsZ4euf5SB3znTDKX20LSVcdCn6Z5ihBZMSEj/c2wT+PGhjMh2nzHdti3WcZMBZrAPN5DmmWyUuFEu1XW/xUh2DAwRVTO445tW22iPv59PF9v2dZAuNWU6cGMEEZMLYZzasBBwlWLxVS/71P81993xd5Pu+/LIHBEeGRdFWdcUzubY4QrKnYMD47e0mulNRJ98A9jRmZz8R+3+9ZlsBAjxKdX64MKIVf0LziZ4E19e39IbIjNF0DkSkFjovA932R5/P+yxIYOP3iO0FKReqokbwVcEA9CCk8l3RVqpo7F2wbmc+CuMo9yxIYffeGpKq1U8uN//30BU1gQtUlqAdibHReuVpokRBcZaEe9XssS2DgvwH/kHOrQagShOf3b7b7qw/pqcQCyb19R41nj3oxXKm/ZQkM/Dfwo8AND99RXANJ4HI+5ZqGEDR13hWTktmVFutRvsuyBIaZYKLN6tq75GZ9q6ZcLm1o1wCk5XyEmLlZ1sDAswo3w45evLltoYxIIm5gPJBlDQyzO9zXyUy2GxjT+GouZ8C4geEGxpQiuRsYbmC4gbGcj4a5jt1NMdwUY0qK8f9mew9t7rNzFAAAAABJRU5ErkJggg==;" parent="GwdNWeb7kluTHXHWdRGs-1" vertex="1">
          <mxGeometry x="834" y="-3166" width="31.21" height="34" as="geometry" />
        </mxCell>
        <mxCell id="GwdNWeb7kluTHXHWdRGs-56" value="" style="edgeStyle=orthogonalEdgeStyle;rounded=0;orthogonalLoop=1;jettySize=auto;html=1;" parent="GwdNWeb7kluTHXHWdRGs-1" source="GwdNWeb7kluTHXHWdRGs-57" edge="1">
          <mxGeometry relative="1" as="geometry">
            <mxPoint x="-318" y="-2440" as="targetPoint" />
          </mxGeometry>
        </mxCell>
        <mxCell id="GwdNWeb7kluTHXHWdRGs-57" value="Issues" style="strokeWidth=2;html=1;shape=mxgraph.flowchart.decision;whiteSpace=wrap;fillColor=none;" parent="GwdNWeb7kluTHXHWdRGs-1" vertex="1">
          <mxGeometry x="-368" y="-2590" width="100" height="100" as="geometry" />
        </mxCell>
        <mxCell id="GwdNWeb7kluTHXHWdRGs-58" value="Email Notify Customer" style="rounded=0;whiteSpace=wrap;html=1;" parent="GwdNWeb7kluTHXHWdRGs-1" vertex="1">
          <mxGeometry x="-368" y="-2440" width="100" height="60" as="geometry" />
        </mxCell>
        <mxCell id="GwdNWeb7kluTHXHWdRGs-59" value="" style="shape=image;verticalLabelPosition=bottom;labelBackgroundColor=#ffffff;verticalAlign=top;aspect=fixed;imageAspect=0;image=data:image/png,iVBORw0KGgoAAAANSUhEUgAAAQQAAAD+CAYAAADcdnvBAAAgAElEQVR4Ae2991fT27rvf/+VO77jnnvGufucvffae+2yml2KiKj0JlXsvYHYuy57W1YERaSIYsGOQpTeey+pJKGE0Pzt/R1zJjPGj0RaElLmD58xTYCoYc5XXp/neeYz/9fnz5/BL/4e8DnA5wCZA/+LTwQ+Efgc4HOAzQEOBG5I3BD5HDDMAQ4EPhkMk4F9SvDReY2BA4EDgQOBzwHDHOBA4JPBMBm4GTivGbDfPQcCBwIHAp8DhjnAgcAng2EysE8JPjqvKXAgcCBwIPA5YJgDHAh8MhgmAzcD5zUD9rvnQOBA4EDgc8AwBzgQ+GQwTAb2KcFH5zUFDgQOBA4EPgcMc4ADgU8Gw2TgZuC8ZsB+9xwIHAgcCHwOGOYABwKfDIbJwD4l+Oi8psCBwIHAgcDngGEOcCDwyWCYDNwMnNcM2O+eA4EDgQOBzwHDHOBA4JPBMBnYpwQfndcUOBA4EDgQ+BwwzAGrAGF0eAjDfb0YUinHvIZ7VPTrw/19INeIph8jAxqMDAx8fWkHMDo4iNGhId01PIzPo6OG/wz/ZHPeTzZn+N2PfP6MwdFRepE/W+L/bBUgEBhoWhrRW1k25tVXW0m/rmlvBbkGOtuhlXRBK5N8dQ0qZDqg9Kox1KvGsKYPowQKFnpz+OtaZtLx93Vq7yuBgWpomF7kz5Z4Hy0KhBGtFoMKOfqqy6DISoXkztUxL+m9G5CnJ0KemUwvxeMUKJ6mQ/E846ur+8UjKN88hTLnOb1Uua/Q8+k9egvzvr6KROgrzUdfRRH6q0rRX1uJ/voaaBrroGlugKa1CQNtLRjoaIO2q4PCZ1AuxaBCgSFlN5ixjGg0GBnU6qBjoV+AJX6p/DWntuBs9X3rHx5Be/8AKpS9EMmVKOpWQzqghXZkBCNmnpcWBQKBgSo/D+KEy2jaGo7aIJcxr7oQV9StWIS6MA961YcvRn2E57dX5BI0RC1FQ7T+Wrkcjat80Lja96uraX0gmrdHojV+PdoO70D7qX3ouHgCndfOoev2ZYiTrkOSkgDZw2TIn2ZA8eopunPfQlUgQk9ZEZixDIg7MahUcBPhBmaRT+OJAojAILVNguNVzdhdUo+zNS3IV6ig0A5SKEz0dSbyfZYFglyK7ry3aL9wFDX+c1H28/9G2S//n8Wv8tn/iUq3H1Dl9ROq/eejJnQxaqN9ULc2CPUbw9C4LRpNcWvRvHczWg7vQuupvWg/fxSdf5yG+PYlMGNRPElF9+ssUBPJ/4De4o/oKy34Yh51VfRWZ6CzTW8ZMgwRgPSodXEQEu8YGZnRyTSRScC/xzaNQjM8gs7+AbyVKHCoohHhogr45pRgc0E1nnbK0NavQb+Zb5ktCoTh3h70N9VDlnYHdRGeKJ/1Hyif818on/cni14V8/8bFS5/RaXb31Hp8Q9ULv6n7vL8J6qW/BtVS39G9fJfUe0zC9V+cyisCLBq/OejNnAhmLFQU4nyQkOMNxrX+qNpUyiad0QbzKPj3GGIE/+ALDMFipdPoMx7B3VJAfrqq2kcZFDZjZHBQQ4EbhhTmgMEBpkdMmoG6/OrEfShFN7virEhvwqprWLUqHuhHhqa0mub+hCwKBDIYiCLQv3pA9qPx9HbgSrPf6Jiwf+gYuGfUbHwL9a5FvwPyuf+F8rn/OfY1+z/i/Jf/49JcyFfK5/9f1Ex/0+odP+bzjz85qI2wguNWyPRvH8LWo/Ho+PCUXTdPA/p/VsgcRDl6yfo+Ziji2dUlqDfYBTtNFhK4xV9fRQa3CRs81Pa1MKx5PPMDN5JFDha2YSYj5UIzSuD//sSLLdnIJBJTqEgk6C35BMkCZcoFMji1EHBSkAg8CEQIuZg6vqOtVTM+5Pu5xb8mZpHhesPqHD9KyoX/R1VS39Ctfdv1DZq/OagNnAB6kLcQOyiIXoZNYvmbRFoPbAVBqN4nApFziuoSwuhaW2m0OQmwYHAIMPMgMBg1cdKBHwoReCHUgMQ7PaWgf0HSWqQpAh7S/PRcTIedeGLqbpTSyAL1drGMF0zERqHCcMwmIXLX1HtMxu1kcvQuC0KLQe3o/3MQXTdugB5xl10v34CtegdNQmSESFZEJJ25QbhXJAQmkH0x0r4fyiFT04xhQEzhC2FNXghVkCs0YL8DFtn5hgtestg+AeOjtLUHakjIFCQ3rmM+qhlFARU5a1uDNM1kzGMYwzDMJjFwr+gctGPuvjFsl++tokVi1Cvj1OQzAjJiJAsCMl8cINwLiAIzYDAgECAXMQSHAcI+qCSwRTKCtFx5gDqo5aCxhTm/T+9kls5tjBdU5jszzOzMGEU5DakJsQDDdui0Xpij8EglG+eoacgD/3VZTSroZWKMaRW0SpOHnuwf2iMZwbkdsH4lsH+DYFFmQ2mIEdvWSGkd/9AwypfVLr+FRXz/h8N/Fk3tjBdU5jszxuZxVhGseDPOpPw+je1CBqPWLEIDat8QOIQbUd3QXznKhSvn6G3upwGJkl5t8HE2PvMR7t6T8YzA8cFgtAUKorQdfEoGlb7osrr3xQKNOhnbzGFyZqCqe83YRCsrqImYAEatkai7dReSJKuQZH9EOqPObQac6C1CeSWbLi/n1dW2gkQJ2oGDg8EsiGJ3D4MKeTorSiC9N51CgXnMQVTZjG2QRjqKkgcYtkvtG6CZjJIFmNDMNoObYfk3k0oRe+h6WjjlZV2AoSJmoHjA+EbUyhG56VjqF/jx03BlD2Q5wUGQQq9CCyq/eaicecqdFw+AcXj+7qMRUUxiDUMdSt4rMHGADEwMgLZgBa5sm4cr2yGMJvAACAcWVBxa2ENXkkUkAxoQV7LnLeM1skymPqFsJhCtwLq6jKIU25TKHBTmJhB6G6v/oxK9x9p5SWpsiR7QEhFZeuRXZDcvY6e4k881mBq/s3Q8wQGpOjocm0r1udX0dSicTZBCAL2mAFhW1EN3kgVkNvbXoaJkmtkZARarRaq6nJ0XD6OhrX+qFn+MyoX6msUnDWm8D1bMP6awBxIfQfZw9G4PRriG+fQ/fIxekvyuTHMEADYOmBm8EmuxJW6NmwrrEFIbpmhzoAtfFOjMRDeSRVQDNrZ5ib2Row3jo6OgkJB2U2hIElLQMuWENQt/SeFgvUrG019Qtvq81/HHmimhm7u+jfdm9G4LgCth3dwY5hhIDAzIDDYUlBNYcDqC1g1oikYkOedBggMGMwUeuurIE84j/btYajz/Y2bgrENTOTP4xnDqyfoqyiBVtyBIdKhamQEBMrs98BH89Y2TNcMGCScDgjMFIZ61NC21EP1JEUHBW4Kk9wE9n1jIDEGsq9C/uwhetua6e0agQIHgXlBwN7P6ZqB0wKBvYFsJFBQJF5E2/Yw1PrO0u2QtMe9DxP5VLfk9wiMgezYrItajpYjsZA8vAdlySdoOttAtquTfpXs/efj9ABhLjMQAmF7UQ3eyxRQkt3EZgb5zGYZxrmnG+nroabQ/eQBmrdH0T4GJGDGYwqTjWUIjGHhn1G5+B+o9p2N2vDFaNm/ibas62uopVDgIJgeCNj7Zy4zEAJhZ1ENPsoV6BvSYnjUvGZn00Bgb+xASyOkiVfRtD0KNb5zuClM1yYExkAaxbQe3gnZw3voLSvCoExCaxfY+8/HyQGC9DpUDAyiQKHC1SlkExgAhCOLIewqqkG+XAHNsJMCYaSvFwQKiidpFAqk4xE3hclagvH3f20MpN0cgQKpeuy8cgrdOS8pFDgIJgcC9n4RGIhkStxq6DCkFieTTRCCgD3mQBDcUnwxhWjU+M1FhYuues/u+ilM9xPe3D8//79pe7tKjx9RvzaABhyV77Jp3QKBMZvofPw+IJgZFCnUFAZxxXVYkTfxOgO28E2NBAikN0JccS2KFN3QjgxixBlvGdhENJjC03Q071qFKu/fKBR4TMH4038KfyadoEgnKRJb8PgRtSFuaI5bA+nd6xQK7P3n4/eBYGwGO4pqKQzI4iYLeSJ1BqZAwJ5nlrGvtB7l3WoKg9HP5k0X20UMQTgRSY0+mazNsatBdgBWuP3tS1zBmr0azf1JPdOvpzcF0juyavmvFLrkfAxiZtwUTMPA0mbAgMDGA2UNqFRaxtzsEgjUFFqb0J2dieY9G1EdsJBCgZvCFOzAGELMFGjX6r/Q27Km7dE0oEugIAQzf6yDhKXNgIGAjRwIglgCm4gD7S2QpSWiee8m1AS5clMwXtzT+bM+C0FuIUgAl6R8SepX21yHYbWS91vQz0drmwEHggkQMCCM9PeBQKH7ZRaFAjeFaRqCASL6LIR+UxkpCiPFYYqEc+ivKeP9FvTz0tpmwIEwDhAYGL41hR++tF0nGmyY6OZaME7yOnpTILtOyUazti0hUKQloL+6lPZZoAftOuEeiJkyA3JQC9kdeaSiEdUqHkMweQ/7jSn4z9fVKegbiHAgTBVgX0yBQsH3VwoF+c3TFArOevr2TJkBgUGUqAK/V7egVt1ncj2wD8qpjHYZVDT1HzWYwp5NqAlcqDtUhR3Mwk1h6qYkNIWtoVBmJmKgvgLDKoXTxBQGR0ahGhxCubIHCY2dMHedAbslMDWuyCvH6vwqnK9tRX0PB8K4RDSYwuunaDm4AzXB7hQKrNUYNwXzmEKD/2yI42Ogun9VBwVNnw4KE7zFMwV0W3+ewKBC1Yu0NgniSnRFR2TxmqvOwBQI2PNhonKsL6jGpbo2NPT0j7sepvJ+OpQhsDdA29kO+aMHaDm0EzXBbtwUzBVD0ZtC9aIf0By6AJID66B+loKBhioMq7od1hSYGVSre5HeLqHnLRJ1ZycqsQVr6TFCVIGtRbW40dCBpl4OhAkTcUTTDwKF7rfP9VDgpmAeO9LFFMjeh9rlP6MlxguyI5vQk35DBwUHNQVmBgQGe8vq6X18UK71zICBZqWoAvGl9bjb3IXWPs2E1wP7oJzI6JCGwP7jzBRaD+9CbegiVJKKRpJKI3EFHlOYekzB9Qd6oEy9/yx0rVsGxe870JOd6nAxBVsxAwYEcvDrofIGpLWK0c6BYLp0lAFAODJTUOa8RNvJPfSwVQIFHlOYaixB/3MufwU5Abtu+c/oWOUJWVwY5Me3OFxMwVbMgAFh9cdKHKtoQma7FORMB+F8N8djhzYE9gZpxZ1QZD+iJx7VhXlyUzBTTKHG619ojXCDeMNySDb7QnFiK3qeP8BAXTk9hIcccW+PZ08OjY6id2iYRvIz2qUzFjNgIGDjmk+VOFHZhMcdMg4EtrinMo5oNCBQUH14TaFAjmXnpjBNS1j4F1Qv/hFNQXPREbMY0i1+kMdHUigo711Cf0UhBpXdIFCYyu9sJn+GwIAE7Z53yXGgvGHGYgYMBGzkQDBzGoubwvQhYBycrFr0d9T7/ILWcFdINvtBvjMIsm3+kB/dBFVmIvrLCzEkl1Io2IMpMDMgMMjukuNcTQtiPlZaPZvAAMBGtu159adKnK5uoaASa7QWAa1T3DKwTxtuCuYFArGsaq9/oTF4PsQbfaDYFUyhII+PoFBQJl2gULAXU2BmQGBwuKKRwiA4t8xqdQYMAMKRNUYhQUVSg5Aj7YZswDLm5VRAYGBgptB+ah/qIr1oUxCys49nHyYJDEG2gRgCgwIxBcXRTVBn3kF/WT6G5BKbNQVbNQMGBgKE5e+KQYDwR0M78uRKeowbm8/mHJ0SCAZTEL1Dx4WjtG0Y6RTEsw+TBIIw20BuF4ygoIgPh+LwOqgSzlAo2Kop2KoZcCCYOWYwHjlJd2HSULTj4jHUr1zOTWGK2Yfapf9G+0oPSLfqgRAbAgW5dgZCvsWHQqEnMwGa8gKbiinYuhkIgUBiCDcaO/BJoYJCy28ZzB5EGRkYoN2F1Z8+6KCwNoBCgZvC5EzBJBB2BVMoKOLDoDy2Eb13z1Mo2Iop2LoZCIGw9lMVEps7UdKthnLQMgfqOOUtg9AcDKZw6TjqY7zpISY8pjBxKNR6/Qttke6QbPKFfEegzg6YJZBxVxC6d/hDdXwjeh/d0ZmCTEzPfpiJ7IO9mIEQCBvyq5DaKkaNuhdqC52wxYHw+TOdmAQK6vxcdFw5hfoNwRQK3BQmBoUaz3+gOWQBOtcshWxbwLdAiA3WQSE+nEKhJ/Es+otE0M7QgTD2YgZCIGwuqMbTThna+jXoHx42uzGTD0oOBKO4xaBciu7cN+i4+jvq1/ijasm/dGc/8L0P3933QAqUGgPmon3lYhpHoPEDY0Ngf9abgvLoeqhTb6CvMBeDkg6rmYK9mYEQCNsKa/BGooBcqwXp2iQ0XXM85kAwAsKIdgAECuoiEbpuXUDjtkgKBW4K3zeFao8f0eg/G+3RiyDd4j+GIeiDjHpTIDEFxaE1UN06SaFgLVOwNzMQAmFHUQ1EMgV6h7QYMvMBLQwmHAhGQGBvyqBCDlV+HrpuXUTDugBuCuNkHwgQGvxnoS3KnZYwmzQEZgos+3BwNVQPrlncFEZGR+knKtkh+NKGKhDZgh9vZHUIu4prUKhQWOTEJjb3ORDGAMKIVgsChZ6SfAoFbgrjG8KkgMCyD3GhUBAoWNgUaFNU7SA+ypV0cxApR7aFCsTxQMC+zoBAjnAr7VZZ5MQmDoQxQMDeFDZyU/g+CNi+hkkbgpVMgZmBRKOluXvSB3Hdp6oZ35vAFvpER1a6HF9ST/s5svlpiZEbwnfAwE3BwkCwsCkwMyCFPGeqWygMQm1gb8JEQcC+j21u2mfBI9wYXDgQvgME9iYZTOH2RTSsD0LV0p++9GnknZcwZUOwkCk4ihkwIJDbG9Jx+Vhlk8XOY2BznQNhAkAwmEJpISSJ19AUu5pCgWcfdAYxbSCY2RQcxQwYEGj79U+Wbb/OgTABELA3iY1DSgV6SgogSbqOxo0h3BT02YdpA8GUKRR8gLajFcN9vRgdHr9U19HMgAHBGt2W2RznhjAJMIwOakGg0FteTKHATcFMhsCAIDAF5fWjUL/PhqalkUKBTVpTo6OZAQOCNbots/eUA2ESQGBvmsEU7l5H4+YVqF7+Kypdf3DafgpmMwQGBlansG8lFAlnoH73DAOtOiiMZQojnz9jcHQU0gEt8hUqeqqSPWYTGADYyIKJJE16rLIRjyzYXJXNbQ6EKQDBYAqVpZA+SEDL3k0UCs4aUzA7EJgpEEDsW4nuKwcpFEyZAoGBamgYRd1qnK2x32wCAwEbWbqRNEa5UNuKt1IFhR5bvJYYORCmAAT2ixhSq9BbVQ5p6h00bY0YwxT0h6WSvRDz/qS76L6I/6GH0bI8vr2PBAgTK11mJcwTHMcxBWYGpJ1Ycbcaic1dWJ9vf3UGDADCkRUkWaMPApvTHAjTAMLo0CAIFPqqdVD4xhT0R5+Vz/6/KP/1/+gu8ue5/6U7MGackmB7AcWENzexW4KJjuOYAjMDAoPzNa0UBqF5M98DUbiwp/qYAcEafRA4EKYBAvbmsdFgCmmJaNoehRqfWah2/xvKFvwF+a7/QJ77z8hx/w3vFs3CB49ZEC36BYVu/0SpCzlJ6s+oJNZgx+ZA27EHknbsnt/f7ThREAi/T2AKqnfP0N/SAFl3N0rk3bjX0oUN+dV2V4E4HigYEMj/jRwwS46A7xmyzLZnNpe5IZgBDAZTqK2E/FEK2o/spApd4vojXvh540H4GtxeHYub6+KRtGo7HoZF4623Bwrc/43KeX9Czez/QOWc/7Rbc7A4EASmIL98ALI3j1FcWoIrpdXYWliD8LzyGe+OPN4Cn+zXGRC2FNbghViBLo0WmmHLbHvmQDADCNibyMbh3h70NdSi83E6CnduQlZEJG5sPYKT+25j/7GH2HviMQ4feYCz8X/g9sY9SIuKwfNAX+Qsc8FH959QtPAHlC/4H50x2FEF5PgNUiYYMxCagfCx3hRke6MgvnkS7x89wJ5XOQjKKULg+xJMdsHZ+vczIOwoqkWuXEkDp+Q2ic03S4zcEMwIhtGhIRAoNNW2IOlBLvZfeYvNt0qwKrEeUfdaEJXcipV3m7H6Ti023CrB9ss52HsiA+d3nUFGWBRyvRagfMFfUDPnP3VQsJMYw7gt1IQLe6qP9aYgjw0BgYLo7F4cSEtH6OuPOih8KHUoKDAgxBbXoUihpqlVEki1BAjYa3IgmPEN7h8cRbtqCK8bNTj4ToWIxyoEZvXD94l2zCsgU40Vye3YfDkPZ/b8gXurtyE7wA+iJXNQ7Pp3XVzBDmILpMkqiR/QU5tIG/apLviJ/tyOACg2L0fh3tX4PeEWVj97ixVv8x0KBsReWB2CNTY1cSCYEQTszSQwSKvooTBY9awXAY/74fd4AD5Z2jEvv8caUCikirE6sRY7Lr3HkYOJuL02FjlL5qGcxBXsILZQt+wn2k+RnclgcSDsDIRiqw8q9sbg9rXz2J3xCNGvRA4HhJDcMpCy5ZNVzahR91nUDNgc5oZgBjBohj5D3DuKnFYtDuWoEfFIRWHg81iL715ZX5tDULoCMbersfdYGhJWbcEL70UQuf0TJfP+G2WkjoHawp+/299wJlKV5Fj4rnXLLG8GzCB2BqJ7my9q9q5EyuVTOPQgFate5jocEMJF5dhQUI0r9W1o6OnnQGDUsvWRwOB50xDOFGix7mX/FzMYDwjk60b24P+oDwQKUUmN2HTpA07EX8Gj4EB8cv0HSmb/l82eLMWBYJnYRbSoArtL6pDU3InWPg0Hgq2DgJlBXscwzhZqseH1AEKejmMF34OE3hj8HvfDP0OJtdeLcCH2DDJWhOHd4jkomPdXlM+3nSxEpctfUeX+dzT4zYJ4vbfVDaFy3yokOOAtA4sdWHMPA1tr/JZhGrcMzAwIDDa90VIY+JNP/O8t+vG+RqCQNQAChZA0GdYkVOHAiXQkrdqKt8sWoXThDzaThSAwIHbQssKFHtJi8diB4Jah+OA6nE687XBBRZJd8MnRHe5qrT0MHAjTAIHZzUAICUFsYeXdJhw5koykNTuQs9wdZQt/QKUN1CtYbA8DW/gmRvmuYMh2BkB0dCv2paQg2MHSjizduOZTFRKaO+k+jW4LHd3GQMBGbghTAINFzGAMKLD4QmCGEgQKe04/0UNhEYXCTNcrWGwPgwkQMAORxoWibXc4Xp2Kx460TPi+LaRVirZeaDTRfx8DwqaCajzqkKG5T4M+C53UxEDARg6ESQDB4mYghAJ7rDcGoSmQ2wcSU5ip7IPVKhQNgNAdCdceH4Hiw5uRfOU0NjzOdsg9DOSWgVQo5ki76UnPpPkLW7SWHDkQJgEEq5gBg4BwzNJCaAokpkADjbP+QwcFK1c2Wq1CkQFBfxRc3d6VyLhwDMeTk7Eq+73D7WFgQcU9pfUoVqjpITOkPZwlQcBemwNhAkCYMTMYAwqk6tFgCqu24a3nfBTN+RPK5v23fku19eoUrFahuCsYpOhJtjMIkp1BKDi8GZcSbmJL1ktEvPnkcPUH1uyyzEDARg6ECQBhRs1gDCgwU9h/8iFSI2KQt+hXFM//i9V3S1qrQpHCYJs/OnYEoz4+Gi/O7Mf+9IcUBiE5xQ4HBGt2WWYgYCMHwneAYDNmMAYUiCmsulOL03v+QHp4NESLf0PF/D/R/gqWrla0dv0BBcJWfzTEhiPneCxu3LyKTc/eOBwI2K0CKVeOLanHneYutFipIIkD4TsgYG+OTZnBGFAISu9GTEItjh65h5ehAah0/5vuABkLxxKsXn9ANkxt80PZ/jW4evMKtj16hsjXHx0OCKz+YOXHSpyuaaE9EMgxdGw+WmPkhjAGGLTDn6HQjKJAPIzzRYPTr0AULmZzPs7SYsOtMiTsOIScwGUo9viXxfsp0IYoQXPRscpCHZJYEFF/fLw4LhR1e6Lx7Mw+xKdlOPx255moP2Cw4UAYAwgUBl3DSKwYxI4cM1UgmhMC7LX06cjwlE7svPAGV3ccR+6yhRavZKzx+hdaI9wg3ugD2Y5Ay5Uss6zCnmg8On8YvyclYt2ztw7fEGUm6g84EMYAATODMukw7lYOYn+uFpHZ0yxFZovXEqMeCKyvQtzpp0iJXkf7KZS6/t1ipmD57IKu3kASG4Km3RHIOb4LZ+8kYNOTVwh3wKwCK1hitwwzUX/AgTAGEJgZEBjEf9DBIOCJDQOBQCZLC9ZXgcQT9h99gIS1uygULFXJaPHsgt4MCAxeH4vDtT8uY0fmMwqDYAfMKjAgsKDiTNQfcCAYAcHuzEBoG3pTYP0UjhxMwrNAf5Qu/BvKSW/GBeY5B8Ly2QWdGUhjQ9C6OxyiI1tx8+pFxD94iOiXeQ4XRGQgYCNpiBIlqsCpqmbaYZktUmuOPIbwWR9A7NLdJtiNGYwBBdZPYdvlXCSs3423yz1Q6PKj2eoTLJ5d0JsBgUHe8Z1I+uM84tMfURiEvit0eCAQGOwqrkVCYweae63TEEUIG6cGgt2bwRhQoJWMSU04cjgZd2O24sPiWbQNG93vMM10pOWyC1+bQf6RLUi6dh6HUtOxygnMgN0qkCPbTlY14UmHDF39A1ZNNzIwODUQ7DJmIISA8DHZ85CuRHRiEw4dScZzv6VmA4LFsgtCM7h2HnszMikMVjiBGbBgIjmh6WZDOz7KlXRDE1uk1hydEggOZwZCKJDHpD7heiES1mynDVtJF2d6QtQ0znswf3bhSzahMT4SomPbkehEZsBiB19td26Xoqm3H70WPqHJFGScEggOaQbGUNAHGSPvtWDP8XTaxZm0dp9u1sHs2QW9GRAYvDy9B9du/4H4h1lOYwZCIOwsqoVIrqQwGLLS7kYhGJwKCIPDn6HUjKJCNoJ7puoMjJqesgYlUxqNF6i1//xN1iGRnvdADoEhJ0NNNutgtuyCftci2ZtArs5YXQXiu5OxuJpwDbGZTxD12vHaqbOFb2oM+lCK0NwyHKloRLWqd0ZiBwwMTgUEAoMS8TBSqoewJ3eQFh19VWegX0imDlaZzPMUItYGgfHfl6UFyzqQ8x7IITDkZCh6XMLQK2UAACAASURBVNwkT582V3aB7VqUbvWnh8JWxa/Ew3OHcTYxAdsfP6cwCCHHsjnYCUzj/X8iReXYUVSDWw0zl11wKiAwM6iUjVAYHBINIuqFUQv0x1p4Zw7A+yG5NF+uDA2Wp/Zj2YO+CV3ke70zNPRanq4BvchrZg7A55G+wMmUgRgvZnP9WQ+4VYl1OLXvJlIjVkG06Gd6sOxksg7Tzy7oYgXynYEQbw9E464VKNq7Bo9P78fJpESHr0A0BQSWXVjzqRJnq1vwoksOa29mYiBgo1MYgrEZ7M3VwSDw2ZdDUnweD9DFuzSlH0vu9mJJYg+9Ft9Ww/2qEq6XFBO6yPeSnyE/73mnB0uSeuF1vx/L0jQ6KHzHQCxmFFlaBKXKsfpmGY7vvY633ot0p02TQ18mmIacdnZBHyuQ7QhAW1wYREe24Y8bl7A7LYPuTSDlyI5cgWgKCCy7QPYukOPeyelM6hkKJjoFEL4xgzwtIp9psTxjAMvS+rE0pQ9eyX104XrcUsP9mgqul7vhelFBr4XnFJh7XIY5h6WYc8TERb6m//q8EzKQn2E/T16LvOaiW2osTtADIrmP/r3EOgxGkamBz6MBXft2oUGYwRZ8M/vhn67EtotvkR4ZgyK3f6FswV/G78Xo8ldUuP5AW62TnY2TP7vx6/qCiv1r8P5kHO5cO48dmU8cdteiKQAIn2eGEFdSh/cy6/ZOZAAQjg5tCEIzIDDwz9Bgyd0+ulAXnldg3ik55hyTYfZhKWYdlGDWfrHuOijBbwck+HVPF36J78Kve8T4da/g2iOmX2Nf/22fGLMOSL55ndmHJPT15x6TYf4pORaeVcDlgoLaBzEKr+ReLM/Q0FShME5hDnPwfaw752Ht7Qpcij2HrKAQfHT5x/gnQbn+gMpFP6LefxY9qo3EABTkBGbD9uRxjnkX1Bfcv3oGx1PuY8vTV4h8LXLYXYvChW/qMTu78XhVM8qUPVbtnSgEAXvskEBgZlAhHcb9ci32v9VgRUY/PBN74XGrB66XlRQEBAC/7BHj57gu/BTbiZ92deiu2E76nOF59nh3F342vtjPCb/Onmevpx9/juukYCHQIACiRnFWAbcr3bpbDXKLkayLVyxP79fHMvQxCGIKxvYwGXPQ36pE3O/A7rMvcW3zYdqLsXyc5qyVbn9Djde/0RS8AOKNvhMAgT5WsCsYpFU66Y5cuzcGH47vxJ3rF5ym8tAUANjzzAwiROXYWVyHhKZONPda56g2tvBNjQ4JBGYGBAZx2X0ISlLD41I35p2UU/UnC5J8mlMYxOsXeVwXyILVXUYLnz5v9NgYCOTPpr7+1evpX3e3zjZ+iRcbjENnFWIQi2AG4XJRAY9bKhrPIHENEpwkcQ5je5i0OWRpEfBQjfDkDuw78RDPAv3GvWUgB7GQY9raIhdBusV/fCCwWMHOAHpuAmmVnn7xOM4lJiD20VOnqy9gABCOLHaw+mMlLte14b20G7KBwRlNNzJAOBQQmBmUi4eRVKhBfFYP/G8pseCMgn4iE+0nC57YAF3IwsVt7ccCk2AGQeyB/JtZDILEN2iAksUf0vppHIRmLyZrDllabLxeiLtrd0DkNR+lrj+arGCs8fwnWkIXomvtMsi2BXwLBKO6AsXOILBdiixWcP/qaRxLTnbaLIIQBOwxA8KWgho8muHKRAYCNjoUEJgZEBhsSlJi6e8yLDisswECA3KvT5WffHpbe/Gb+vuMTUJvEOTfSuIXNKZxUHd7QeIcJN5B4h4kUEniIJM2B/2tQ0xiA47vT8CDqHXI9/jVZAXjl1LlAMh3fhs7YHUFsq3+tOch26XIYgXbnrzA6hcfHL6PAVvoEx3ZLUN8ST0+yVUzWpnIQMBGhwDC0MgoegdGUCMewr0CDWLTVPA6KcXPNC5gQ0ZgCgqmnmcGoTcacotDIEHAQOIgHrd76G0FzViQmMNY2QrjWIMeCCseSLDlsggX4s7jvc8i1M77L1TRngl/oanIStcfULXoRzT4z4Z4w1inOutiBeScBNIavSE2nDZAfX1qNxKuX+KxAhOFVQwEoXllWJ9fRW8XGnpmZpszA4BwdAggEBg0SQeRVdSHbYkKLDkuwZw9XfhpVyeFgk3cHpha9OM9bxyjiO+icQ+WzSCpUJK1YDGHsbIV38QaSAVjZi8IFPaefYoX4SGodv8BpDyZ1SUQGNT7/kb7Jko2+41xqxCE7h3+9NAUck4CaY1OuiHvTU3D1qwXPFZgAgjsVoEc805PdZYoIB2wbldlIQCEj+0aCMwMGiVDeFKkwdF0FbxPSL7NFoy36Ozt63pzEMYc3EhhFKl3uKevdTARa/AlbdeeaLH5VjHubd4NkY8bStz/Ydjj8G3sYOzsATlBiRyaQs5JIK3RQx3sFOaJ3gJM9PuYIWwvqsXjDtmM7moUgoA9tmsgMDMgMIi9o4b3cQXm7ZWMnS2wt0U/3r9XHwf5qgbioARzjo4fayAw8HuqRUxSA04cvIOUlRuQRxqp6Pc4fBM7MJE9uJBwC/vSH9JDU8g5CUFkH8L7EqfbizBRILC6g6OVTShUqG0qdmDXQBgZ/Qzt0Cha5UN4VtynM4PjCvy0S4qf48S2EzAcb1Gb6+umYg0nx441+GRq4Js1gNB7rdh4/BEOrd2D254uSJ/zZ2TM/xteLv0NFauWoW1HMLpidfUE5IDVokMb8ebkbty7chpHefZgwuBjZhApqkB8aT3utojRauUTmdiCH2+0S0MgMJD3DON9lQbx9xT0NkFnBk4IAwYV41iDIVvRhVn7JbT2wjjWsDS5FwQKfklN8D2QjIConQjz8ETU7J+wct6v2Os5Hw/DvVC0KQC1seH06HVy2vLFhBuIT0mlR7DHZL/n2QMTsQKhMbDYwfr8atxt6aJVicrBIZuoOxACwi6BoOgZgah+ABefq+F/ShczoAVFbHE4+8iMQVAhOVtf3+B+RQHPW1J4nv8Et82nscA/GvPcFmPe3LmYP28eAt1dcMTPA4mrg/Do4HakXDmNE8QIsl4i+JUIPjnF9Ah24cTnj0u/sgZmBuR9WZFXhgPlDcjTt0fTjoxwIAhpNNXHNV1DOJmlRuB5GRbsI9mEDl3cwNlBYPz/N1XfsE+M2XubMTe+CPM33oWL30q4uLlg4cKFWLhgAVwWLsRil4Xwd12A6IgwbL3yB0g9wRp9PQGJE5BPPDLZOQC+/x4wMyAwiCuuw52mTtT39NnEngVTa8+uDKFfO4o2+RAyC/oReVWBX0mhkS1VHhovSFv8M3mviDVsrcHP695hVugFLHRfDrc5/4LrgrlwdXGh18IF8zFv9iy4hobDJ+EBX/hThB8zBHKrcL2hHSKZEgobKVF2CCAQGKTk9WJXkgJex5wkm2BOsEwQCC7z52Hhb79gUXAofBNSOBCmCASWVThU0Yg8PQxs9VaBAcIuDGFoeBTq/hF8rBvAvvtKeJ+QYR4pPLKVPQnmXLTmfi0WbCTZl7hO/BLfit/iSzEnPgvzN5yA61JvuM39Ga7zZsN13jzdtXABXN3d4blmA/xTshD8sQpBeeUcDJMEQ8zHCuwvr0dKqxhtNppVYCBgo10AgcCgukOL5A99iL7UjbnxMvy6W7dt2Wb2JJh7IZvj9QzBxS78tFOKn3d3YtbBWsw/kwOP2zfgeSYWHiv84E5uF2b9CpdffqYXgYF7VAyWnjiHkNcfEV7WQqHAYwbfjxkI359dxTXI6hCjsacHvUO2mVVgIGCjXQChUzGMzPw+7L2vxNKjTlxvMBlIGBnBr3vrMetQBead+gjXq9nwTE6A9/ND8ElZC694f3iEusN12WwsXPQzvdxCfeB15Bj8HzxBRGEtomu6EFbcgJBP1fTixjA2GFjMICyvHFsKa/BHfRtqVGpoRwYxMmqbWQUGAjbaBRAq2wdxIFWJZSekmEsrEZ243mAiUIgT64q0mBGczcWihGQsfXgWfq/2ISB3GwI+roX/2wh4JwfA8+xSuMS5Yd7G+fRadCgGAZkZehh0YmW9lEIhqroD5OLGMDYQWFZhXX4VzSgUKdRQaLUUBqOfR20yzchAwEabBsLA4CgkymE8K+5H5GW5bfQwmMiCnInvoRWaZIu3GL/ta8OsQ7WYd6oArldfGIwgIG8TQoqjsKJ8BUJKwxDwKRQ+rwOxJNUHLpc8Me+EG+Ydd4XHjXUIzn2O6NpWrGyQIKZR/tUlNIbQj1UIFVWABNHIGQNCdXb0x8wMyNkK6z5V4Ux1Cz4pVPQ4NlsPIjIQsNGmgUBg8KqsHyceKuFDNi3xIOLYZdnMCOJkmHVAivmna7Do1lMsTf8Dfq8OGowgqHAlQkqiEFoWidDSSATmh8P3dRC8HvrC/c4SLLzujoXXXOBxLwoBOXcQXlZIoSAEgtAYoitaEVNYS48yJ1BwdAAI/38GM/hUhYTGTgoD0k6dwGBkhk5gYgt8sqNNAmF0dBQjIyOo69Ti0jM1oi/L4XZAzIFgbB7G2YP4Dvy6rwlzjlXC5XIBPJOewPvpefh/iEVIcYzBCIJLIhBSGoXQ0mh6BX4Kh/eLQCx56I1F95fALckDrolu8HgQDJ/sIwgWZSCyqvorOxDCgTxeVSfGmvIWxBTXI7yg1mliDcwMgnPLQLY0n6hsMhzUam9mwMBhk0AgMNBqtSio68OOBCVc98sxK55nFQwZFUH2gMBgwfkPWHw3GT7PTyEgNw4Bok0IKliNkJJogxEYw4BAIUAUhqVZfvBIWYpFyV5wv7sE7nc9sSjZG55p4fB9eQzhZfnjAiGmQUahEFPThejqThpncIZYAzMDAoNzNS142SVHe5/GLs3ApoHQPzCMdlk/MkUqhJ1V6FJmzriL0dgI2J+Nsge/7avD7CNlWHjxDTzvJ8D31SEEF6w1aQTMDEgcIbggEv45IVjy0AeL7nkJLh0Ylj7ahNCCbJOxhLFswfg5YazB0bIUpPMRgcHhikZkd8ltsr8BW+gTHW3SECTKIbwo6cWxdAW8j5PNS/ruxmxROOvIYgX67MGC8++x5P5tqvcBuTsoDEK/YwQMCBQG70Ox/Lk/PNOWC2BATMETbknu8EyPRsCHRJOxBOPFP9afhbEGR8tSkDZopPORMQxm6tTmiS748b7PpoDwJXYwgMvPlYi+LIPbASevSDSKFfwS347f9tdj7okimj1YknIb/m/jEVK4GivKIrCiPEx/e6CLETAACMcvsQMfeKQsMwkEjwdB8M4+jKAJxhLGgsJYz5kyB1vNVpAqTVJ7wQwnMr8GGwprcLKqGS/FCocwAwYKmwICix0U1vdgZ4IOBrPoBiYb6pJsTTsRxAoIDFyuvAIBge+LwwjM24bggnUILVmJUBIspNmDL0FDIQjY4y+xg2VYlLz0GyAsusdiCcuxOHUFvLOPIKz00/ixBEF6ciwYkOdMmYOtZisIDEjtBTOc7bWduNLU9RUM7N0MbBIIGu0wxAoNnuYrEXHeyfsc0FiBGL/s7sJve5sx+0g5XC69pKlE/3d7EFK0esJGwEAwfuzg61gCCTKSzMOSh2sRJMpEZFUdVtZ3mg0MQmCYylawT2Y2WsokhCbA/j5SpUmsZn2THLuaFbjQocBrucqhzMAmgaDoGcbH2n5cftoN/1Ok2s5J+xywWIG+rmDBuTIsSU6Cbzaxgq0UBnSRT9AIGBDGix0Ig4sklqBLQ4bA58UpBH98SqEgXMhme2wiW8E+mdloKZMQmoDh76vpolZDYHBdD4PmvgGb7InIFvZUR5u6ZSA9Eu9+6MW2BAU8DzspEKgZkCPf2jHrUD0WXiiC572H8HtzAMGFqxBaFj5pM2BAGC92MBYQSHDRPdkHSzI2wO/1JRpg1FUvyixmCuMBZqImwT7hJzoyExD+/c5gBgwgNgUEsmdhX5oSXiekmBPvhJ2Q9GZAYDD7aAVcrmZj6aOL8Hsfh4BPaxFcrKswnGisgIGAjePHDr6+ZWCxBPd7XhQKS7N2IbTwNaLr2scsaRYuJIs9nqBJsE/4iY7ktoDEN4T/bmcwA5sCAuuiLKrXYs3NbvwaT5qfOFl2gZiBvuKQZBHcrmdhacYl+OdtQXBJmP76utKQLfSJjgGiFfDKHKvuQAiCrx+zWwfPjGgE5iUhoqIY0XVt3ywc4UKy98frGuXY3iTH2XYFXjlozICBgI02YQisi3J2qQZRl5T4OVama6dOUm7WjOrP1N+lN4MvFYd3dVkE0WYEF61CSGmk/ho/g/A9OEwdCLrgokdqMHxeHkDwpweIrK5yeCAQGJxrlSFL0o2GXo1DxgwYCNhoE0BQ9Y+gsl2LO+96EXzaySoT48gORV19wfwzefBMvmNUcTixuoLvQYB8bbLZhW9iCfeWwI2UNN/3hVfmSvi9OYGwkpwpVzDaujkwMzjVpsBjSTcqVL1Q2WjbdLaQzTXaBBC6uofxpKgPh1K7sfyY1HkqE/VmwOoLvFJv0EIjUn78peJwelZAgDDZ7IIQCOSxO6lNoLGEpfB6tB6BuXenXMFo60BgZkBgUNvbT2EwOGIf/QymCwabAEKDeBCXs1VYecWJKhP1ZjDrQC0WnM+BV9p1TLW+YDxDmGx2YSwgUCjo05CLUgLh/fwggkSpiKis0AcYZy7rYC7AOLMZMJDYBBDKWrWIvauA+yExZjtDZaLeDAgM3K49xbKHl+H/PnbK9QXjAWHy2YWvg4pfAKGrYHS/twykrHn5s30ILXo381mHCVZIjgcOZzYDmwCCIbtQO4BVfyic41xGo5gBMQMCg4DcXfq+BeaJGQgBMdVg4hcQfA0IlnVYkh6FkNw7iC4vwMq6VrsNMnIz+Gxo7zajhmDILpRoEHmx2/EPaxXGDMhtAjGD4phJ7UUQLvjxHpsfCPqS5geBCHkeh2jRHaysKrdbIHAzsBEg9GhGUNc1SNurh5xx8OyCUZ0BySbQAOIU9ySMBwD29elmF0wagj7r4Jm8HP7pKxD6Yh/CC55bfK/DeMo/2a+vaZRhc6MUx1pkyJQonCqbwG4RhOOMGoJcPYwPVRqcz1LB76QDZxcEdQYktUi3LRet1rUzm+SeBLbgxxvNkV34HhRIJaPnPS8sTY+C38szlt/rYKZYAQMHgcGhhi4ktctQoe5zqmyCEATs8YwCoUMxhHRRL+LvKuB1xEH3LtB+Bp30kJQ5x0uw+O49s9cZmAKDubILJqGgb6Si2+uwHr6vLmBFca7N1ycwMzjYJEVim8wuzlxkC9bS44wCoVE8hKvZasSwdKOj7W7Ul1+T49PIiUkuV17CJ/uooLPR9OsMTAHBfNmFr4OKXwChzzqQXoz3vLEkcxMCc+/ZfH0CMwMCgxJlLz2A1V6bopobEDMKhKr2QRxKVTnuWY16IPy2vwYLL76FV+pNBIq2Tnm3oqmFb+p5cwcTv4Dga0CwrMOX+oQHiKgo1fVOaPh2sxBTdmuP3Ay+BA9NgWRGgVDSNIgtN1WOfVZjXBfmnizA0vSruvRi0ZoJdzYytdAn+ry1gPBlV6SuPmHZ03iEfHqCqKoaizZUmSxQuBnYKBCGRkbROzCC95UDWHmp2zG7KtN6gzbMOlwD12tP4fdm71dnIkx0UU/l+yyVXTBlCOx5YgqkfwJpu+b3+ixCCrIRSaBAT3+auUpGbgbjg4AZw4wYAoFBk3QQaaJerDgnc7y9C6ze4EA9XK++hFfGVfjnboXwoJSpLPaJ/Iwlswts8Y89sl6MPlicFgnvF0exovj9jFcycjOwcSB0946gsHEA11+qEfi7I/ZOJIfKyDD3RDmWpCTA7+0eBOavsRoQgvIj6BFtSx/7YfGDb7sqj72Yv44LTOd7dL0YF8MzfSX8c24irCQXUTUNVjcFbgYTB8GMGoJUNYy3Ff04namELzmz0cGyC+TAVXLGouvlfPi+OIHgQt0JSsKTkybyaT+V77EVILgn+2JJxir4vfqdQsHanZa4GdgJEBy6/iCuC7/ua8O8Uw3wuJMN/w+76UlKurZn3z8vYSqLf6yfsXT9wXj2QLZKk/4JbncX00NfljxcBf/31jOF1Y0ybGiQYn+TBHfapLzO4PPEwTAjMQSHrT9gacYDtXC5TLY034Z/3jZ69Do5bXmsxWuJ5yxffzD+7QXtn6CHAmmsQqBgLVMgMIiv68DNFjGKunt4nYGtA4HWH6Qp4XNSgnl7HKh3IgHCri7MOlQO99tpWP70JPxFG2g/RNIGzRKLf6zXtF668ftg+MYUMlbRmAIJNNLsAznjwYx1CswM9jZKcKNZjHcSBWQDWsNOPnafzEfTxjAjhlDSosXWBAXm7xPjN0fqf0CyCzul9ADWxfduw/d1PAI+rXZaIJBbC2NTIDEFEmgk2QeSkjR3nQIzAwKDAoWawmBgZIQDwVYNwdH7H/wUK8a/d8gw52gJvNIuw//DVgQWxFgtuzBT9QcTjikkLYZb0mKakvQldQqfniCiomTaex+4GZj+xJ+sDVnVEBy9/4EBCMeLsCzzLAI/bkRwUYzVCpJmrv7g+7cOX0yB1CkswaJkb3ikhmLZ090IEj2Y9t4HbgZ2CoQ+7Sha5ENI/9iPFeccr0LRAIRjxVj28AICRVv0bdQtt4HJOIYw0+nG8UyBff2bvQ+5dxFZ/BYrK8uwsqZxwnsguBmYDwTEJIaHh2FVQ1BrRlDTOUiPaws563gVigwI5GBWelR7TrxTFSSxBT/+qN8lyXozZq7DipcHEZ17G5HFOROOLXAzMC8QNBqNdYHg8BWK+qDinEO1WJbwFAHPiSVsslpQ0V4MgQGD7X0gTVZI56WQpzsR9O4Kgj9mIqw0D5FV5YiqrkN0bTOi61ppCTQpboquaUZkZQ3Wl5dif1kB7jdWoa1XzYOHkwgejhVbUCqV1gWCo1co0uPndnVh/v5W+F+uQXjaU4TkxnMg3DMVY9DvfSCdl5KXY0mKPzxTw+D1eDP83pxEkOgOQgueI6xEhIjyIkRUlNErrFiEoLyHiHp/B3F5N3GnMgstqi4OhGkCoaury7pA6FQM4dGnXuxLVmDZUQfrkEQ6I8V24qddnVhyRIwdCXIcfVGGfUXXsa0qFtHlay0eXJzpCkX2yT/ZkdUruCYtgmuiK9yTl9IToryz4+D3+jT8c24g4EMibb5CGrD4v7sB72dHEJAVizXPd+B30Rl8aMuDuFcCzdAAB8MkwTA6OoqRkRHU19dbFwgtsiEkvlNjy005Fh9yoNOd9RWKBAYECivOS/EgV4nCli7kdhbjXtsDCgVL73a0hQrFycKAfT+rV3An5c7EKO77wuNBIM1GLE4Lp6lKsoOSXB6pYSDNWBbf98PyFF/EZK2iUHje8IJCYSwd5s+ZjjcQGGi1WhQXF1sXCKTD8rmnKoRdlMFlv4MAwcgMFu7rQvA5CU5mKlDe0oteTR8Ufd0oVpThWutN7KqJR0z5elqxSDY6mXuzk61UKLJFPtWRGYNbkgdcE93gmugClzvkWqi/XOhzxCbItfz+csRkrcYp0Wm8bXmPdnUn+oc03BQmaAoEBgq5HK9fv7YuEMrbB7E7VQmPE1J6QpPd73IUmAGBQcLbbgqD7p5BDA0PQzs8CIW2GzU9dXgkeYK4Wl2jFGIL5jYGRwECAYnOGPTZCLpJimyUGvtafG8JhULko2jse38ED6ozKRS4FZi2AuP3Rq1SoaqyEvfu3rUuEIpbBrExsRuzDojxy+5O/BTbCRKIs8sj343MYP7eLvifluJoejfKmvuofhENY2/6yOgItCODqOttxO32JMTW7MXK8rUILgk3yzHvrBbBkYAwGbswZCuSvRCYEYa9OYfxsuktN4UJGoJEIsGLFy9w6uRJ6wKhqEmLtTcUFAY/x9k3DAjMWMyAwODiczXyajWQqYZogIYEahgQRj+PgkBBNdRDofBI8pRCgWx4IlAwlyk4KxBYT8dF9zzhmeyFFQ8jKBS4KUzMEBobG3Ht2jVsWL/eOkAY+fwZg6Oj+FivwaqrpCCpAxQIu+3QDgxm0AFmBgdSlfhQo4G8ZxikPJuBQDiaNoUIs8QTnBcIurQmN4WJAYDNS2Kxg4ODKC0txf59++Dv52cdIBAYqIaG8ba2D9FXyAlNdgoEQ8ygAz/t7ID/KQkuPlNRGHR262BANnCxN1w4mjYF85Q2OzsQuCmYnnvCuUgeExioVCrk5ORQO3B1cbEOEAaGRyHTDOF5ZS8iL9spEIzNYE8nhcGBFAU+VI9vBsJfhtAU4mr3IaZiw7SzDxwIY5vCnpzDeNH0Bm3qDvQP9ZsEtvD35OiP+/r60NzcjPT0dERGRGDunDnWAYJmcBRdqiE8Ke5DxEU7BMJYZvBURWFAiq3IbcL3zEA4scYyBQIFkoacTvaBA4FVRLIKSF1MIfRhOOLfHUByVTqFgvD34ayPSapRlJeHK5cvY0VoKFwWLrQOENgux4yPvQg7b49AIAHEDsyfphkIJ57QFKabfeBAYEAQmIJ+r0T8u4PIbnrNTUGffZCIxXiRnY0Tx48jwN8f8+fNsw4Qvuxy7EHIWfsFAo0ZTMMMhEAYyxQIFKaafeBA+BoIX2IKur0SoZlRIFDgpqCLNZB048sXL3Ds6FEs9fLCv//1L+sAQdk3gtIWLW6/USPotJ21XY/rwoJ9XfD/XYKpxgyEIBA+NpcpcCAIgaA3BX0XaM/73vDPCKNQ4KbwGQqFAgUFBUi8cwfbtm1DWFiYdYCg6B1BQeMA/nihQoA9Hcyijx0QGNBsQrUGU4kZCAEgfGwuU+BAGBsIrPLR495SEChwU9AZAi1ZVihA6hBEIhHevHljHSDI1cPIq9HgwhMl/E/aiSFYwQyEYGCmUN/biISOe9hdux8ry9YjuDgSISWR49YqcCCYBgKDAjkvgpvC1+lJ0imJZBzUarV1gCBVDuN1WT9OZnTD57gdbHu2khkIgcBMoWeoFy39rXgmfYXYyiMIKlhFoTBeRSMHwveBwKDATeFrIJCqWgKFoaEhbR2nHQAAD/ZJREFU6wDBrvogzIAZCMHAHrf0dSChJR2xFUcQXbJxXFOw5+3Pk9m7MN3vZbsphabQqmpH72AfLTMncGa/B2cardJT0W76IMyQGZiacH3D/SBQeCZ+Q6EwninYa4OU6S7wqfw8gYLQFO5WpqGhu5luRCO3b6Z+L478vFWA0CgexNVsFWKuyOB2wEb7IMSJMX+fBP6npBbLJkx1Ik3UFOytp+JUFrI5f0ZoCnFvD+BxQzbqu5uh1vY4pSlYBQi0McoTFcIuSOGyzwaBQJqj7pLC/6QCF56qp1yBONUFP97PTdQUOBDGjyEIgWJsCiGZkSBQSKx8QKFAtqw7mylYBQjVHYM48lAF39NSzNtrY0CI68K8vRJ4H1cg/q4a76sGxt21ON4CttTXmSnsrjyGteVbEV66CitKow3ZB1s+qEW4EG3psdAUdr3Zh/Tax6iS10I5oHIqU7AKEMraBrErRQnXY1LMirchIOhjBt4nJDiarsKzIg1aZZPfm2ApAAhfl5nCK9kHnGy4iPUVOygUWPbBVo9ys6XFb+rfYmwK/ukhWPtsIy4WXKVQcCZTsAoQilsHsemuErMPSfALAYItdEqKE+vM4IQEsYkKPCnqQ5N0EL0Dth9M6hqQIEvyEr83XsLmyl3fmAJPP07+1oGAgpmCG23V5onVT9fjflWaU5mCdYDQMogNd7oxa78OCDPeNk0fMyC3CcQMCAwaJToYDI3YfrpJMzIAAoX3ChGFgtAUOBCmBgQGBdpo5e5ieD/wp1BwJlOwChCKmrVYf0uBX/eIqSHMaA9FYgZ7pPA+pkDsHTWeFGnsxgyEtxCmTIEAYWmWHzxSlmFR8lKY0mT+/NjgcGZTsA4QGrVYe00+823TmBkcU+Bomg4GjZIheptgD2YgBIIpUwj4GArvF/5Y8tBHBwWTJyeNvSA4KFjXZ0+Q2wdnMgWrAKGwUYs1VxX4aVfXzHVZdiAzEIJBaAorCqPh/z4Uy5+Ro9GWc0OYIhCd0RSsA4SGQay+osRPO6X4OU5s/bbrDmYGQiAITWFd2XYQKPi+C8SSDG8OhCkCwRljChYFAjszLr9Oi1WXVfj3DhnIkelWjSHEiTF3jxRLjyqwI0GFrMJ+u40ZCEEgfCw0hRBRJJZn+fNYwjSAwKBAdkkKsw+V8moo+hUYHHacAiaLAoGdGSeq7kPMJaX1gaA3AwKDvckqpIn6QKomSWrRHmMGQgAIHwtNYU3hVgS8DOOxhGkCgUFBmH049+kiCrqK0a1RUSgIfx/2+NiiQBgaHkFP3wDelfUi+kK3dYFgZAZbb6mQKupDdYcW6n7brzOY7kRipnCy5iLWibbBPzsUS1KXg0xo0laMBw2nFkwVxhSis9bgVkkC8jsLIemVOYQpWBQIA4MjkKoG8ayoHxHnrWgIAjPQwWCQwmBo2PbrDKYLBIMpyEUgUFiZuwHLMnzgluSuh8LUFgQHydfZh2Upvoh6vAqnRGcoFBzBFCwKhH7tKDoUQ3hc0I/w893WCSo6sRkIQcJM4Xj5Wax8vooeiEoORuWmMD0gGkwhaTFckzwQ9TgGNx3EFKwEhD6En5dbPu3o5GYgBILBFLry8PvHM/TI9GX3l9Ej1nVQmN7CcGZjIFCgMYWkxViW4kOh4AimYFEgWPU8hjgx5sRLsfiQApuuq/Agz3liBkIQCB+LeyV43vACv4vOIObxKiy7vxwe3BSmHUtxRFOwKBCsdh6D3gwIDLbe6kbC615UtDpPzEAIAOFjzdAACBQ+tIlwSnQeK7PWUSi4JrrxmMI0MxCOZgoWBYKqbwTlrVokvFUj6IyFui0bmcG6q0rcetWD/PoBKHocP5sgXPjjPRb3SvGs8TV+/3gBa56sg0+KLzzJLj+efZiWLYxpCsW38amjAJJeqV1lHywKBGXvCEqbBnDrlYUOaBGYAYFBSZOWwuB7x7KPt3Ac9es6U5BC1JGPy4XXsSl7O4UCN4Xpx1KMTWHpfW9EPorCybyTFAr2lH2wKBC6e0dQ3DCAGy/UCDT3AS3cDKbcBFTWp0BOqwh/FN3C1uxtCEwLxJLkZXDX9wEgk9uZA4ZT/b9/MQUPGriNehSFm8W37MoULAoEou1E30mDVbOe2MTNYMowIPYzMKwFgUKJpBz3K9OwP+cwhYJroitckxaBlOlyKEzNGnSmoMtALCfZBzszBQsDYRgf6zW48lwFclAqOUH557jO6e1l4GYwLRgY3w6pBtQol1YjvfoR9r87gMjMSCy776Ov2V/MYwvTDTiS/Q9J7hQK9mIK9gUEbgZmgwEBw+DIEAgUmpWtELV/xM3iBERnraa3DmQi88rGqVnCl1sO+zMFiwLBrGc6cjMwKwyMTYHs1iOBr8KuYlzIv4yN2VsQlhkB3wd++iyEzhb4bcTUAKErYPpiCh/bP6Fd3Ym+wX4Mjwxb7Pdq/Due6J8tCgSznenIzcCik4acPaCDQjfqFQ141fwWF/KvGmUheGzhy6f+VKDwxRTIbdmR90fwsukNWlQdFAoTXazW+D6LAkHcPYzs4j4cTe2G97EpHvIaJ8aseClc98sRc7kbN1/yOgNLTwyWhbhRnID4N/GIfhQN/7QgLLlPmq2Qyc2NYSqAIKZAUryhGaE4LTqHF42v6e2aLZmCbQNBbwYEBtGXFDibpTYUHfE6g69P8DUnJFgWolZRj9w2ERLLk7Hz9V4EZoTTWwiejZiKJZCf0ZnC0vvLKRRIIJdAwZZMwXaBYGQGERe6ceaxGq/K+iFR2tY9lzkXoq29FostkEzE3cpUHMk9hW0vtnNjMEP2wVZNwTaBIDADAoO8mgEKg4FBx+9nYCtgYLEFkokgR6WXSSvwvjWXG8M0gWDLpmBRIHQphpFV0EdPU1420RhCXBdmxYtpzICbgeVuC6YCHVPGEPM4BqEPI+CbGgTPZF1nJl2cgccavhdrsMWYgkWB0C4fwoO8XnpU2pIjEwgq6s9adDsgRvRlOb1N4GZgO1AwZQypVRn4XXQRm1/solAg1Y40zsArH8cpAbe9mIJFgUAOTr37vgfbEuTwPDzOIa/UDLrgdqALkRelOPNYyWMGn20HBmMZBTOGOkUTXjW/x63SJBx4fwSbs7di9ZPVCM+MQEB6CJY/8MdiulfCU5+h4OZgbA62ZAq2AQSDGXQh+rKMwiCvRsNjBjYOBGYMPdpeSPpkNIVWKauGqF2ER7VP6OapvTlHEfNkI4UCNwdT2QnbMYWZB4LeDFz2dSH8vBSnuRlYtAhprE96cz9H8uoklfaxswhpNU9wseA69r47aDCHiMxIBGeEwS/VuLZBYA93ySLRX06y+9IWTGFmgaA3AwKDFeekOJbejQ/V3AzMvUCt/XqkHJdAQaHpRru6C/WKJlTIqgzmcKMkAcfyzmLzi1j4p4XQTVQkDedyxwWuieRyg1uSB9ySFusup9l9OfOmYFEgtMiGkJjTgy235Fh8SBBDMDKD0LNSHE3rxpOCPpDMhLUnMP/7rBOrYOZQ0FWKZ41vcKv0Lg59OIbtL3diS/ZmbHi2DquzVtHmIiEZ4fBPC8ayFH+aufhSIUniD+wiVmFkEuzPdm4UQlN43vgSdYpGuhGNbEiz5Hy1KBCapUO49VqN9ddlWHTQCAgCMyAwyKnUUBhotLzOwJK/8Jl87S/moARp50Z2WVbJq1EsLkF+ZwHeteTgYe1j3Cy5g+N5Z7Hj9V6sfLIR/ukr9BWSLtQiTJqEwxjF16YQ/2YPUqsf0q3qpCbEkr9DiwKhSTKIGy9VWPuHDIsO6IEQ24lZ8V0gtwncDKzzyWzJCWSO1ybBSe3IILoH1GhStoEZRGJFKi4UXMfh3JOIfR2HLc83YcPTdVjzZDVWZcUg6lE0VjyMQGD6CrrXYnmKHzzueRnOYCSftF9sglmF8WjbhsFMgXS0Ik1sHlRloEpWY1FTsC4QdnbQJiksZsDNgAOBAGX08yhoxmJkCL009qAziBZVO40/VMlrUCYtR35nPt415+Bp/XP6iXm7NBGnP17C/pxj2PkqHqtI49gH/jQmQQ5mZVkNlzsLobtYjMJVXychiFXYnGHoTIG0tyNQ2PUqlkKBlJJbyhSsCAQxfo3twrz4LgSdluBIKo8ZmOPT1Zleg9U9dKjFqFc0o0hcjlfNH5BR8wR3y1NwqeAP7M85hB2vYrH95S5sfbEdm7M3Y+Oz9Vj/dK3BLMjuzYjMCKx4GIagjBXwTw+FX1owfB4EYGmKHzzve8MjeSktKtK1RBvPNIytYyp/NmEq+pgIgZtLoisCqCkcQkbNY7SpOyhECUzNOQesA4Srcrjvl2FuvAzeJ6SIv6fA6/J+HjOw8ToDc040c7wWq3voH9KgR9tHm7pI+uToUHehVdWGBkUjKmVVKJWU0YvFJnLb8vCm+a3BLO6UJdMaiTMfL+HQh1PY/fYQtr/ag/XPdyAyax0CMsLhleJL+0qS/pLfmgYzDuEoNBBmIuONJkxFbyzkuDjyb/C8t4RC4fD7w/T/R26zyHtijveWvYZFgUDOdcwQ9eJgihKR57vp+Y57kpVIyetFm9yy0VL2H+Sj896WsNgEvQ3p7wYzizJpNT52FOFNSy4e1WUjpSoTd8of4FrxHZzNv4ojeb8j/u0+g2lse7EDW7O30BjG5ucbDcax7skaGF8strHy8UqQi5lI2MNwGF/ETILTQxCUHqy/QmhdRlBGOALTwxCQvoJezFzIHhFy+aUGwj81AHvf7kOxuJTGXewKCOyglieFfbj8TI3rL3qQWz1AYUAOguWL1XkXqzV+9yw2MTQyDO3wIJhZKAfUUPR3Q9onR2ePGG3qTpB4RWN3C03vVctrUS6tNJhGqaQUJeISFHUV0TgGM44Xja9gfLHYRnJlKsjFTORSwTUYX+c+XaFZlCMfTsFw5f5ObWVfznHsyTlKL2YuW17uBrm2v4rH7rcHaBamsbvZ/m4ZSBMTec8w6roG8aFKY2huYo3JwP8ODhtzzwGhcUh75TC+mIFUyetBLmYiH9o+wfh62yLC88a3yKp/+dVFbCWj5inSarLoxczldlkyyEUshjxHztQgXa3M/f8jr2fRW4aR0c8gUOjRjIA0XCXnNPBOR3yhWmIiW+M1hcYxMKSF8cUMRK3tAbmYicj7FTC+pH0KWofR1SOB8UVshcRDSHUnudr05tKsbAO5iMWQ5wgMSFcrS/yfLQoES/yD+WtyoPA5YLk5wIHAI/0W+aThi9Zyi9aS7y0HAgcCBwKfA4Y5wIHAJ4NhMljyk4e/tn0YAwcCBwIHAp8DhjnAgcAng2Ey8E9x+/gUt+TviQOBA4EDgc8BwxzgQOCTwTAZLPnJw1/bPuyDA4EDgQOBzwHDHOBA4JPBMBn4p7h9fIpb8vfEgcCBwIHA54BhDnAg8MlgmAyW/OThr20f9sGBwIHAgcDngGEOcCDwyWCYDPxT3D4+xS35e+JA4EDgQOBzwDAH/n9Ytj5rfrYC6wAAAABJRU5ErkJggg==;" parent="GwdNWeb7kluTHXHWdRGs-1" vertex="1">
          <mxGeometry x="140" y="-2890" width="30.71" height="30" as="geometry" />
        </mxCell>
        <mxCell id="GwdNWeb7kluTHXHWdRGs-63" value="" style="shape=image;verticalLabelPosition=bottom;labelBackgroundColor=#ffffff;verticalAlign=top;aspect=fixed;imageAspect=0;image=data:image/png,iVBORw0KGgoAAAANSUhEUgAAAQQAAAD+CAYAAADcdnvBAAAgAElEQVR4Ae2991fT27rvf/+VO77jnnvGufucvffae+2yml2KiKj0JlXsvYHYuy57W1YERaSIYsGOQpTeey+pJKGE0Pzt/R1zJjPGj0RaElLmD58xTYCoYc5XXp/neeYz/9fnz5/BL/4e8DnA5wCZA/+LTwQ+Efgc4HOAzQEOBG5I3BD5HDDMAQ4EPhkMk4F9SvDReY2BA4EDgQOBzwHDHOBA4JPBMBm4GTivGbDfPQcCBwIHAp8DhjnAgcAng2EysE8JPjqvKXAgcCBwIPA5YJgDHAh8MhgmAzcD5zUD9rvnQOBA4EDgc8AwBzgQ+GQwTAb2KcFH5zUFDgQOBA4EPgcMc4ADgU8Gw2TgZuC8ZsB+9xwIHAgcCHwOGOYABwKfDIbJwD4l+Oi8psCBwIHAgcDngGEOcCDwyWCYDNwMnNcM2O+eA4EDgQOBzwHDHOBA4JPBMBnYpwQfndcUOBA4EDgQ+BwwzAGrAGF0eAjDfb0YUinHvIZ7VPTrw/19INeIph8jAxqMDAx8fWkHMDo4iNGhId01PIzPo6OG/wz/ZHPeTzZn+N2PfP6MwdFRepE/W+L/bBUgEBhoWhrRW1k25tVXW0m/rmlvBbkGOtuhlXRBK5N8dQ0qZDqg9Kox1KvGsKYPowQKFnpz+OtaZtLx93Vq7yuBgWpomF7kz5Z4Hy0KhBGtFoMKOfqqy6DISoXkztUxL+m9G5CnJ0KemUwvxeMUKJ6mQ/E846ur+8UjKN88hTLnOb1Uua/Q8+k9egvzvr6KROgrzUdfRRH6q0rRX1uJ/voaaBrroGlugKa1CQNtLRjoaIO2q4PCZ1AuxaBCgSFlN5ixjGg0GBnU6qBjoV+AJX6p/DWntuBs9X3rHx5Be/8AKpS9EMmVKOpWQzqghXZkBCNmnpcWBQKBgSo/D+KEy2jaGo7aIJcxr7oQV9StWIS6MA961YcvRn2E57dX5BI0RC1FQ7T+Wrkcjat80Lja96uraX0gmrdHojV+PdoO70D7qX3ouHgCndfOoev2ZYiTrkOSkgDZw2TIn2ZA8eopunPfQlUgQk9ZEZixDIg7MahUcBPhBmaRT+OJAojAILVNguNVzdhdUo+zNS3IV6ig0A5SKEz0dSbyfZYFglyK7ry3aL9wFDX+c1H28/9G2S//n8Wv8tn/iUq3H1Dl9ROq/eejJnQxaqN9ULc2CPUbw9C4LRpNcWvRvHczWg7vQuupvWg/fxSdf5yG+PYlMGNRPElF9+ssUBPJ/4De4o/oKy34Yh51VfRWZ6CzTW8ZMgwRgPSodXEQEu8YGZnRyTSRScC/xzaNQjM8gs7+AbyVKHCoohHhogr45pRgc0E1nnbK0NavQb+Zb5ktCoTh3h70N9VDlnYHdRGeKJ/1Hyif818on/cni14V8/8bFS5/RaXb31Hp8Q9ULv6n7vL8J6qW/BtVS39G9fJfUe0zC9V+cyisCLBq/OejNnAhmLFQU4nyQkOMNxrX+qNpUyiad0QbzKPj3GGIE/+ALDMFipdPoMx7B3VJAfrqq2kcZFDZjZHBQQ4EbhhTmgMEBpkdMmoG6/OrEfShFN7virEhvwqprWLUqHuhHhqa0mub+hCwKBDIYiCLQv3pA9qPx9HbgSrPf6Jiwf+gYuGfUbHwL9a5FvwPyuf+F8rn/OfY1+z/i/Jf/49JcyFfK5/9f1Ex/0+odP+bzjz85qI2wguNWyPRvH8LWo/Ho+PCUXTdPA/p/VsgcRDl6yfo+Ziji2dUlqDfYBTtNFhK4xV9fRQa3CRs81Pa1MKx5PPMDN5JFDha2YSYj5UIzSuD//sSLLdnIJBJTqEgk6C35BMkCZcoFMji1EHBSkAg8CEQIuZg6vqOtVTM+5Pu5xb8mZpHhesPqHD9KyoX/R1VS39Ctfdv1DZq/OagNnAB6kLcQOyiIXoZNYvmbRFoPbAVBqN4nApFziuoSwuhaW2m0OQmwYHAIMPMgMBg1cdKBHwoReCHUgMQ7PaWgf0HSWqQpAh7S/PRcTIedeGLqbpTSyAL1drGMF0zERqHCcMwmIXLX1HtMxu1kcvQuC0KLQe3o/3MQXTdugB5xl10v34CtegdNQmSESFZEJJ25QbhXJAQmkH0x0r4fyiFT04xhQEzhC2FNXghVkCs0YL8DFtn5hgtestg+AeOjtLUHakjIFCQ3rmM+qhlFARU5a1uDNM1kzGMYwzDMJjFwr+gctGPuvjFsl++tokVi1Cvj1OQzAjJiJAsCMl8cINwLiAIzYDAgECAXMQSHAcI+qCSwRTKCtFx5gDqo5aCxhTm/T+9kls5tjBdU5jszzOzMGEU5DakJsQDDdui0Xpij8EglG+eoacgD/3VZTSroZWKMaRW0SpOHnuwf2iMZwbkdsH4lsH+DYFFmQ2mIEdvWSGkd/9AwypfVLr+FRXz/h8N/Fk3tjBdU5jszxuZxVhGseDPOpPw+je1CBqPWLEIDat8QOIQbUd3QXznKhSvn6G3upwGJkl5t8HE2PvMR7t6T8YzA8cFgtAUKorQdfEoGlb7osrr3xQKNOhnbzGFyZqCqe83YRCsrqImYAEatkai7dReSJKuQZH9EOqPObQac6C1CeSWbLi/n1dW2gkQJ2oGDg8EsiGJ3D4MKeTorSiC9N51CgXnMQVTZjG2QRjqKkgcYtkvtG6CZjJIFmNDMNoObYfk3k0oRe+h6WjjlZV2AoSJmoHjA+EbUyhG56VjqF/jx03BlD2Q5wUGQQq9CCyq/eaicecqdFw+AcXj+7qMRUUxiDUMdSt4rMHGADEwMgLZgBa5sm4cr2yGMJvAACAcWVBxa2ENXkkUkAxoQV7LnLeM1skymPqFsJhCtwLq6jKIU25TKHBTmJhB6G6v/oxK9x9p5SWpsiR7QEhFZeuRXZDcvY6e4k881mBq/s3Q8wQGpOjocm0r1udX0dSicTZBCAL2mAFhW1EN3kgVkNvbXoaJkmtkZARarRaq6nJ0XD6OhrX+qFn+MyoX6msUnDWm8D1bMP6awBxIfQfZw9G4PRriG+fQ/fIxekvyuTHMEADYOmBm8EmuxJW6NmwrrEFIbpmhzoAtfFOjMRDeSRVQDNrZ5ib2Row3jo6OgkJB2U2hIElLQMuWENQt/SeFgvUrG019Qtvq81/HHmimhm7u+jfdm9G4LgCth3dwY5hhIDAzIDDYUlBNYcDqC1g1oikYkOedBggMGMwUeuurIE84j/btYajz/Y2bgrENTOTP4xnDqyfoqyiBVtyBIdKhamQEBMrs98BH89Y2TNcMGCScDgjMFIZ61NC21EP1JEUHBW4Kk9wE9n1jIDEGsq9C/uwhetua6e0agQIHgXlBwN7P6ZqB0wKBvYFsJFBQJF5E2/Yw1PrO0u2QtMe9DxP5VLfk9wiMgezYrItajpYjsZA8vAdlySdoOttAtquTfpXs/efj9ABhLjMQAmF7UQ3eyxRQkt3EZgb5zGYZxrmnG+nroabQ/eQBmrdH0T4GJGDGYwqTjWUIjGHhn1G5+B+o9p2N2vDFaNm/ibas62uopVDgIJgeCNj7Zy4zEAJhZ1ENPsoV6BvSYnjUvGZn00Bgb+xASyOkiVfRtD0KNb5zuClM1yYExkAaxbQe3gnZw3voLSvCoExCaxfY+8/HyQGC9DpUDAyiQKHC1SlkExgAhCOLIewqqkG+XAHNsJMCYaSvFwQKiidpFAqk4xE3hclagvH3f20MpN0cgQKpeuy8cgrdOS8pFDgIJgcC9n4RGIhkStxq6DCkFieTTRCCgD3mQBDcUnwxhWjU+M1FhYuues/u+ilM9xPe3D8//79pe7tKjx9RvzaABhyV77Jp3QKBMZvofPw+IJgZFCnUFAZxxXVYkTfxOgO28E2NBAikN0JccS2KFN3QjgxixBlvGdhENJjC03Q071qFKu/fKBR4TMH4038KfyadoEgnKRJb8PgRtSFuaI5bA+nd6xQK7P3n4/eBYGwGO4pqKQzI4iYLeSJ1BqZAwJ5nlrGvtB7l3WoKg9HP5k0X20UMQTgRSY0+mazNsatBdgBWuP3tS1zBmr0azf1JPdOvpzcF0juyavmvFLrkfAxiZtwUTMPA0mbAgMDGA2UNqFRaxtzsEgjUFFqb0J2dieY9G1EdsJBCgZvCFOzAGELMFGjX6r/Q27Km7dE0oEugIAQzf6yDhKXNgIGAjRwIglgCm4gD7S2QpSWiee8m1AS5clMwXtzT+bM+C0FuIUgAl6R8SepX21yHYbWS91vQz0drmwEHggkQMCCM9PeBQKH7ZRaFAjeFaRqCASL6LIR+UxkpCiPFYYqEc+ivKeP9FvTz0tpmwIEwDhAYGL41hR++tF0nGmyY6OZaME7yOnpTILtOyUazti0hUKQloL+6lPZZoAftOuEeiJkyA3JQC9kdeaSiEdUqHkMweQ/7jSn4z9fVKegbiHAgTBVgX0yBQsH3VwoF+c3TFArOevr2TJkBgUGUqAK/V7egVt1ncj2wD8qpjHYZVDT1HzWYwp5NqAlcqDtUhR3Mwk1h6qYkNIWtoVBmJmKgvgLDKoXTxBQGR0ahGhxCubIHCY2dMHedAbslMDWuyCvH6vwqnK9tRX0PB8K4RDSYwuunaDm4AzXB7hQKrNUYNwXzmEKD/2yI42Ogun9VBwVNnw4KE7zFMwV0W3+ewKBC1Yu0NgniSnRFR2TxmqvOwBQI2PNhonKsL6jGpbo2NPT0j7sepvJ+OpQhsDdA29kO+aMHaDm0EzXBbtwUzBVD0ZtC9aIf0By6AJID66B+loKBhioMq7od1hSYGVSre5HeLqHnLRJ1ZycqsQVr6TFCVIGtRbW40dCBpl4OhAkTcUTTDwKF7rfP9VDgpmAeO9LFFMjeh9rlP6MlxguyI5vQk35DBwUHNQVmBgQGe8vq6X18UK71zICBZqWoAvGl9bjb3IXWPs2E1wP7oJzI6JCGwP7jzBRaD+9CbegiVJKKRpJKI3EFHlOYekzB9Qd6oEy9/yx0rVsGxe870JOd6nAxBVsxAwYEcvDrofIGpLWK0c6BYLp0lAFAODJTUOa8RNvJPfSwVQIFHlOYaixB/3MufwU5Abtu+c/oWOUJWVwY5Me3OFxMwVbMgAFh9cdKHKtoQma7FORMB+F8N8djhzYE9gZpxZ1QZD+iJx7VhXlyUzBTTKHG619ojXCDeMNySDb7QnFiK3qeP8BAXTk9hIcccW+PZ08OjY6id2iYRvIz2qUzFjNgIGDjmk+VOFHZhMcdMg4EtrinMo5oNCBQUH14TaFAjmXnpjBNS1j4F1Qv/hFNQXPREbMY0i1+kMdHUigo711Cf0UhBpXdIFCYyu9sJn+GwIAE7Z53yXGgvGHGYgYMBGzkQDBzGoubwvQhYBycrFr0d9T7/ILWcFdINvtBvjMIsm3+kB/dBFVmIvrLCzEkl1Io2IMpMDMgMMjukuNcTQtiPlZaPZvAAMBGtu159adKnK5uoaASa7QWAa1T3DKwTxtuCuYFArGsaq9/oTF4PsQbfaDYFUyhII+PoFBQJl2gULAXU2BmQGBwuKKRwiA4t8xqdQYMAMKRNUYhQUVSg5Aj7YZswDLm5VRAYGBgptB+ah/qIr1oUxCys49nHyYJDEG2gRgCgwIxBcXRTVBn3kF/WT6G5BKbNQVbNQMGBgKE5e+KQYDwR0M78uRKeowbm8/mHJ0SCAZTEL1Dx4WjtG0Y6RTEsw+TBIIw20BuF4ygoIgPh+LwOqgSzlAo2Kop2KoZcCCYOWYwHjlJd2HSULTj4jHUr1zOTWGK2Yfapf9G+0oPSLfqgRAbAgW5dgZCvsWHQqEnMwGa8gKbiinYuhkIgUBiCDcaO/BJoYJCy28ZzB5EGRkYoN2F1Z8+6KCwNoBCgZvC5EzBJBB2BVMoKOLDoDy2Eb13z1Mo2Iop2LoZCIGw9lMVEps7UdKthnLQMgfqOOUtg9AcDKZw6TjqY7zpISY8pjBxKNR6/Qttke6QbPKFfEegzg6YJZBxVxC6d/hDdXwjeh/d0ZmCTEzPfpiJ7IO9mIEQCBvyq5DaKkaNuhdqC52wxYHw+TOdmAQK6vxcdFw5hfoNwRQK3BQmBoUaz3+gOWQBOtcshWxbwLdAiA3WQSE+nEKhJ/Es+otE0M7QgTD2YgZCIGwuqMbTThna+jXoHx42uzGTD0oOBKO4xaBciu7cN+i4+jvq1/ijasm/dGc/8L0P3933QAqUGgPmon3lYhpHoPEDY0Ngf9abgvLoeqhTb6CvMBeDkg6rmYK9mYEQCNsKa/BGooBcqwXp2iQ0XXM85kAwAsKIdgAECuoiEbpuXUDjtkgKBW4K3zeFao8f0eg/G+3RiyDd4j+GIeiDjHpTIDEFxaE1UN06SaFgLVOwNzMQAmFHUQ1EMgV6h7QYMvMBLQwmHAhGQGBvyqBCDlV+HrpuXUTDugBuCuNkHwgQGvxnoS3KnZYwmzQEZgos+3BwNVQPrlncFEZGR+knKtkh+NKGKhDZgh9vZHUIu4prUKhQWOTEJjb3ORDGAMKIVgsChZ6SfAoFbgrjG8KkgMCyD3GhUBAoWNgUaFNU7SA+ypV0cxApR7aFCsTxQMC+zoBAjnAr7VZZ5MQmDoQxQMDeFDZyU/g+CNi+hkkbgpVMgZmBRKOluXvSB3Hdp6oZ35vAFvpER1a6HF9ST/s5svlpiZEbwnfAwE3BwkCwsCkwMyCFPGeqWygMQm1gb8JEQcC+j21u2mfBI9wYXDgQvgME9iYZTOH2RTSsD0LV0p++9GnknZcwZUOwkCk4ihkwIJDbG9Jx+Vhlk8XOY2BznQNhAkAwmEJpISSJ19AUu5pCgWcfdAYxbSCY2RQcxQwYEGj79U+Wbb/OgTABELA3iY1DSgV6SgogSbqOxo0h3BT02YdpA8GUKRR8gLajFcN9vRgdHr9U19HMgAHBGt2W2RznhjAJMIwOakGg0FteTKHATcFMhsCAIDAF5fWjUL/PhqalkUKBTVpTo6OZAQOCNbots/eUA2ESQGBvmsEU7l5H4+YVqF7+Kypdf3DafgpmMwQGBlansG8lFAlnoH73DAOtOiiMZQojnz9jcHQU0gEt8hUqeqqSPWYTGADYyIKJJE16rLIRjyzYXJXNbQ6EKQDBYAqVpZA+SEDL3k0UCs4aUzA7EJgpEEDsW4nuKwcpFEyZAoGBamgYRd1qnK2x32wCAwEbWbqRNEa5UNuKt1IFhR5bvJYYORCmAAT2ixhSq9BbVQ5p6h00bY0YwxT0h6WSvRDz/qS76L6I/6GH0bI8vr2PBAgTK11mJcwTHMcxBWYGpJ1Ycbcaic1dWJ9vf3UGDADCkRUkWaMPApvTHAjTAMLo0CAIFPqqdVD4xhT0R5+Vz/6/KP/1/+gu8ue5/6U7MGackmB7AcWENzexW4KJjuOYAjMDAoPzNa0UBqF5M98DUbiwp/qYAcEafRA4EKYBAvbmsdFgCmmJaNoehRqfWah2/xvKFvwF+a7/QJ77z8hx/w3vFs3CB49ZEC36BYVu/0SpCzlJ6s+oJNZgx+ZA27EHknbsnt/f7ThREAi/T2AKqnfP0N/SAFl3N0rk3bjX0oUN+dV2V4E4HigYEMj/jRwwS46A7xmyzLZnNpe5IZgBDAZTqK2E/FEK2o/spApd4vojXvh540H4GtxeHYub6+KRtGo7HoZF4623Bwrc/43KeX9Czez/QOWc/7Rbc7A4EASmIL98ALI3j1FcWoIrpdXYWliD8LzyGe+OPN4Cn+zXGRC2FNbghViBLo0WmmHLbHvmQDADCNibyMbh3h70NdSi83E6CnduQlZEJG5sPYKT+25j/7GH2HviMQ4feYCz8X/g9sY9SIuKwfNAX+Qsc8FH959QtPAHlC/4H50x2FEF5PgNUiYYMxCagfCx3hRke6MgvnkS7x89wJ5XOQjKKULg+xJMdsHZ+vczIOwoqkWuXEkDp+Q2ic03S4zcEMwIhtGhIRAoNNW2IOlBLvZfeYvNt0qwKrEeUfdaEJXcipV3m7H6Ti023CrB9ss52HsiA+d3nUFGWBRyvRagfMFfUDPnP3VQsJMYw7gt1IQLe6qP9aYgjw0BgYLo7F4cSEtH6OuPOih8KHUoKDAgxBbXoUihpqlVEki1BAjYa3IgmPEN7h8cRbtqCK8bNTj4ToWIxyoEZvXD94l2zCsgU40Vye3YfDkPZ/b8gXurtyE7wA+iJXNQ7Pp3XVzBDmILpMkqiR/QU5tIG/apLviJ/tyOACg2L0fh3tX4PeEWVj97ixVv8x0KBsReWB2CNTY1cSCYEQTszSQwSKvooTBY9awXAY/74fd4AD5Z2jEvv8caUCikirE6sRY7Lr3HkYOJuL02FjlL5qGcxBXsILZQt+wn2k+RnclgcSDsDIRiqw8q9sbg9rXz2J3xCNGvRA4HhJDcMpCy5ZNVzahR91nUDNgc5oZgBjBohj5D3DuKnFYtDuWoEfFIRWHg81iL715ZX5tDULoCMbersfdYGhJWbcEL70UQuf0TJfP+G2WkjoHawp+/299wJlKV5Fj4rnXLLG8GzCB2BqJ7my9q9q5EyuVTOPQgFate5jocEMJF5dhQUI0r9W1o6OnnQGDUsvWRwOB50xDOFGix7mX/FzMYDwjk60b24P+oDwQKUUmN2HTpA07EX8Gj4EB8cv0HSmb/l82eLMWBYJnYRbSoArtL6pDU3InWPg0Hgq2DgJlBXscwzhZqseH1AEKejmMF34OE3hj8HvfDP0OJtdeLcCH2DDJWhOHd4jkomPdXlM+3nSxEpctfUeX+dzT4zYJ4vbfVDaFy3yokOOAtA4sdWHMPA1tr/JZhGrcMzAwIDDa90VIY+JNP/O8t+vG+RqCQNQAChZA0GdYkVOHAiXQkrdqKt8sWoXThDzaThSAwIHbQssKFHtJi8diB4Jah+OA6nE687XBBRZJd8MnRHe5qrT0MHAjTAIHZzUAICUFsYeXdJhw5koykNTuQs9wdZQt/QKUN1CtYbA8DW/gmRvmuYMh2BkB0dCv2paQg2MHSjizduOZTFRKaO+k+jW4LHd3GQMBGbghTAINFzGAMKLD4QmCGEgQKe04/0UNhEYXCTNcrWGwPgwkQMAORxoWibXc4Xp2Kx460TPi+LaRVirZeaDTRfx8DwqaCajzqkKG5T4M+C53UxEDARg6ESQDB4mYghAJ7rDcGoSmQ2wcSU5ip7IPVKhQNgNAdCdceH4Hiw5uRfOU0NjzOdsg9DOSWgVQo5ki76UnPpPkLW7SWHDkQJgEEq5gBg4BwzNJCaAokpkADjbP+QwcFK1c2Wq1CkQFBfxRc3d6VyLhwDMeTk7Eq+73D7WFgQcU9pfUoVqjpITOkPZwlQcBemwNhAkCYMTMYAwqk6tFgCqu24a3nfBTN+RPK5v23fku19eoUrFahuCsYpOhJtjMIkp1BKDi8GZcSbmJL1ktEvPnkcPUH1uyyzEDARg6ECQBhRs1gDCgwU9h/8iFSI2KQt+hXFM//i9V3S1qrQpHCYJs/OnYEoz4+Gi/O7Mf+9IcUBiE5xQ4HBGt2WWYgYCMHwneAYDNmMAYUiCmsulOL03v+QHp4NESLf0PF/D/R/gqWrla0dv0BBcJWfzTEhiPneCxu3LyKTc/eOBwI2K0CKVeOLanHneYutFipIIkD4TsgYG+OTZnBGFAISu9GTEItjh65h5ehAah0/5vuABkLxxKsXn9ANkxt80PZ/jW4evMKtj16hsjXHx0OCKz+YOXHSpyuaaE9EMgxdGw+WmPkhjAGGLTDn6HQjKJAPIzzRYPTr0AULmZzPs7SYsOtMiTsOIScwGUo9viXxfsp0IYoQXPRscpCHZJYEFF/fLw4LhR1e6Lx7Mw+xKdlOPx255moP2Cw4UAYAwgUBl3DSKwYxI4cM1UgmhMC7LX06cjwlE7svPAGV3ccR+6yhRavZKzx+hdaI9wg3ugD2Y5Ay5Uss6zCnmg8On8YvyclYt2ztw7fEGUm6g84EMYAATODMukw7lYOYn+uFpHZ0yxFZovXEqMeCKyvQtzpp0iJXkf7KZS6/t1ipmD57IKu3kASG4Km3RHIOb4LZ+8kYNOTVwh3wKwCK1hitwwzUX/AgTAGEJgZEBjEf9DBIOCJDQOBQCZLC9ZXgcQT9h99gIS1uygULFXJaPHsgt4MCAxeH4vDtT8uY0fmMwqDYAfMKjAgsKDiTNQfcCAYAcHuzEBoG3pTYP0UjhxMwrNAf5Qu/BvKSW/GBeY5B8Ly2QWdGUhjQ9C6OxyiI1tx8+pFxD94iOiXeQ4XRGQgYCNpiBIlqsCpqmbaYZktUmuOPIbwWR9A7NLdJtiNGYwBBdZPYdvlXCSs3423yz1Q6PKj2eoTLJ5d0JsBgUHe8Z1I+uM84tMfURiEvit0eCAQGOwqrkVCYweae63TEEUIG6cGgt2bwRhQoJWMSU04cjgZd2O24sPiWbQNG93vMM10pOWyC1+bQf6RLUi6dh6HUtOxygnMgN0qkCPbTlY14UmHDF39A1ZNNzIwODUQ7DJmIISA8DHZ85CuRHRiEw4dScZzv6VmA4LFsgtCM7h2HnszMikMVjiBGbBgIjmh6WZDOz7KlXRDE1uk1hydEggOZwZCKJDHpD7heiES1mynDVtJF2d6QtQ0znswf3bhSzahMT4SomPbkehEZsBiB19td26Xoqm3H70WPqHJFGScEggOaQbGUNAHGSPvtWDP8XTaxZm0dp9u1sHs2QW9GRAYvDy9B9du/4H4h1lOYwZCIOwsqoVIrqQwGLLS7kYhGJwKCIPDn6HUjKJCNoJ7puoMjJqesgYlUxqNF6i1//xN1iGRnvdADoEhJ0NNNutgtuyCftci2ZtArs5YXQXiu5OxuJpwDbGZTxD12vHaqbOFb2oM+lCK0NwyHKloRLWqd0ZiBwwMTgUEAoMS8TBSqoewJ3eQFh19VWegX0imDlaZzPMUItYGgfHfl6UFyzqQ8x7IITDkZCh6XMLQK2UAACAASURBVNwkT582V3aB7VqUbvWnh8JWxa/Ew3OHcTYxAdsfP6cwCCHHsjnYCUzj/X8iReXYUVSDWw0zl11wKiAwM6iUjVAYHBINIuqFUQv0x1p4Zw7A+yG5NF+uDA2Wp/Zj2YO+CV3ke70zNPRanq4BvchrZg7A55G+wMmUgRgvZnP9WQ+4VYl1OLXvJlIjVkG06Gd6sOxksg7Tzy7oYgXynYEQbw9E464VKNq7Bo9P78fJpESHr0A0BQSWXVjzqRJnq1vwoksOa29mYiBgo1MYgrEZ7M3VwSDw2ZdDUnweD9DFuzSlH0vu9mJJYg+9Ft9Ww/2qEq6XFBO6yPeSnyE/73mnB0uSeuF1vx/L0jQ6KHzHQCxmFFlaBKXKsfpmGY7vvY633ot0p02TQ18mmIacdnZBHyuQ7QhAW1wYREe24Y8bl7A7LYPuTSDlyI5cgWgKCCy7QPYukOPeyelM6hkKJjoFEL4xgzwtIp9psTxjAMvS+rE0pQ9eyX104XrcUsP9mgqul7vhelFBr4XnFJh7XIY5h6WYc8TERb6m//q8EzKQn2E/T16LvOaiW2osTtADIrmP/r3EOgxGkamBz6MBXft2oUGYwRZ8M/vhn67EtotvkR4ZgyK3f6FswV/G78Xo8ldUuP5AW62TnY2TP7vx6/qCiv1r8P5kHO5cO48dmU8cdteiKQAIn2eGEFdSh/cy6/ZOZAAQjg5tCEIzIDDwz9Bgyd0+ulAXnldg3ik55hyTYfZhKWYdlGDWfrHuOijBbwck+HVPF36J78Kve8T4da/g2iOmX2Nf/22fGLMOSL55ndmHJPT15x6TYf4pORaeVcDlgoLaBzEKr+ReLM/Q0FShME5hDnPwfaw752Ht7Qpcij2HrKAQfHT5x/gnQbn+gMpFP6LefxY9qo3EABTkBGbD9uRxjnkX1Bfcv3oGx1PuY8vTV4h8LXLYXYvChW/qMTu78XhVM8qUPVbtnSgEAXvskEBgZlAhHcb9ci32v9VgRUY/PBN74XGrB66XlRQEBAC/7BHj57gu/BTbiZ92deiu2E76nOF59nh3F342vtjPCb/Onmevpx9/juukYCHQIACiRnFWAbcr3bpbDXKLkayLVyxP79fHMvQxCGIKxvYwGXPQ36pE3O/A7rMvcW3zYdqLsXyc5qyVbn9Djde/0RS8AOKNvhMAgT5WsCsYpFU66Y5cuzcGH47vxJ3rF5ym8tAUANjzzAwiROXYWVyHhKZONPda56g2tvBNjQ4JBGYGBAZx2X0ISlLD41I35p2UU/UnC5J8mlMYxOsXeVwXyILVXUYLnz5v9NgYCOTPpr7+1evpX3e3zjZ+iRcbjENnFWIQi2AG4XJRAY9bKhrPIHENEpwkcQ5je5i0OWRpEfBQjfDkDuw78RDPAv3GvWUgB7GQY9raIhdBusV/fCCwWMHOAHpuAmmVnn7xOM4lJiD20VOnqy9gABCOLHaw+mMlLte14b20G7KBwRlNNzJAOBQQmBmUi4eRVKhBfFYP/G8pseCMgn4iE+0nC57YAF3IwsVt7ccCk2AGQeyB/JtZDILEN2iAksUf0vppHIRmLyZrDllabLxeiLtrd0DkNR+lrj+arGCs8fwnWkIXomvtMsi2BXwLBKO6AsXOILBdiixWcP/qaRxLTnbaLIIQBOwxA8KWgho8muHKRAYCNjoUEJgZEBhsSlJi6e8yLDisswECA3KvT5WffHpbe/Gb+vuMTUJvEOTfSuIXNKZxUHd7QeIcJN5B4h4kUEniIJM2B/2tQ0xiA47vT8CDqHXI9/jVZAXjl1LlAMh3fhs7YHUFsq3+tOch26XIYgXbnrzA6hcfHL6PAVvoEx3ZLUN8ST0+yVUzWpnIQMBGhwDC0MgoegdGUCMewr0CDWLTVPA6KcXPNC5gQ0ZgCgqmnmcGoTcacotDIEHAQOIgHrd76G0FzViQmMNY2QrjWIMeCCseSLDlsggX4s7jvc8i1M77L1TRngl/oanIStcfULXoRzT4z4Z4w1inOutiBeScBNIavSE2nDZAfX1qNxKuX+KxAhOFVQwEoXllWJ9fRW8XGnpmZpszA4BwdAggEBg0SQeRVdSHbYkKLDkuwZw9XfhpVyeFgk3cHpha9OM9bxyjiO+icQ+WzSCpUJK1YDGHsbIV38QaSAVjZi8IFPaefYoX4SGodv8BpDyZ1SUQGNT7/kb7Jko2+41xqxCE7h3+9NAUck4CaY1OuiHvTU3D1qwXPFZgAgjsVoEc805PdZYoIB2wbldlIQCEj+0aCMwMGiVDeFKkwdF0FbxPSL7NFoy36Ozt63pzEMYc3EhhFKl3uKevdTARa/AlbdeeaLH5VjHubd4NkY8bStz/Ydjj8G3sYOzsATlBiRyaQs5JIK3RQx3sFOaJ3gJM9PuYIWwvqsXjDtmM7moUgoA9tmsgMDMgMIi9o4b3cQXm7ZWMnS2wt0U/3r9XHwf5qgbioARzjo4fayAw8HuqRUxSA04cvIOUlRuQRxqp6Pc4fBM7MJE9uJBwC/vSH9JDU8g5CUFkH8L7EqfbizBRILC6g6OVTShUqG0qdmDXQBgZ/Qzt0Cha5UN4VtynM4PjCvy0S4qf48S2EzAcb1Gb6+umYg0nx441+GRq4Js1gNB7rdh4/BEOrd2D254uSJ/zZ2TM/xteLv0NFauWoW1HMLpidfUE5IDVokMb8ebkbty7chpHefZgwuBjZhApqkB8aT3utojRauUTmdiCH2+0S0MgMJD3DON9lQbx9xT0NkFnBk4IAwYV41iDIVvRhVn7JbT2wjjWsDS5FwQKfklN8D2QjIConQjz8ETU7J+wct6v2Os5Hw/DvVC0KQC1seH06HVy2vLFhBuIT0mlR7DHZL/n2QMTsQKhMbDYwfr8atxt6aJVicrBIZuoOxACwi6BoOgZgah+ABefq+F/ShczoAVFbHE4+8iMQVAhOVtf3+B+RQHPW1J4nv8Et82nscA/GvPcFmPe3LmYP28eAt1dcMTPA4mrg/Do4HakXDmNE8QIsl4i+JUIPjnF9Ah24cTnj0u/sgZmBuR9WZFXhgPlDcjTt0fTjoxwIAhpNNXHNV1DOJmlRuB5GRbsI9mEDl3cwNlBYPz/N1XfsE+M2XubMTe+CPM33oWL30q4uLlg4cKFWLhgAVwWLsRil4Xwd12A6IgwbL3yB0g9wRp9PQGJE5BPPDLZOQC+/x4wMyAwiCuuw52mTtT39NnEngVTa8+uDKFfO4o2+RAyC/oReVWBX0mhkS1VHhovSFv8M3mviDVsrcHP695hVugFLHRfDrc5/4LrgrlwdXGh18IF8zFv9iy4hobDJ+EBX/hThB8zBHKrcL2hHSKZEgobKVF2CCAQGKTk9WJXkgJex5wkm2BOsEwQCC7z52Hhb79gUXAofBNSOBCmCASWVThU0Yg8PQxs9VaBAcIuDGFoeBTq/hF8rBvAvvtKeJ+QYR4pPLKVPQnmXLTmfi0WbCTZl7hO/BLfit/iSzEnPgvzN5yA61JvuM39Ga7zZsN13jzdtXABXN3d4blmA/xTshD8sQpBeeUcDJMEQ8zHCuwvr0dKqxhtNppVYCBgo10AgcCgukOL5A99iL7UjbnxMvy6W7dt2Wb2JJh7IZvj9QzBxS78tFOKn3d3YtbBWsw/kwOP2zfgeSYWHiv84E5uF2b9CpdffqYXgYF7VAyWnjiHkNcfEV7WQqHAYwbfjxkI359dxTXI6hCjsacHvUO2mVVgIGCjXQChUzGMzPw+7L2vxNKjTlxvMBlIGBnBr3vrMetQBead+gjXq9nwTE6A9/ND8ElZC694f3iEusN12WwsXPQzvdxCfeB15Bj8HzxBRGEtomu6EFbcgJBP1fTixjA2GFjMICyvHFsKa/BHfRtqVGpoRwYxMmqbWQUGAjbaBRAq2wdxIFWJZSekmEsrEZ243mAiUIgT64q0mBGczcWihGQsfXgWfq/2ISB3GwI+roX/2wh4JwfA8+xSuMS5Yd7G+fRadCgGAZkZehh0YmW9lEIhqroD5OLGMDYQWFZhXX4VzSgUKdRQaLUUBqOfR20yzchAwEabBsLA4CgkymE8K+5H5GW5bfQwmMiCnInvoRWaZIu3GL/ta8OsQ7WYd6oArldfGIwgIG8TQoqjsKJ8BUJKwxDwKRQ+rwOxJNUHLpc8Me+EG+Ydd4XHjXUIzn2O6NpWrGyQIKZR/tUlNIbQj1UIFVWABNHIGQNCdXb0x8wMyNkK6z5V4Ux1Cz4pVPQ4NlsPIjIQsNGmgUBg8KqsHyceKuFDNi3xIOLYZdnMCOJkmHVAivmna7Do1lMsTf8Dfq8OGowgqHAlQkqiEFoWidDSSATmh8P3dRC8HvrC/c4SLLzujoXXXOBxLwoBOXcQXlZIoSAEgtAYoitaEVNYS48yJ1BwdAAI/38GM/hUhYTGTgoD0k6dwGBkhk5gYgt8sqNNAmF0dBQjIyOo69Ti0jM1oi/L4XZAzIFgbB7G2YP4Dvy6rwlzjlXC5XIBPJOewPvpefh/iEVIcYzBCIJLIhBSGoXQ0mh6BX4Kh/eLQCx56I1F95fALckDrolu8HgQDJ/sIwgWZSCyqvorOxDCgTxeVSfGmvIWxBTXI7yg1mliDcwMgnPLQLY0n6hsMhzUam9mwMBhk0AgMNBqtSio68OOBCVc98sxK55nFQwZFUH2gMBgwfkPWHw3GT7PTyEgNw4Bok0IKliNkJJogxEYw4BAIUAUhqVZfvBIWYpFyV5wv7sE7nc9sSjZG55p4fB9eQzhZfnjAiGmQUahEFPThejqThpncIZYAzMDAoNzNS142SVHe5/GLs3ApoHQPzCMdlk/MkUqhJ1V6FJmzriL0dgI2J+Nsge/7avD7CNlWHjxDTzvJ8D31SEEF6w1aQTMDEgcIbggEv45IVjy0AeL7nkJLh0Ylj7ahNCCbJOxhLFswfg5YazB0bIUpPMRgcHhikZkd8ltsr8BW+gTHW3SECTKIbwo6cWxdAW8j5PNS/ruxmxROOvIYgX67MGC8++x5P5tqvcBuTsoDEK/YwQMCBQG70Ox/Lk/PNOWC2BATMETbknu8EyPRsCHRJOxBOPFP9afhbEGR8tSkDZopPORMQxm6tTmiS748b7PpoDwJXYwgMvPlYi+LIPbASevSDSKFfwS347f9tdj7okimj1YknIb/m/jEVK4GivKIrCiPEx/e6CLETAACMcvsQMfeKQsMwkEjwdB8M4+jKAJxhLGgsJYz5kyB1vNVpAqTVJ7wQwnMr8GGwprcLKqGS/FCocwAwYKmwICix0U1vdgZ4IOBrPoBiYb6pJsTTsRxAoIDFyuvAIBge+LwwjM24bggnUILVmJUBIspNmDL0FDIQjY4y+xg2VYlLz0GyAsusdiCcuxOHUFvLOPIKz00/ixBEF6ciwYkOdMmYOtZisIDEjtBTOc7bWduNLU9RUM7N0MbBIIGu0wxAoNnuYrEXHeyfsc0FiBGL/s7sJve5sx+0g5XC69pKlE/3d7EFK0esJGwEAwfuzg61gCCTKSzMOSh2sRJMpEZFUdVtZ3mg0MQmCYylawT2Y2WsokhCbA/j5SpUmsZn2THLuaFbjQocBrucqhzMAmgaDoGcbH2n5cftoN/1Ok2s5J+xywWIG+rmDBuTIsSU6Cbzaxgq0UBnSRT9AIGBDGix0Ig4sklqBLQ4bA58UpBH98SqEgXMhme2wiW8E+mdloKZMQmoDh76vpolZDYHBdD4PmvgGb7InIFvZUR5u6ZSA9Eu9+6MW2BAU8DzspEKgZkCPf2jHrUD0WXiiC572H8HtzAMGFqxBaFj5pM2BAGC92MBYQSHDRPdkHSzI2wO/1JRpg1FUvyixmCuMBZqImwT7hJzoyExD+/c5gBgwgNgUEsmdhX5oSXiekmBPvhJ2Q9GZAYDD7aAVcrmZj6aOL8Hsfh4BPaxFcrKswnGisgIGAjePHDr6+ZWCxBPd7XhQKS7N2IbTwNaLr2scsaRYuJIs9nqBJsE/4iY7ktoDEN4T/bmcwA5sCAuuiLKrXYs3NbvwaT5qfOFl2gZiBvuKQZBHcrmdhacYl+OdtQXBJmP76utKQLfSJjgGiFfDKHKvuQAiCrx+zWwfPjGgE5iUhoqIY0XVt3ywc4UKy98frGuXY3iTH2XYFXjlozICBgI02YQisi3J2qQZRl5T4OVama6dOUm7WjOrP1N+lN4MvFYd3dVkE0WYEF61CSGmk/ho/g/A9OEwdCLrgokdqMHxeHkDwpweIrK5yeCAQGJxrlSFL0o2GXo1DxgwYCNhoE0BQ9Y+gsl2LO+96EXzaySoT48gORV19wfwzefBMvmNUcTixuoLvQYB8bbLZhW9iCfeWwI2UNN/3hVfmSvi9OYGwkpwpVzDaujkwMzjVpsBjSTcqVL1Q2WjbdLaQzTXaBBC6uofxpKgPh1K7sfyY1HkqE/VmwOoLvFJv0EIjUn78peJwelZAgDDZ7IIQCOSxO6lNoLGEpfB6tB6BuXenXMFo60BgZkBgUNvbT2EwOGIf/QymCwabAEKDeBCXs1VYecWJKhP1ZjDrQC0WnM+BV9p1TLW+YDxDmGx2YSwgUCjo05CLUgLh/fwggkSpiKis0AcYZy7rYC7AOLMZMJDYBBDKWrWIvauA+yExZjtDZaLeDAgM3K49xbKHl+H/PnbK9QXjAWHy2YWvg4pfAKGrYHS/twykrHn5s30ILXo381mHCVZIjgcOZzYDmwCCIbtQO4BVfyic41xGo5gBMQMCg4DcXfq+BeaJGQgBMdVg4hcQfA0IlnVYkh6FkNw7iC4vwMq6VrsNMnIz+Gxo7zajhmDILpRoEHmx2/EPaxXGDMhtAjGD4phJ7UUQLvjxHpsfCPqS5geBCHkeh2jRHaysKrdbIHAzsBEg9GhGUNc1SNurh5xx8OyCUZ0BySbQAOIU9ySMBwD29elmF0wagj7r4Jm8HP7pKxD6Yh/CC55bfK/DeMo/2a+vaZRhc6MUx1pkyJQonCqbwG4RhOOMGoJcPYwPVRqcz1LB76QDZxcEdQYktUi3LRet1rUzm+SeBLbgxxvNkV34HhRIJaPnPS8sTY+C38szlt/rYKZYAQMHgcGhhi4ktctQoe5zqmyCEATs8YwCoUMxhHRRL+LvKuB1xEH3LtB+Bp30kJQ5x0uw+O49s9cZmAKDubILJqGgb6Si2+uwHr6vLmBFca7N1ycwMzjYJEVim8wuzlxkC9bS44wCoVE8hKvZasSwdKOj7W7Ul1+T49PIiUkuV17CJ/uooLPR9OsMTAHBfNmFr4OKXwChzzqQXoz3vLEkcxMCc+/ZfH0CMwMCgxJlLz2A1V6bopobEDMKhKr2QRxKVTnuWY16IPy2vwYLL76FV+pNBIq2Tnm3oqmFb+p5cwcTv4Dga0CwrMOX+oQHiKgo1fVOaPh2sxBTdmuP3Ay+BA9NgWRGgVDSNIgtN1WOfVZjXBfmnizA0vSruvRi0ZoJdzYytdAn+ry1gPBlV6SuPmHZ03iEfHqCqKoaizZUmSxQuBnYKBCGRkbROzCC95UDWHmp2zG7KtN6gzbMOlwD12tP4fdm71dnIkx0UU/l+yyVXTBlCOx5YgqkfwJpu+b3+ixCCrIRSaBAT3+auUpGbgbjg4AZw4wYAoFBk3QQaaJerDgnc7y9C6ze4EA9XK++hFfGVfjnboXwoJSpLPaJ/Iwlswts8Y89sl6MPlicFgnvF0exovj9jFcycjOwcSB0946gsHEA11+qEfi7I/ZOJIfKyDD3RDmWpCTA7+0eBOavsRoQgvIj6BFtSx/7YfGDb7sqj72Yv44LTOd7dL0YF8MzfSX8c24irCQXUTUNVjcFbgYTB8GMGoJUNYy3Ff04namELzmz0cGyC+TAVXLGouvlfPi+OIHgQt0JSsKTkybyaT+V77EVILgn+2JJxir4vfqdQsHanZa4GdgJEBy6/iCuC7/ua8O8Uw3wuJMN/w+76UlKurZn3z8vYSqLf6yfsXT9wXj2QLZKk/4JbncX00NfljxcBf/31jOF1Y0ybGiQYn+TBHfapLzO4PPEwTAjMQSHrT9gacYDtXC5TLY034Z/3jZ69Do5bXmsxWuJ5yxffzD+7QXtn6CHAmmsQqBgLVMgMIiv68DNFjGKunt4nYGtA4HWH6Qp4XNSgnl7HKh3IgHCri7MOlQO99tpWP70JPxFG2g/RNIGzRKLf6zXtF668ftg+MYUMlbRmAIJNNLsAznjwYx1CswM9jZKcKNZjHcSBWQDWsNOPnafzEfTxjAjhlDSosXWBAXm7xPjN0fqf0CyCzul9ADWxfduw/d1PAI+rXZaIJBbC2NTIDEFEmgk2QeSkjR3nQIzAwKDAoWawmBgZIQDwVYNwdH7H/wUK8a/d8gw52gJvNIuw//DVgQWxFgtuzBT9QcTjikkLYZb0mKakvQldQqfniCiomTaex+4GZj+xJ+sDVnVEBy9/4EBCMeLsCzzLAI/bkRwUYzVCpJmrv7g+7cOX0yB1CkswaJkb3ikhmLZ090IEj2Y9t4HbgZ2CoQ+7Sha5ENI/9iPFeccr0LRAIRjxVj28AICRVv0bdQtt4HJOIYw0+nG8UyBff2bvQ+5dxFZ/BYrK8uwsqZxwnsguBmYDwTEJIaHh2FVQ1BrRlDTOUiPaws563gVigwI5GBWelR7TrxTFSSxBT/+qN8lyXozZq7DipcHEZ17G5HFOROOLXAzMC8QNBqNdYHg8BWK+qDinEO1WJbwFAHPiSVsslpQ0V4MgQGD7X0gTVZI56WQpzsR9O4Kgj9mIqw0D5FV5YiqrkN0bTOi61ppCTQpboquaUZkZQ3Wl5dif1kB7jdWoa1XzYOHkwgejhVbUCqV1gWCo1co0uPndnVh/v5W+F+uQXjaU4TkxnMg3DMVY9DvfSCdl5KXY0mKPzxTw+D1eDP83pxEkOgOQgueI6xEhIjyIkRUlNErrFiEoLyHiHp/B3F5N3GnMgstqi4OhGkCoaury7pA6FQM4dGnXuxLVmDZUQfrkEQ6I8V24qddnVhyRIwdCXIcfVGGfUXXsa0qFtHlay0eXJzpCkX2yT/ZkdUruCYtgmuiK9yTl9IToryz4+D3+jT8c24g4EMibb5CGrD4v7sB72dHEJAVizXPd+B30Rl8aMuDuFcCzdAAB8MkwTA6OoqRkRHU19dbFwgtsiEkvlNjy005Fh9yoNOd9RWKBAYECivOS/EgV4nCli7kdhbjXtsDCgVL73a0hQrFycKAfT+rV3An5c7EKO77wuNBIM1GLE4Lp6lKsoOSXB6pYSDNWBbf98PyFF/EZK2iUHje8IJCYSwd5s+ZjjcQGGi1WhQXF1sXCKTD8rmnKoRdlMFlv4MAwcgMFu7rQvA5CU5mKlDe0oteTR8Ufd0oVpThWutN7KqJR0z5elqxSDY6mXuzk61UKLJFPtWRGYNbkgdcE93gmugClzvkWqi/XOhzxCbItfz+csRkrcYp0Wm8bXmPdnUn+oc03BQmaAoEBgq5HK9fv7YuEMrbB7E7VQmPE1J6QpPd73IUmAGBQcLbbgqD7p5BDA0PQzs8CIW2GzU9dXgkeYK4Wl2jFGIL5jYGRwECAYnOGPTZCLpJimyUGvtafG8JhULko2jse38ED6ozKRS4FZi2AuP3Rq1SoaqyEvfu3rUuEIpbBrExsRuzDojxy+5O/BTbCRKIs8sj343MYP7eLvifluJoejfKmvuofhENY2/6yOgItCODqOttxO32JMTW7MXK8rUILgk3yzHvrBbBkYAwGbswZCuSvRCYEYa9OYfxsuktN4UJGoJEIsGLFy9w6uRJ6wKhqEmLtTcUFAY/x9k3DAjMWMyAwODiczXyajWQqYZogIYEahgQRj+PgkBBNdRDofBI8pRCgWx4IlAwlyk4KxBYT8dF9zzhmeyFFQ8jKBS4KUzMEBobG3Ht2jVsWL/eOkAY+fwZg6Oj+FivwaqrpCCpAxQIu+3QDgxm0AFmBgdSlfhQo4G8ZxikPJuBQDiaNoUIs8QTnBcIurQmN4WJAYDNS2Kxg4ODKC0txf59++Dv52cdIBAYqIaG8ba2D9FXyAlNdgoEQ8ygAz/t7ID/KQkuPlNRGHR262BANnCxN1w4mjYF85Q2OzsQuCmYnnvCuUgeExioVCrk5ORQO3B1cbEOEAaGRyHTDOF5ZS8iL9spEIzNYE8nhcGBFAU+VI9vBsJfhtAU4mr3IaZiw7SzDxwIY5vCnpzDeNH0Bm3qDvQP9ZsEtvD35OiP+/r60NzcjPT0dERGRGDunDnWAYJmcBRdqiE8Ke5DxEU7BMJYZvBURWFAiq3IbcL3zEA4scYyBQIFkoacTvaBA4FVRLIKSF1MIfRhOOLfHUByVTqFgvD34ayPSapRlJeHK5cvY0VoKFwWLrQOENgux4yPvQg7b49AIAHEDsyfphkIJ57QFKabfeBAYEAQmIJ+r0T8u4PIbnrNTUGffZCIxXiRnY0Tx48jwN8f8+fNsw4Qvuxy7EHIWfsFAo0ZTMMMhEAYyxQIFKaafeBA+BoIX2IKur0SoZlRIFDgpqCLNZB048sXL3Ds6FEs9fLCv//1L+sAQdk3gtIWLW6/USPotJ21XY/rwoJ9XfD/XYKpxgyEIBA+NpcpcCAIgaA3BX0XaM/73vDPCKNQ4KbwGQqFAgUFBUi8cwfbtm1DWFiYdYCg6B1BQeMA/nihQoA9Hcyijx0QGNBsQrUGU4kZCAEgfGwuU+BAGBsIrPLR495SEChwU9AZAi1ZVihA6hBEIhHevHljHSDI1cPIq9HgwhMl/E/aiSFYwQyEYGCmUN/biISOe9hdux8ry9YjuDgSISWR49YqcCCYBgKDAjkvgpvC1+lJ0imJZBzUarV1gCBVDuN1WT9OZnTD57gdbHu2khkIgcBMoWeoFy39rXgmfYXYyiMIKlhFoTBeRSMHwveBwKDATeFrIJCqWgKFoaEhbR2nHQAAD/ZJREFU6wDBrvogzIAZCMHAHrf0dSChJR2xFUcQXbJxXFOw5+3Pk9m7MN3vZbsphabQqmpH72AfLTMncGa/B2cardJT0W76IMyQGZiacH3D/SBQeCZ+Q6EwninYa4OU6S7wqfw8gYLQFO5WpqGhu5luRCO3b6Z+L478vFWA0CgexNVsFWKuyOB2wEb7IMSJMX+fBP6npBbLJkx1Ik3UFOytp+JUFrI5f0ZoCnFvD+BxQzbqu5uh1vY4pSlYBQi0McoTFcIuSOGyzwaBQJqj7pLC/6QCF56qp1yBONUFP97PTdQUOBDGjyEIgWJsCiGZkSBQSKx8QKFAtqw7mylYBQjVHYM48lAF39NSzNtrY0CI68K8vRJ4H1cg/q4a76sGxt21ON4CttTXmSnsrjyGteVbEV66CitKow3ZB1s+qEW4EG3psdAUdr3Zh/Tax6iS10I5oHIqU7AKEMraBrErRQnXY1LMirchIOhjBt4nJDiarsKzIg1aZZPfm2ApAAhfl5nCK9kHnGy4iPUVOygUWPbBVo9ys6XFb+rfYmwK/ukhWPtsIy4WXKVQcCZTsAoQilsHsemuErMPSfALAYItdEqKE+vM4IQEsYkKPCnqQ5N0EL0Dth9M6hqQIEvyEr83XsLmyl3fmAJPP07+1oGAgpmCG23V5onVT9fjflWaU5mCdYDQMogNd7oxa78OCDPeNk0fMyC3CcQMCAwaJToYDI3YfrpJMzIAAoX3ChGFgtAUOBCmBgQGBdpo5e5ieD/wp1BwJlOwChCKmrVYf0uBX/eIqSHMaA9FYgZ7pPA+pkDsHTWeFGnsxgyEtxCmTIEAYWmWHzxSlmFR8lKY0mT+/NjgcGZTsA4QGrVYe00+823TmBkcU+Bomg4GjZIheptgD2YgBIIpUwj4GArvF/5Y8tBHBwWTJyeNvSA4KFjXZ0+Q2wdnMgWrAKGwUYs1VxX4aVfXzHVZdiAzEIJBaAorCqPh/z4Uy5+Ro9GWc0OYIhCd0RSsA4SGQay+osRPO6X4OU5s/bbrDmYGQiAITWFd2XYQKPi+C8SSDG8OhCkCwRljChYFAjszLr9Oi1WXVfj3DhnIkelWjSHEiTF3jxRLjyqwI0GFrMJ+u40ZCEEgfCw0hRBRJJZn+fNYwjSAwKBAdkkKsw+V8moo+hUYHHacAiaLAoGdGSeq7kPMJaX1gaA3AwKDvckqpIn6QKomSWrRHmMGQgAIHwtNYU3hVgS8DOOxhGkCgUFBmH049+kiCrqK0a1RUSgIfx/2+NiiQBgaHkFP3wDelfUi+kK3dYFgZAZbb6mQKupDdYcW6n7brzOY7kRipnCy5iLWibbBPzsUS1KXg0xo0laMBw2nFkwVxhSis9bgVkkC8jsLIemVOYQpWBQIA4MjkKoG8ayoHxHnrWgIAjPQwWCQwmBo2PbrDKYLBIMpyEUgUFiZuwHLMnzgluSuh8LUFgQHydfZh2Upvoh6vAqnRGcoFBzBFCwKhH7tKDoUQ3hc0I/w893WCSo6sRkIQcJM4Xj5Wax8vooeiEoORuWmMD0gGkwhaTFckzwQ9TgGNx3EFKwEhD6En5dbPu3o5GYgBILBFLry8PvHM/TI9GX3l9Ej1nVQmN7CcGZjIFCgMYWkxViW4kOh4AimYFEgWPU8hjgx5sRLsfiQApuuq/Agz3liBkIQCB+LeyV43vACv4vOIObxKiy7vxwe3BSmHUtxRFOwKBCsdh6D3gwIDLbe6kbC615UtDpPzEAIAOFjzdAACBQ+tIlwSnQeK7PWUSi4JrrxmMI0MxCOZgoWBYKqbwTlrVokvFUj6IyFui0bmcG6q0rcetWD/PoBKHocP5sgXPjjPRb3SvGs8TV+/3gBa56sg0+KLzzJLj+efZiWLYxpCsW38amjAJJeqV1lHywKBGXvCEqbBnDrlYUOaBGYAYFBSZOWwuB7x7KPt3Ac9es6U5BC1JGPy4XXsSl7O4UCN4Xpx1KMTWHpfW9EPorCybyTFAr2lH2wKBC6e0dQ3DCAGy/UCDT3AS3cDKbcBFTWp0BOqwh/FN3C1uxtCEwLxJLkZXDX9wEgk9uZA4ZT/b9/MQUPGriNehSFm8W37MoULAoEou1E30mDVbOe2MTNYMowIPYzMKwFgUKJpBz3K9OwP+cwhYJroitckxaBlOlyKEzNGnSmoMtALCfZBzszBQsDYRgf6zW48lwFclAqOUH557jO6e1l4GYwLRgY3w6pBtQol1YjvfoR9r87gMjMSCy776Ov2V/MYwvTDTiS/Q9J7hQK9mIK9gUEbgZmgwEBw+DIEAgUmpWtELV/xM3iBERnraa3DmQi88rGqVnCl1sO+zMFiwLBrGc6cjMwKwyMTYHs1iOBr8KuYlzIv4yN2VsQlhkB3wd++iyEzhb4bcTUAKErYPpiCh/bP6Fd3Ym+wX4Mjwxb7Pdq/Due6J8tCgSznenIzcCik4acPaCDQjfqFQ141fwWF/KvGmUheGzhy6f+VKDwxRTIbdmR90fwsukNWlQdFAoTXazW+D6LAkHcPYzs4j4cTe2G97EpHvIaJ8aseClc98sRc7kbN1/yOgNLTwyWhbhRnID4N/GIfhQN/7QgLLlPmq2Qyc2NYSqAIKZAUryhGaE4LTqHF42v6e2aLZmCbQNBbwYEBtGXFDibpTYUHfE6g69P8DUnJFgWolZRj9w2ERLLk7Hz9V4EZoTTWwiejZiKJZCf0ZnC0vvLKRRIIJdAwZZMwXaBYGQGERe6ceaxGq/K+iFR2tY9lzkXoq29FostkEzE3cpUHMk9hW0vtnNjMEP2wVZNwTaBIDADAoO8mgEKg4FBx+9nYCtgYLEFkokgR6WXSSvwvjWXG8M0gWDLpmBRIHQphpFV0EdPU1420RhCXBdmxYtpzICbgeVuC6YCHVPGEPM4BqEPI+CbGgTPZF1nJl2cgccavhdrsMWYgkWB0C4fwoO8XnpU2pIjEwgq6s9adDsgRvRlOb1N4GZgO1AwZQypVRn4XXQRm1/solAg1Y40zsArH8cpAbe9mIJFgUAOTr37vgfbEuTwPDzOIa/UDLrgdqALkRelOPNYyWMGn20HBmMZBTOGOkUTXjW/x63SJBx4fwSbs7di9ZPVCM+MQEB6CJY/8MdiulfCU5+h4OZgbA62ZAq2AQSDGXQh+rKMwiCvRsNjBjYOBGYMPdpeSPpkNIVWKauGqF2ER7VP6OapvTlHEfNkI4UCNwdT2QnbMYWZB4LeDFz2dSH8vBSnuRlYtAhprE96cz9H8uoklfaxswhpNU9wseA69r47aDCHiMxIBGeEwS/VuLZBYA93ySLRX06y+9IWTGFmgaA3AwKDFeekOJbejQ/V3AzMvUCt/XqkHJdAQaHpRru6C/WKJlTIqgzmcKMkAcfyzmLzi1j4p4XQTVQkDedyxwWuieRyg1uSB9ySFusup9l9OfOmYFEgtMiGkJjTgy235Fh8SBBDMDKD0LNSHE3rxpOCPpDMhLUnMP/7rBOrYOZQ0FWKZ41vcKv0Lg59OIbtL3diS/ZmbHi2DquzVtHmIiEZ4fBPC8ayFH+aufhSIUniD+wiVmFkEuzPdm4UQlN43vgSdYpGuhGNbEiz5Hy1KBCapUO49VqN9ddlWHTQCAgCMyAwyKnUUBhotLzOwJK/8Jl87S/moARp50Z2WVbJq1EsLkF+ZwHeteTgYe1j3Cy5g+N5Z7Hj9V6sfLIR/ukr9BWSLtQiTJqEwxjF16YQ/2YPUqsf0q3qpCbEkr9DiwKhSTKIGy9VWPuHDIsO6IEQ24lZ8V0gtwncDKzzyWzJCWSO1ybBSe3IILoH1GhStoEZRGJFKi4UXMfh3JOIfR2HLc83YcPTdVjzZDVWZcUg6lE0VjyMQGD6CrrXYnmKHzzueRnOYCSftF9sglmF8WjbhsFMgXS0Ik1sHlRloEpWY1FTsC4QdnbQJiksZsDNgAOBAGX08yhoxmJkCL009qAziBZVO40/VMlrUCYtR35nPt415+Bp/XP6iXm7NBGnP17C/pxj2PkqHqtI49gH/jQmQQ5mZVkNlzsLobtYjMJVXychiFXYnGHoTIG0tyNQ2PUqlkKBlJJbyhSsCAQxfo3twrz4LgSdluBIKo8ZmOPT1Zleg9U9dKjFqFc0o0hcjlfNH5BR8wR3y1NwqeAP7M85hB2vYrH95S5sfbEdm7M3Y+Oz9Vj/dK3BLMjuzYjMCKx4GIagjBXwTw+FX1owfB4EYGmKHzzve8MjeSktKtK1RBvPNIytYyp/NmEq+pgIgZtLoisCqCkcQkbNY7SpOyhECUzNOQesA4Srcrjvl2FuvAzeJ6SIv6fA6/J+HjOw8ToDc040c7wWq3voH9KgR9tHm7pI+uToUHehVdWGBkUjKmVVKJWU0YvFJnLb8vCm+a3BLO6UJdMaiTMfL+HQh1PY/fYQtr/ag/XPdyAyax0CMsLhleJL+0qS/pLfmgYzDuEoNBBmIuONJkxFbyzkuDjyb/C8t4RC4fD7w/T/R26zyHtijveWvYZFgUDOdcwQ9eJgihKR57vp+Y57kpVIyetFm9yy0VL2H+Sj896WsNgEvQ3p7wYzizJpNT52FOFNSy4e1WUjpSoTd8of4FrxHZzNv4ojeb8j/u0+g2lse7EDW7O30BjG5ucbDcax7skaGF8strHy8UqQi5lI2MNwGF/ETILTQxCUHqy/QmhdRlBGOALTwxCQvoJezFzIHhFy+aUGwj81AHvf7kOxuJTGXewKCOyglieFfbj8TI3rL3qQWz1AYUAOguWL1XkXqzV+9yw2MTQyDO3wIJhZKAfUUPR3Q9onR2ePGG3qTpB4RWN3C03vVctrUS6tNJhGqaQUJeISFHUV0TgGM44Xja9gfLHYRnJlKsjFTORSwTUYX+c+XaFZlCMfTsFw5f5ObWVfznHsyTlKL2YuW17uBrm2v4rH7rcHaBamsbvZ/m4ZSBMTec8w6roG8aFKY2huYo3JwP8ODhtzzwGhcUh75TC+mIFUyetBLmYiH9o+wfh62yLC88a3yKp/+dVFbCWj5inSarLoxczldlkyyEUshjxHztQgXa3M/f8jr2fRW4aR0c8gUOjRjIA0XCXnNPBOR3yhWmIiW+M1hcYxMKSF8cUMRK3tAbmYicj7FTC+pH0KWofR1SOB8UVshcRDSHUnudr05tKsbAO5iMWQ5wgMSFcrS/yfLQoES/yD+WtyoPA5YLk5wIHAI/0W+aThi9Zyi9aS7y0HAgcCBwKfA4Y5wIHAJ4NhMljyk4e/tn0YAwcCBwIHAp8DhjnAgcAng2Ey8E9x+/gUt+TviQOBA4EDgc8BwxzgQOCTwTAZLPnJw1/bPuyDA4EDgQOBzwHDHOBA4JPBMBn4p7h9fIpb8vfEgcCBwIHA54BhDnAg8MlgmAyW/OThr20f9sGBwIHAgcDngGEOcCDwyWCYDPxT3D4+xS35e+JA4EDgQOBzwDAH/n9Ytj5rfrYC6wAAAABJRU5ErkJggg==;" parent="GwdNWeb7kluTHXHWdRGs-1" vertex="1">
          <mxGeometry x="940" y="-2950" width="30.71" height="30" as="geometry" />
        </mxCell>
        <mxCell id="GwdNWeb7kluTHXHWdRGs-64" value="" style="shape=image;html=1;verticalAlign=top;verticalLabelPosition=bottom;labelBackgroundColor=#ffffff;imageAspect=0;aspect=fixed;image=https://cdn2.iconfinder.com/data/icons/amazon-aws-stencils/100/Database_copy_DynamoDB-128.png;fillColor=none;" parent="GwdNWeb7kluTHXHWdRGs-1" vertex="1">
          <mxGeometry x="819" y="-3105" width="70" height="70" as="geometry" />
        </mxCell>
        <mxCell id="GwdNWeb7kluTHXHWdRGs-68" value="" style="shape=image;html=1;verticalAlign=top;verticalLabelPosition=bottom;labelBackgroundColor=#ffffff;imageAspect=0;aspect=fixed;image=https://cdn2.iconfinder.com/data/icons/whcompare-servers-web-hosting/50/sftp-128.png" parent="GwdNWeb7kluTHXHWdRGs-1" vertex="1">
          <mxGeometry x="-967" y="-2522.5" width="66" height="66" as="geometry" />
        </mxCell>
        <mxCell id="hYkXJL-Iu95FIFLyxVBk-5" value="" style="edgeStyle=orthogonalEdgeStyle;rounded=0;orthogonalLoop=1;jettySize=auto;html=1;" parent="GwdNWeb7kluTHXHWdRGs-1" source="GwdNWeb7kluTHXHWdRGs-69" target="hYkXJL-Iu95FIFLyxVBk-3" edge="1">
          <mxGeometry relative="1" as="geometry" />
        </mxCell>
        <mxCell id="GwdNWeb7kluTHXHWdRGs-69" value="" style="shape=image;html=1;verticalAlign=top;verticalLabelPosition=bottom;labelBackgroundColor=#ffffff;imageAspect=0;aspect=fixed;image=https://cdn2.iconfinder.com/data/icons/orbiconspack/PNG/Symantec.png" parent="GwdNWeb7kluTHXHWdRGs-1" vertex="1">
          <mxGeometry x="-887" y="-2522.5" width="56.5" height="56.5" as="geometry" />
        </mxCell>
        <mxCell id="GwdNWeb7kluTHXHWdRGs-73" value="Check Results" style="rounded=0;whiteSpace=wrap;html=1;" parent="GwdNWeb7kluTHXHWdRGs-1" vertex="1">
          <mxGeometry x="-468" y="-2570" width="80" height="60" as="geometry" />
        </mxCell>
        <mxCell id="GwdNWeb7kluTHXHWdRGs-75" value="" style="edgeStyle=orthogonalEdgeStyle;rounded=0;orthogonalLoop=1;jettySize=auto;html=1;" parent="GwdNWeb7kluTHXHWdRGs-1" target="GwdNWeb7kluTHXHWdRGs-73" edge="1">
          <mxGeometry relative="1" as="geometry">
            <mxPoint x="-196" y="-2540" as="targetPoint" />
            <mxPoint x="-514" y="-2540" as="sourcePoint" />
          </mxGeometry>
        </mxCell>
        <mxCell id="GwdNWeb7kluTHXHWdRGs-76" value="" style="edgeStyle=orthogonalEdgeStyle;rounded=0;orthogonalLoop=1;jettySize=auto;html=1;dashed=1;" parent="GwdNWeb7kluTHXHWdRGs-1" target="GwdNWeb7kluTHXHWdRGs-77" edge="1">
          <mxGeometry relative="1" as="geometry">
            <mxPoint x="-428" y="-2510" as="sourcePoint" />
          </mxGeometry>
        </mxCell>
        <mxCell id="GwdNWeb7kluTHXHWdRGs-77" value="Check Results" style="rounded=0;whiteSpace=wrap;html=1;" parent="GwdNWeb7kluTHXHWdRGs-1" vertex="1">
          <mxGeometry x="-468" y="-2440" width="80" height="60" as="geometry" />
        </mxCell>
        <mxCell id="hYkXJL-Iu95FIFLyxVBk-2" value="" style="edgeStyle=orthogonalEdgeStyle;rounded=0;orthogonalLoop=1;jettySize=auto;html=1;entryX=0.5;entryY=0;entryDx=0;entryDy=0;" parent="GwdNWeb7kluTHXHWdRGs-1" source="hYkXJL-Iu95FIFLyxVBk-0" target="GwdNWeb7kluTHXHWdRGs-54" edge="1">
          <mxGeometry relative="1" as="geometry">
            <mxPoint x="-678" y="-2760" as="targetPoint" />
          </mxGeometry>
        </mxCell>
        <mxCell id="hYkXJL-Iu95FIFLyxVBk-0" value="&lt;br&gt;&lt;br&gt;&lt;br&gt;&lt;br&gt;&lt;br&gt;&lt;br&gt;&lt;br&gt;&lt;br&gt;3P&lt;br&gt;Sandbox Developer" style="shape=actor;whiteSpace=wrap;html=1;fillColor=#dae8fc;strokeColor=#6c8ebf;" parent="GwdNWeb7kluTHXHWdRGs-1" vertex="1">
          <mxGeometry x="-789" y="-2790" width="40" height="60" as="geometry" />
        </mxCell>
        <mxCell id="hYkXJL-Iu95FIFLyxVBk-4" value="" style="edgeStyle=orthogonalEdgeStyle;rounded=0;orthogonalLoop=1;jettySize=auto;html=1;" parent="GwdNWeb7kluTHXHWdRGs-1" source="hYkXJL-Iu95FIFLyxVBk-3" edge="1">
          <mxGeometry relative="1" as="geometry">
            <mxPoint x="-812" y="-2595.5" as="targetPoint" />
          </mxGeometry>
        </mxCell>
        <mxCell id="hYkXJL-Iu95FIFLyxVBk-3" value="" style="outlineConnect=0;dashed=0;verticalLabelPosition=bottom;verticalAlign=top;align=center;html=1;shape=mxgraph.aws3.lambda_function;fillColor=#F58534;gradientColor=none;" parent="GwdNWeb7kluTHXHWdRGs-1" vertex="1">
          <mxGeometry x="-885.5" y="-2623.5" width="53.5" height="55" as="geometry" />
        </mxCell>
        <mxCell id="hYkXJL-Iu95FIFLyxVBk-9" value="ECR" style="outlineConnect=0;fontColor=#232F3E;gradientColor=#F78E04;gradientDirection=north;fillColor=#D05C17;strokeColor=#ffffff;dashed=0;verticalLabelPosition=bottom;verticalAlign=top;align=center;html=1;fontSize=12;fontStyle=0;aspect=fixed;shape=mxgraph.aws4.resourceIcon;resIcon=mxgraph.aws4.ecr;" parent="GwdNWeb7kluTHXHWdRGs-1" vertex="1">
          <mxGeometry x="-545" y="-2251" width="54" height="54" as="geometry" />
        </mxCell>
        <mxCell id="hYkXJL-Iu95FIFLyxVBk-24" value="" style="edgeStyle=orthogonalEdgeStyle;rounded=0;orthogonalLoop=1;jettySize=auto;html=1;" parent="GwdNWeb7kluTHXHWdRGs-1" target="hYkXJL-Iu95FIFLyxVBk-21" edge="1">
          <mxGeometry relative="1" as="geometry">
            <mxPoint x="83.5714285714289" y="-2118" as="sourcePoint" />
          </mxGeometry>
        </mxCell>
        <mxCell id="hYkXJL-Iu95FIFLyxVBk-21" value="Product Status" style="strokeWidth=2;html=1;shape=mxgraph.flowchart.database;whiteSpace=wrap;" parent="GwdNWeb7kluTHXHWdRGs-1" vertex="1">
          <mxGeometry x="13" y="-2087" width="141" height="77" as="geometry" />
        </mxCell>
        <mxCell id="hYkXJL-Iu95FIFLyxVBk-23" value="" style="edgeStyle=orthogonalEdgeStyle;rounded=0;orthogonalLoop=1;jettySize=auto;html=1;" parent="GwdNWeb7kluTHXHWdRGs-1" source="hYkXJL-Iu95FIFLyxVBk-22" target="hYkXJL-Iu95FIFLyxVBk-21" edge="1">
          <mxGeometry relative="1" as="geometry" />
        </mxCell>
        <mxCell id="hYkXJL-Iu95FIFLyxVBk-22" value="Capella Dashboard" style="pointerEvents=1;shadow=0;dashed=0;html=1;strokeColor=none;labelPosition=center;verticalLabelPosition=bottom;verticalAlign=top;align=center;fillColor=#505050;shape=mxgraph.mscae.intune.company_portal" parent="GwdNWeb7kluTHXHWdRGs-1" vertex="1">
          <mxGeometry x="18" y="-1978" width="131" height="127" as="geometry" />
        </mxCell>
        <mxCell id="JY5BRYiODmJH8ySLDK6d-11" value="" style="edgeStyle=orthogonalEdgeStyle;rounded=0;orthogonalLoop=1;jettySize=auto;html=1;" parent="GwdNWeb7kluTHXHWdRGs-1" source="hYkXJL-Iu95FIFLyxVBk-25" target="hYkXJL-Iu95FIFLyxVBk-9" edge="1">
          <mxGeometry relative="1" as="geometry" />
        </mxCell>
        <mxCell id="hYkXJL-Iu95FIFLyxVBk-25" value="" style="shape=image;html=1;verticalAlign=top;verticalLabelPosition=bottom;labelBackgroundColor=#ffffff;imageAspect=0;aspect=fixed;image=https://cdn4.iconfinder.com/data/icons/web-development-5/500/api-code-window-128.png;imageBackground=#ffffff;imageBorder=#000000;dashed=1;dashPattern=1 1;" parent="GwdNWeb7kluTHXHWdRGs-1" vertex="1">
          <mxGeometry x="-455" y="-2251" width="54" height="54" as="geometry" />
        </mxCell>
        <mxCell id="hYkXJL-Iu95FIFLyxVBk-26" value="" style="edgeStyle=orthogonalEdgeStyle;rounded=0;orthogonalLoop=1;jettySize=auto;html=1;" parent="GwdNWeb7kluTHXHWdRGs-1" source="GwdNWeb7kluTHXHWdRGs-77" target="hYkXJL-Iu95FIFLyxVBk-25" edge="1">
          <mxGeometry relative="1" as="geometry">
            <mxPoint x="-428" y="-2380" as="sourcePoint" />
            <mxPoint x="-428" y="-2236" as="targetPoint" />
          </mxGeometry>
        </mxCell>
        <mxCell id="0pv32__lJGYIT4mu8PhQ-4" value="1. POST&amp;nbsp;&lt;br&gt;/inputResources" style="shape=image;html=1;verticalAlign=top;verticalLabelPosition=bottom;labelBackgroundColor=#ffffff;imageAspect=0;aspect=fixed;image=https://cdn4.iconfinder.com/data/icons/web-development-5/500/api-code-window-128.png" parent="GwdNWeb7kluTHXHWdRGs-1" vertex="1">
          <mxGeometry x="487" y="-3146" width="43" height="43" as="geometry" />
        </mxCell>
        <mxCell id="0pv32__lJGYIT4mu8PhQ-5" value="2. POST&lt;br&gt;/execute" style="shape=image;html=1;verticalAlign=top;verticalLabelPosition=bottom;labelBackgroundColor=#ffffff;imageAspect=0;aspect=fixed;image=https://cdn4.iconfinder.com/data/icons/web-development-5/500/api-code-window-128.png" parent="GwdNWeb7kluTHXHWdRGs-1" vertex="1">
          <mxGeometry x="558" y="-3146" width="43" height="43" as="geometry" />
        </mxCell>
        <mxCell id="0pv32__lJGYIT4mu8PhQ-6" value="3. GET &lt;br&gt;/status" style="shape=image;html=1;verticalAlign=top;verticalLabelPosition=bottom;labelBackgroundColor=#ffffff;imageAspect=0;aspect=fixed;image=https://cdn4.iconfinder.com/data/icons/web-development-5/500/api-code-window-128.png" parent="GwdNWeb7kluTHXHWdRGs-1" vertex="1">
          <mxGeometry x="615" y="-3144" width="43" height="43" as="geometry" />
        </mxCell>
        <mxCell id="0pv32__lJGYIT4mu8PhQ-7" value="4. GET &lt;br&gt;/outputResources" style="shape=image;html=1;verticalAlign=top;verticalLabelPosition=bottom;labelBackgroundColor=#ffffff;imageAspect=0;aspect=fixed;image=https://cdn4.iconfinder.com/data/icons/web-development-5/500/api-code-window-128.png" parent="GwdNWeb7kluTHXHWdRGs-1" vertex="1">
          <mxGeometry x="684" y="-3144.5" width="43" height="43" as="geometry" />
        </mxCell>
        <mxCell id="0pv32__lJGYIT4mu8PhQ-9" value="3P1" style="shape=image;html=1;verticalAlign=top;verticalLabelPosition=bottom;labelBackgroundColor=#ffffff;imageAspect=0;aspect=fixed;image=https://cdn4.iconfinder.com/data/icons/logos-and-brands/512/97_Docker_logo_logos-128.png" parent="GwdNWeb7kluTHXHWdRGs-1" vertex="1">
          <mxGeometry x="323" y="-3278" width="45" height="45" as="geometry" />
        </mxCell>
        <mxCell id="0pv32__lJGYIT4mu8PhQ-10" value="3P2" style="shape=image;html=1;verticalAlign=top;verticalLabelPosition=bottom;labelBackgroundColor=#ffffff;imageAspect=0;aspect=fixed;image=https://cdn4.iconfinder.com/data/icons/logos-and-brands/512/97_Docker_logo_logos-128.png" parent="GwdNWeb7kluTHXHWdRGs-1" vertex="1">
          <mxGeometry x="384" y="-3278" width="45" height="45" as="geometry" />
        </mxCell>
        <mxCell id="JY5BRYiODmJH8ySLDK6d-7" value="" style="edgeStyle=orthogonalEdgeStyle;rounded=0;orthogonalLoop=1;jettySize=auto;html=1;entryX=0.5;entryY=0;entryDx=0;entryDy=0;exitX=0.5;exitY=0;exitDx=0;exitDy=0;" parent="GwdNWeb7kluTHXHWdRGs-1" source="0pv32__lJGYIT4mu8PhQ-11" target="GwdNWeb7kluTHXHWdRGs-22" edge="1">
          <mxGeometry relative="1" as="geometry">
            <mxPoint x="468.5" y="-3358" as="targetPoint" />
          </mxGeometry>
        </mxCell>
        <mxCell id="0pv32__lJGYIT4mu8PhQ-11" value="3P3" style="shape=image;html=1;verticalAlign=top;verticalLabelPosition=bottom;labelBackgroundColor=#ffffff;imageAspect=0;aspect=fixed;image=https://cdn4.iconfinder.com/data/icons/logos-and-brands/512/97_Docker_logo_logos-128.png" parent="GwdNWeb7kluTHXHWdRGs-1" vertex="1">
          <mxGeometry x="446" y="-3278" width="45" height="45" as="geometry" />
        </mxCell>
        <mxCell id="0pv32__lJGYIT4mu8PhQ-12" value="EFS" style="rounded=0;whiteSpace=wrap;html=1;" parent="GwdNWeb7kluTHXHWdRGs-1" vertex="1">
          <mxGeometry x="314" y="-3206" width="196" height="27" as="geometry" />
        </mxCell>
        <mxCell id="0pv32__lJGYIT4mu8PhQ-13" value="Files" style="edgeStyle=orthogonalEdgeStyle;rounded=0;orthogonalLoop=1;jettySize=auto;html=1;entryX=1;entryY=0.5;entryDx=0;entryDy=0;" parent="GwdNWeb7kluTHXHWdRGs-1" source="0pv32__lJGYIT4mu8PhQ-15" target="0pv32__lJGYIT4mu8PhQ-12" edge="1">
          <mxGeometry relative="1" as="geometry">
            <mxPoint x="495" y="-3192.5" as="targetPoint" />
          </mxGeometry>
        </mxCell>
        <mxCell id="JY5BRYiODmJH8ySLDK6d-2" value="" style="edgeStyle=orthogonalEdgeStyle;rounded=0;orthogonalLoop=1;jettySize=auto;html=1;entryX=1;entryY=0.5;entryDx=0;entryDy=0;" parent="GwdNWeb7kluTHXHWdRGs-1" source="0pv32__lJGYIT4mu8PhQ-15" target="0pv32__lJGYIT4mu8PhQ-11" edge="1">
          <mxGeometry relative="1" as="geometry">
            <mxPoint x="605.5" y="-3303" as="targetPoint" />
            <Array as="points">
              <mxPoint x="606" y="-3255" />
              <mxPoint x="555" y="-3255" />
            </Array>
          </mxGeometry>
        </mxCell>
        <mxCell id="0pv32__lJGYIT4mu8PhQ-15" value="Proxy" style="shape=image;html=1;verticalAlign=top;verticalLabelPosition=bottom;labelBackgroundColor=#ffffff;imageAspect=0;aspect=fixed;image=https://cdn0.iconfinder.com/data/icons/social-media-2104/24/social_media_social_media_logo_docker-128.png" parent="GwdNWeb7kluTHXHWdRGs-1" vertex="1">
          <mxGeometry x="575" y="-3223" width="61" height="61" as="geometry" />
        </mxCell>
        <mxCell id="JY5BRYiODmJH8ySLDK6d-0" value="0 /&lt;span style=&quot;font-family: &amp;#34;ge inspira pitch&amp;#34; , &amp;#34;ge inspira&amp;#34; , &amp;#34;arial&amp;#34; , &amp;#34;helvetica&amp;#34; , sans-serif&quot;&gt;health/live&lt;br&gt;/health&lt;/span&gt;&lt;span style=&quot;font-family: &amp;#34;ge inspira pitch&amp;#34; , &amp;#34;ge inspira&amp;#34; , &amp;#34;arial&amp;#34; , &amp;#34;helvetica&amp;#34; , sans-serif&quot;&gt;/ready&lt;/span&gt;&lt;span style=&quot;font-family: &amp;#34;ge inspira pitch&amp;#34; , &amp;#34;ge inspira&amp;#34; , &amp;#34;arial&amp;#34; , &amp;#34;helvetica&amp;#34; , sans-serif&quot;&gt;&lt;br&gt;&lt;/span&gt;" style="shape=image;html=1;verticalAlign=top;verticalLabelPosition=bottom;labelBackgroundColor=none;imageAspect=0;aspect=fixed;image=https://cdn4.iconfinder.com/data/icons/web-development-5/500/api-code-window-128.png;dashed=1;imageBackground=none;fontSize=14;fontStyle=0" parent="GwdNWeb7kluTHXHWdRGs-1" vertex="1">
          <mxGeometry x="404" y="-3145" width="40" height="40" as="geometry" />
        </mxCell>
        <mxCell id="JY5BRYiODmJH8ySLDK6d-10" value="" style="edgeStyle=orthogonalEdgeStyle;rounded=0;orthogonalLoop=1;jettySize=auto;html=1;" parent="GwdNWeb7kluTHXHWdRGs-1" target="GwdNWeb7kluTHXHWdRGs-70" edge="1">
          <mxGeometry relative="1" as="geometry">
            <mxPoint x="-728" y="-2596" as="sourcePoint" />
          </mxGeometry>
        </mxCell>
        <mxCell id="GwdNWeb7kluTHXHWdRGs-42" value="Bash &lt;br&gt;ECR Push, Scan" style="rounded=0;whiteSpace=wrap;html=1;" parent="GwdNWeb7kluTHXHWdRGs-1" vertex="1">
          <mxGeometry x="-809" y="-2519.5" width="80" height="60" as="geometry" />
        </mxCell>
        <mxCell id="JY5BRYiODmJH8ySLDK6d-15" value="" style="edgeStyle=orthogonalEdgeStyle;rounded=0;orthogonalLoop=1;jettySize=auto;html=1;dashed=1;entryX=0;entryY=0.5;entryDx=0;entryDy=0;entryPerimeter=0;exitX=1;exitY=0.5;exitDx=0;exitDy=0;" parent="GwdNWeb7kluTHXHWdRGs-1" source="GwdNWeb7kluTHXHWdRGs-46" target="JY5BRYiODmJH8ySLDK6d-17" edge="1">
          <mxGeometry relative="1" as="geometry">
            <mxPoint x="149" y="-2540" as="targetPoint" />
            <mxPoint x="69" y="-2540" as="sourcePoint" />
          </mxGeometry>
        </mxCell>
        <mxCell id="JY5BRYiODmJH8ySLDK6d-16" value="" style="edgeStyle=orthogonalEdgeStyle;rounded=0;orthogonalLoop=1;jettySize=auto;html=1;" parent="GwdNWeb7kluTHXHWdRGs-1" source="JY5BRYiODmJH8ySLDK6d-17" edge="1">
          <mxGeometry relative="1" as="geometry">
            <mxPoint x="6" y="-2440" as="targetPoint" />
          </mxGeometry>
        </mxCell>
        <mxCell id="JY5BRYiODmJH8ySLDK6d-17" value="Issues" style="strokeWidth=2;html=1;shape=mxgraph.flowchart.decision;whiteSpace=wrap;fillColor=none;" parent="GwdNWeb7kluTHXHWdRGs-1" vertex="1">
          <mxGeometry x="-44" y="-2590" width="100" height="100" as="geometry" />
        </mxCell>
        <mxCell id="JY5BRYiODmJH8ySLDK6d-18" value="Email Notify Tech Support" style="rounded=0;whiteSpace=wrap;html=1;" parent="GwdNWeb7kluTHXHWdRGs-1" vertex="1">
          <mxGeometry x="-44" y="-2440" width="100" height="60" as="geometry" />
        </mxCell>
        <mxCell id="JY5BRYiODmJH8ySLDK6d-19" value="" style="edgeStyle=orthogonalEdgeStyle;rounded=0;orthogonalLoop=1;jettySize=auto;html=1;entryX=0;entryY=0.5;entryDx=0;entryDy=0;entryPerimeter=0;exitX=1;exitY=0.5;exitDx=0;exitDy=0;" parent="GwdNWeb7kluTHXHWdRGs-1" source="GwdNWeb7kluTHXHWdRGs-47" target="JY5BRYiODmJH8ySLDK6d-21" edge="1">
          <mxGeometry relative="1" as="geometry">
            <mxPoint x="753" y="-2540" as="targetPoint" />
            <mxPoint x="673" y="-2540" as="sourcePoint" />
          </mxGeometry>
        </mxCell>
        <mxCell id="JY5BRYiODmJH8ySLDK6d-20" value="" style="edgeStyle=orthogonalEdgeStyle;rounded=0;orthogonalLoop=1;jettySize=auto;html=1;" parent="GwdNWeb7kluTHXHWdRGs-1" source="JY5BRYiODmJH8ySLDK6d-21" edge="1">
          <mxGeometry relative="1" as="geometry">
            <mxPoint x="369" y="-2440" as="targetPoint" />
          </mxGeometry>
        </mxCell>
        <mxCell id="JY5BRYiODmJH8ySLDK6d-21" value="Issues" style="strokeWidth=2;html=1;shape=mxgraph.flowchart.decision;whiteSpace=wrap;fillColor=none;" parent="GwdNWeb7kluTHXHWdRGs-1" vertex="1">
          <mxGeometry x="319" y="-2590" width="100" height="100" as="geometry" />
        </mxCell>
        <mxCell id="JY5BRYiODmJH8ySLDK6d-22" value="Email Notify Customer" style="rounded=0;whiteSpace=wrap;html=1;" parent="GwdNWeb7kluTHXHWdRGs-1" vertex="1">
          <mxGeometry x="319" y="-2440" width="100" height="60" as="geometry" />
        </mxCell>
        <mxCell id="JY5BRYiODmJH8ySLDK6d-23" value="/results" style="shape=image;html=1;verticalAlign=top;verticalLabelPosition=bottom;labelBackgroundColor=none;imageAspect=0;aspect=fixed;image=https://cdn4.iconfinder.com/data/icons/web-development-5/500/api-code-window-128.png;dashed=1;imageBackground=none;fontSize=14;fontStyle=0" parent="GwdNWeb7kluTHXHWdRGs-1" vertex="1">
          <mxGeometry x="834" y="-3035" width="40" height="40" as="geometry" />
        </mxCell>
      </root>
    </mxGraphModel>
  </diagram>
</mxfile>
